<svg xmlns="http://www.w3.org/2000/svg" viewBox="0 0 63.48 63.49"><defs><style>.cls-1{fill:#f8ffff;}</style></defs><title>Asset 1</title><g id="Layer_2" data-name="Layer 2"><g id="Layer_1-2" data-name="Layer 1"><path class="cls-1" d="M31.74,0A31.74,31.74,0,1,0,63.48,31.74,31.78,31.78,0,0,0,31.74,0ZM1.82,32.63H12.25a48.12,48.12,0,0,0,2,13h-9A29.75,29.75,0,0,1,1.82,32.63ZM32.63,16V1.85c6,.5,11.21,6,14.19,14.18Zm14.81,1.77a46.72,46.72,0,0,1,2,13H32.63v-13ZM30.85,16H16.66c3-8.14,8.2-13.68,14.19-14.18Zm0,1.77v13H14a46.72,46.72,0,0,1,2-13Zm-18.6,13H1.82a29.75,29.75,0,0,1,3.42-13h9A48.12,48.12,0,0,0,12.25,30.86ZM14,32.63H30.85v13H16A46.72,46.72,0,0,1,14,32.63ZM30.85,47.45V61.64c-6-.5-11.21-6-14.19-14.18Zm1.77,0H46.82c-3,8.14-8.2,13.68-14.19,14.18Zm0-1.77v-13H49.46a46.72,46.72,0,0,1-2,13Zm18.6-13H61.67a29.75,29.75,0,0,1-3.42,13h-9A48.12,48.12,0,0,0,51.23,32.63Zm0-1.77a48.12,48.12,0,0,0-2-13h9a29.75,29.75,0,0,1,3.42,13Zm6-14.82H48.68c-2-5.73-5.1-10.33-8.8-13.11A30,30,0,0,1,57.21,16ZM23.61,2.93C19.9,5.71,16.82,10.3,14.8,16H6.27A30,30,0,0,1,23.61,2.93ZM6.27,47.45H14.8c2,5.73,5.1,10.33,8.8,13.1A30,30,0,0,1,6.27,47.45ZM39.88,60.56c3.71-2.78,6.78-7.38,8.8-13.11h8.53A30,30,0,0,1,39.88,60.56Z"/></g></g></svg>