<svg xmlns="http://www.w3.org/2000/svg" viewBox="0 0 37.54 25.3"><defs><style>.cls-1{fill:#0b132b;}</style></defs><title>Asset 17</title><g id="Layer_2" data-name="Layer 2"><g id="Layer_1-2" data-name="Layer 1"><path class="cls-1" d="M.31,4.32a15.66,15.66,0,0,0,0,2.2c.06,1-.07,2,.78,2.63a14.94,14.94,0,0,0,2.83,1.39,41.74,41.74,0,0,1,4.11,2,5.52,5.52,0,0,1,2.54,2.26,3.41,3.41,0,0,1,.2.68l.84-.22v0a13.82,13.82,0,0,0-.43-2.83,5.41,5.41,0,0,0-2.48-2.26,40.19,40.19,0,0,0-4-2,14.16,14.16,0,0,1-2.77-1.4A3.41,3.41,0,0,1,.31,4.32Z"/><path class="cls-1" d="M15.09,8a2.63,2.63,0,0,1,1.79-1c-1.36-.56-2.7-1.16-4-1.8a11.5,11.5,0,0,1-2.79-1.77A4,4,0,0,1,8.69.68a2.18,2.18,0,0,1-.82.19,8.17,8.17,0,0,1-1.2.06V1a12.33,12.33,0,0,0,3.6,4.21A31.48,31.48,0,0,0,15,8.08Z"/><path class="cls-1" d="M11.57,15.28l-.84.22c.13.7.08,1.45.23,2.15.43,2.06,2.42,3.54,4.44,4.56A28.68,28.68,0,0,0,28.71,25c2.57,0,5.29-.44,7.23-1.94a3,3,0,0,0,1.3-2,.49.49,0,0,0,0-.21c0-.5,0-1.41,0-2.05A3.2,3.2,0,0,1,36,20.69c-1.91,1.5-4.56,1.9-7.08,1.95a29.37,29.37,0,0,1-8-.93A24.58,24.58,0,0,1,15.9,19.8C13.93,18.79,12,17.31,11.57,15.28Z"/><path class="cls-1" d="M19.4,15.09A12.83,12.83,0,0,0,21,21.59l0,.12a29.37,29.37,0,0,0,8,.93c2.52,0,5.17-.45,7.08-1.95a3.2,3.2,0,0,0,1.26-1.8h0c0-.26,0-.47,0-.6a3.74,3.74,0,0,0-1.17-2,16.55,16.55,0,0,0-3.66-2.63A66.82,66.82,0,0,0,24.1,9.85l-.46.11a5.66,5.66,0,0,0-3.7,2.8A6,6,0,0,0,19.4,15.09Z"/><path class="cls-1" d="M3.18.51C2-.72.23,2.71.31,4.32A3.41,3.41,0,0,0,1.86,6.76a14.16,14.16,0,0,0,2.77,1.4,40.19,40.19,0,0,1,4,2,5.41,5.41,0,0,1,2.48,2.26,13.82,13.82,0,0,1,.43,2.83v0c.43,2,2.37,3.51,4.34,4.53A24.58,24.58,0,0,0,21,21.71l0-.12a12.83,12.83,0,0,1-1.59-6.5,6,6,0,0,1,.55-2.33,5.66,5.66,0,0,1,3.7-2.8l.46-.11C21.69,8.91,19.26,8,16.88,7a2.63,2.63,0,0,0-1.79,1L15,8.08a31.48,31.48,0,0,1-4.76-2.91A12.33,12.33,0,0,1,6.66,1v0C5.36.94,3.49.84,3.18.51Z"/><path class="cls-1" d="M20.89,22A24.81,24.81,0,0,1,15.79,20c-2.58-1.33-4.08-2.91-4.45-4.67l0-.06a8.41,8.41,0,0,1-.12-1.15,4.83,4.83,0,0,0-.29-1.64,5.21,5.21,0,0,0-2.37-2.14,40.12,40.12,0,0,0-4-2l-.37-.16A12.27,12.27,0,0,1,1.72,7,3.62,3.62,0,0,1,.06,4.34C0,3,1.1.57,2.22.09A1,1,0,0,1,3.36.34a8.9,8.9,0,0,0,3.3.35A7.78,7.78,0,0,0,7.81.63l.32,0A.9.9,0,0,0,8.54.48L8.93.2V.68a3.72,3.72,0,0,0,1.31,2.59A11.31,11.31,0,0,0,13,5c1.24.61,2.55,1.2,4,1.8s3.23,1.29,4.81,1.9l2.4.93a67.94,67.94,0,0,1,8.37,3.83,17,17,0,0,1,3.72,2.67,3.89,3.89,0,0,1,1.24,2.13,2,2,0,0,1,0,.52l0,.15-.43-.06.43.08a3.4,3.4,0,0,1-1.35,2c-1.64,1.29-4,1.94-7.23,2a30.3,30.3,0,0,1-5.13-.33A28.27,28.27,0,0,1,20.89,22ZM37,18.71a1.53,1.53,0,0,0,0-.39,3.43,3.43,0,0,0-1.1-1.85,16.54,16.54,0,0,0-3.61-2.58A67.58,67.58,0,0,0,24,10.08l-2.4-.93C20,8.54,18.38,7.91,16.79,7.25s-2.78-1.19-4-1.81A11.71,11.71,0,0,1,9.91,3.62,4.37,4.37,0,0,1,8.47,1l-.29,0-.25,0a8.44,8.44,0,0,1-1.26.07c-.74,0-3.21,0-3.67-.51A.46.46,0,0,0,2.42.54C1.5.93.5,3.19.56,4.31A3.14,3.14,0,0,0,2,6.56,11.91,11.91,0,0,0,4.36,7.77l.37.16a40.74,40.74,0,0,1,4,2,5.61,5.61,0,0,1,2.58,2.38,5.27,5.27,0,0,1,.33,1.8,9,9,0,0,0,.11,1.06l0,.06c.35,1.63,1.76,3.1,4.21,4.36a24.33,24.33,0,0,0,5,1.89,29,29,0,0,0,7.91.92c3.11-.05,5.38-.67,6.93-1.89A3,3,0,0,0,37,18.85Z"/><path class="cls-1" d="M15.09,8.32l.09-.15.06-.09a2.48,2.48,0,0,1,1.63-.88l0-.37a2.81,2.81,0,0,0-1.93,1A30.93,30.93,0,0,1,10.38,5,12.1,12.1,0,0,1,6.83.88L6.49,1a12.47,12.47,0,0,0,3.65,4.27,32,32,0,0,0,4.79,2.92Z"/><path class="cls-1" d="M23.35,24.94a31.9,31.9,0,0,0,5.36.35c3.3-.06,5.71-.71,7.38-2a3.19,3.19,0,0,0,1.4-2.13v-.25c0-.47,0-1.35,0-2v-.06c0-.27,0-.48,0-.61H37c0,.13,0,.33,0,.58l.24.07H37c0,.65-.05,1.53,0,2v.17a2.81,2.81,0,0,1-1.21,1.79c-1.58,1.22-3.9,1.84-7.09,1.89A28.33,28.33,0,0,1,15.51,22c-2.52-1.27-4-2.75-4.31-4.39a7.66,7.66,0,0,1-.12-1.08A8.84,8.84,0,0,0,11,15.45a3.65,3.65,0,0,0-.22-.74,5.72,5.72,0,0,0-2.64-2.38,42.17,42.17,0,0,0-4.14-2l-.38-.16A12.55,12.55,0,0,1,1.19,9C.57,8.52.55,7.78.53,7c0-.16,0-.32,0-.47a15.42,15.42,0,0,1,0-2.17l-.49,0A16,16,0,0,0,0,6.54C0,6.69,0,6.85,0,7A2.69,2.69,0,0,0,.9,9.36a12.87,12.87,0,0,0,2.49,1.26l.38.16a41.55,41.55,0,0,1,4.09,2,5.33,5.33,0,0,1,2.43,2.14,3.15,3.15,0,0,1,.19.63,8.33,8.33,0,0,1,.1,1,8.21,8.21,0,0,0,.13,1.15c.37,1.8,1.91,3.39,4.57,4.73A27,27,0,0,0,23.35,24.94Z"/><path class="cls-1" d="M15.06,8l.07-.1,0,0a3.21,3.21,0,0,1-.25-.77,2.58,2.58,0,0,0-.37-1l-.1.07a2.44,2.44,0,0,1,.35.93,3.31,3.31,0,0,0,.26.8A.25.25,0,0,0,15.06,8Z"/><path class="cls-1" d="M20.82,21.67l.33-.16a12.71,12.71,0,0,1-1.57-6.41,5.78,5.78,0,0,1,.53-2.26,5.49,5.49,0,0,1,3.58-2.7l.45-.11-.08-.36-.46.11a5.79,5.79,0,0,0-3.81,2.89,6.14,6.14,0,0,0-.57,2.41A13,13,0,0,0,20.82,21.67Z"/><path class="cls-1" d="M7.68,1.35A2.14,2.14,0,0,0,7.07,2.6a4.67,4.67,0,0,0,0,1.31A5.48,5.48,0,0,0,8,6.28a13.58,13.58,0,0,1-.36-2.42A6.75,6.75,0,0,1,7.68,2.7a2.35,2.35,0,0,1,.36-1Z"/><path class="cls-1" d="M13.3,7.23l.1,0c.46-.11.94-.21,1.41-.3a4,4,0,0,1,1.7,0l0-.12a4.08,4.08,0,0,0-1.75,0c-.44.08-.88.17-1.31.27a2.53,2.53,0,0,1,.34-.71l.33-.54a.14.14,0,0,0,0-.15.1.1,0,0,0-.1,0l-2.29.46a4.07,4.07,0,0,1,.3-.58,5.64,5.64,0,0,0,.27-.5l0-.1h-.11c-.29,0-.55,0-.8,0a6.35,6.35,0,0,0-1.2.08,3.94,3.94,0,0,1,.53-1L10.85,4l-.09,0A3.28,3.28,0,0,0,9,3.86c.06-.16.14-.31.21-.47a6.59,6.59,0,0,0,.3-.69l0-.08H9a5.4,5.4,0,0,0-1.17.08l0,.12A5.29,5.29,0,0,1,9,2.75h.36c-.07.2-.17.4-.26.6s-.19.39-.26.6l0,.12L8.9,4a2.85,2.85,0,0,1,1.74,0,4,4,0,0,0-.53,1l0,.1.11,0a5.86,5.86,0,0,1,1.29-.1l.71,0c-.07.15-.15.27-.22.4a3.8,3.8,0,0,0-.35.71l0,.1.11,0L14,5.75l-.32.53a2.57,2.57,0,0,0-.38.85Z"/></g></g></svg>