<?xml version="1.0" encoding="utf-8"?>
<!-- Generator: Adobe Illustrator 21.0.0, SVG Export Plug-In . SVG Version: 6.00 Build 0)  -->
<svg version="1.1" id="Layer_1" xmlns="http://www.w3.org/2000/svg" xmlns:xlink="http://www.w3.org/1999/xlink" x="0px" y="0px"
	 viewBox="0 0 26.1 50.7" style="enable-background:new 0 0 26.1 50.7;" xml:space="preserve">
<style type="text/css">
	.st0{fill:#5BC0BE;}
</style>
<title>Asset 24</title>
<g id="Layer_2">
	<g id="Layer_1-2">
		<path class="st0" d="M19,15.2c1.3,4.1,1.9,8.6,0.2,12.5l0.1,0.1c1-0.3,1.9-0.9,2.4-1.9c0.5-0.9,0.8-1.9,0.9-2.9
			c0.4-2.6,0.2-5.2-0.4-7.8c-0.1-0.5-0.3-0.9-0.7-1.2c-0.4-0.2-1-0.2-1.4,0.1c-0.4,0.3-0.7,0.6-1,1.1L19,15.2z"/>
		<path class="st0" d="M19.1,28l0.1-0.2c1.6-3.9,1-8.4-0.2-12.5c0-0.1,0-0.1-0.1-0.2c-0.1-0.5-0.4-0.9-0.8-1.1
			c-0.3-0.1-0.6,0-0.9,0.1c-1.3,0.5-2.1,1.7-2.2,3.1l0,0c1.3,3.2,1.8,6.7,1.5,10.2c-0.1,1.2-0.4,2.3-0.9,3.4
			C17.3,31.5,18.6,29.3,19.1,28z"/>
		<path class="st0" d="M12.2,33.2c1.3-0.1,2.5-0.8,3.2-2c0.1-0.1,0.1-0.2,0.2-0.3c0.5-1.1,0.8-2.2,0.9-3.4c0.3-3.5-0.2-7-1.5-10.2
			c0-0.1-0.1-0.1-0.1-0.2c-0.1-0.3-0.3-0.5-0.6-0.7c-0.4-0.1-0.7,0.2-0.9,0.5c-0.8,1-1.4,2.1-1.8,3.3c0.6,1.8,0.8,3.8,0.5,5.7
			c-0.2,1.5-0.9,3.1-2.3,3.6c-0.1,0-0.2,0.1-0.2,0.1v0.1V30C9.9,31.3,11.1,33.1,12.2,33.2z"/>
		<path class="st0" d="M0.6,14.7c-0.4,4,0.6,9.4,1.2,13.3s1.4,7.7,0.7,11.6c-0.6,2.4-0.9,4.8-1,7.2c0,1.4,1,3.1,2.3,3.4
			c1.3,0.2,2.6-0.3,3.4-1.3c2.2-2.7,2.4-6.6,2.5-10.1c0.1-1.5,0-6.5-0.1-8.8c0-0.1,0-0.2,0-0.4v-0.1c-0.2,0.1-0.5,0-0.7-0.1
			c-0.4-0.3-0.6-0.7-0.7-1.2c-1.4-4.8-6.9-7.7-7.6-12.6C0.6,15.4,0.6,15,0.6,14.7z"/>
		<path class="st0" d="M8.3,28.3c0.1,0.5,0.3,0.9,0.7,1.2c0.2,0.1,0.5,0.1,0.7,0.1c0.1,0,0.2,0,0.2-0.1c1.4-0.5,2.1-2.1,2.3-3.6
			c0.3-1.9,0.1-3.9-0.5-5.7c0.4-1.2,1-2.3,1.8-3.3c0.2-0.3,0.6-0.6,0.9-0.5c0.3,0.1,0.5,0.4,0.6,0.7c0,0.1,0.1,0.1,0.1,0.2l0,0
			c0.1-1.4,0.9-2.6,2.2-3.2c0.3-0.2,0.6-0.2,0.9-0.1c0.4,0.2,0.7,0.6,0.8,1.1c0,0.1,0,0.1,0.1,0.2h0.1c0.3-0.4,0.6-0.8,1-1.1
			c0.4-0.3,0.9-0.4,1.3-0.2c0.4,0.3,0.6,0.7,0.7,1.2c0.7,2.5,0.8,5.2,0.4,7.8c1.5-3,3.2-8.2,3-11.5c-0.3-3.3-1.5-6.4-3.4-9.1
			c-0.6-0.9-1.4-1.2-1.8-2.2l-11.8,0c0.2,2.2-1.7,4-3.3,5.6c-1.4,1.3-2.5,2.8-3.5,4.4c-0.7,1.4-1.1,2.9-1.2,4.4c0,0.3,0,0.7,0.1,1
			C1.4,20.6,6.9,23.5,8.3,28.3z"/>
		<path d="M9.4,30.1c0.2,0,0.5,0,0.7-0.1c1.4-0.5,2.3-1.9,2.6-4c0.4-2.7-0.1-5.4-1.4-7.8c-0.6-1.2-1.5-2.2-2.7-2.9l-0.5,0.9
			c1,0.6,1.8,1.5,2.3,2.5c1.2,2.2,1.6,4.7,1.2,7.2c-0.1,0.8-0.6,2.7-2,3.2c-0.2,0.1-0.4,0.1-0.6,0c-0.2-0.1-0.3-0.5-0.4-0.8
			c-0.8-2.3-2.1-4.4-3.8-6.1c-1.7-2.1-3.4-4-3.8-6.5c-0.2-1.8,0.1-3.6,1-5.2c0.9-1.6,2.1-3.1,3.4-4.3L5.7,6c1.7-1.6,3.5-3.5,3.3-5.9
			l-1,0.1c0.1,2-1.6,3.6-3,5.1L4.9,5.4C3.5,6.8,2.3,8.3,1.3,10c-1,1.8-1.4,3.8-1.1,5.8c0.4,2.8,2.2,4.9,4,7c1.5,1.8,3,3.6,3.6,5.7
			c0.1,0.6,0.4,1.1,0.9,1.5C8.9,30,9.1,30.1,9.4,30.1z"/>
		<path d="M12.3,33.7c1.5-0.1,2.8-0.9,3.6-2.2c0.7-1.2,1.1-2.6,1.1-3.9c0.4-3.6-0.2-7.3-1.6-10.7c-0.1-0.5-0.5-0.8-0.9-1
			c-0.6-0.1-1.1,0.1-1.4,0.6c-0.8,1.1-1.5,2.2-1.9,3.5l0.9,0.3c0.4-1.1,0.9-2.2,1.7-3.2c0.2-0.3,0.4-0.3,0.4-0.3s0.1,0,0.2,0.4
			c1.3,3.2,1.9,6.8,1.5,10.3c-0.1,1.2-0.4,2.4-1,3.5c-0.6,1-1.6,1.6-2.8,1.7c-0.4-0.1-0.7-0.2-0.9-0.5c-0.7-0.7-1.1-1.6-1.1-2.5h-1
			c0.1,1.2,0.6,2.4,1.4,3.2C11,33.3,11.6,33.6,12.3,33.7L12.3,33.7z"/>
		<path d="M16.2,31.5c1.3,0,2.5-1.2,3.5-3.3c1.6-3.5,1.5-8-0.2-13.3c-0.1-0.6-0.5-1.1-1.1-1.4c-0.4-0.1-0.9-0.1-1.3,0.1
			c-1.4,0.6-2.4,2-2.5,3.6h1c0.1-1.2,0.8-2.2,1.9-2.7c0.2-0.1,0.4-0.1,0.5-0.1c0.2,0.1,0.4,0.4,0.5,0.8c1.6,5,1.7,9.2,0.2,12.6
			c-0.3,0.7-1.5,3.1-2.9,2.6l-0.3,1C15.7,31.5,15.9,31.5,16.2,31.5z"/>
		<path d="M19.5,28.3c1.1-0.3,2.1-1.1,2.7-2.1c0.5-1,0.8-2,1-3.1c0.4-2.7,0.2-5.4-0.4-8c-0.1-0.6-0.4-1.1-0.9-1.5
			c-0.6-0.3-1.3-0.3-1.9,0.1c-0.4,0.3-0.8,0.7-1.1,1.2l0.8,0.6c0.2-0.4,0.5-0.7,0.8-0.9c0.2-0.2,0.6-0.2,0.8-0.1
			c0.3,0.2,0.4,0.5,0.5,0.9c0.6,2.5,0.8,5,0.4,7.6c-0.1,1-0.4,1.9-0.8,2.8c-0.4,0.8-1.1,1.4-2,1.6L19.5,28.3z"/>
		<path d="M4.4,50.7c1.3,0,2.4-0.6,3.2-1.6c2.3-2.9,2.5-7,2.6-10.4c0.1-1.7,0-7.2-0.1-9.2l-1,0.1c0.2,2,0.2,7.4,0.1,9.1
			c-0.1,3.2-0.3,7.2-2.4,9.8c-0.7,0.9-1.8,1.3-2.9,1.1c-1.2-0.3-2-1.8-2-3c0-1.8,0.2-3.6,0.7-5.4c0.1-0.6,0.2-1.1,0.3-1.7
			C3.6,36,3,32.5,2.4,29l-0.3-1.9c-0.6-3.7-1.4-8.8-1-12.5l-1-0.1c-0.4,3.8,0.4,9,1.1,12.7l0.3,1.9C2,32.7,2.6,36,2,39.5
			c-0.1,0.5-0.2,1.1-0.3,1.7C1.3,43,1,44.9,1,46.7c0,1.6,1.1,3.5,2.7,3.9C3.9,50.7,4.2,50.7,4.4,50.7z"/>
		<path d="M16.4,8.2c0.2,0.7,0.4,1.5,0.5,2.3c0.1,0.7,0.1,1.5-0.1,2.2c-0.3,0.7-0.6,1.3-1.1,1.8c-0.5,0.6-1,1.1-1.5,1.6l0.5,0.7
			c0.7-0.4,1.3-0.9,1.9-1.6c0.6-0.6,1-1.4,1.2-2.2c0.1-0.8,0-1.7-0.2-2.5C17.2,9.6,16.9,8.9,16.4,8.2z"/>
		<path d="M23.1,23.2c1.7-3.2,3.2-8.5,3-11.8c-0.3-3.4-1.5-6.6-3.5-9.3c-0.2-0.3-0.5-0.7-0.8-1c-0.4-0.3-0.7-0.7-0.9-1.2l-0.9,0.4
			C20.2,1,20.5,1.5,21,1.9c0.3,0.2,0.5,0.5,0.7,0.8c1.9,2.6,3,5.6,3.3,8.8c0.2,3-1.3,8.2-2.9,11.2L23.1,23.2z"/>
	</g>
</g>
</svg>
