<svg xmlns="http://www.w3.org/2000/svg" viewBox="0 0 49.14 19.84"><defs><style>.cls-1{fill:#f8ffff;}.cls-2{fill:#0b132b;}</style></defs><title>Asset 11</title><g id="Layer_2" data-name="Layer 2"><g id="Layer_1-2" data-name="Layer 1"><path class="cls-1" d="M47.07,4.86l-.49-.19c-1-.44-2.13-.86-3.25-1.23a46.41,46.41,0,0,0-12.7-2.3c0,3.14-.21,8.54-.39,11.41.51,1.27,1,2.56,1.38,3.88l.2-1c2.46.47,5,1,7.63,1.52,2.22.46,4.44.91,6.58,1.32.33-1.59.63-3.2.87-4.8.37-2.47.62-5,.75-7.47,0-.13,0-.27,0-.41a2.63,2.63,0,0,0,0-.49A6.43,6.43,0,0,0,47.07,4.86Z"/><path class="cls-1" d="M18.68,9.46c-.14-1.66-.22-3.32-.27-5,0-.69,0-1.38,0-2.07s0-1.13,0-1.71h0A39.76,39.76,0,0,0,6,2.89C5,3.23,4,3.62,3,4.05a4.67,4.67,0,0,0-1.35.65v0a.91.91,0,0,0-.18.63c0,.28,0,.56.06.82.12,2.33.34,4.67.67,7q.39,2.71,1,5.38c4.32-.85,16-3,16-3C19.08,13,18.88,12,18.68,9.46Z"/><path class="cls-2" d="M48.71,4.32a3.33,3.33,0,0,0-1.35-.74L47,3.46c-1-.43-2-.83-3-1.19A41.26,41.26,0,0,0,31.24,0l-1,0V.95q0,.51,0,1c-.21-.15-.43-.3-.68-.45A11,11,0,0,0,22.81.12a9.6,9.6,0,0,0-4,1.37c0-.18,0-.36,0-.53V0l-1,0A41.26,41.26,0,0,0,5.13,2.26c-1,.36-2.06.76-3,1.19l-.31.12a3.33,3.33,0,0,0-1.35.74A2.25,2.25,0,0,0,0,6.17c0,.1,0,.19,0,.28.12,2.35.35,4.73.68,7.06.26,1.82.59,3.65,1,5.44l.19.88.89-.17c2.1-.41,5.93-1.12,9.32-1.75,7.26-1.34,7.26-1.34,7.47-1.82l.09-.2v-.21c-.07-1.54-.18-2.55-.3-3.62-.08-.71-.16-1.46-.23-2.44C19,8,18.94,6.33,18.89,4.68a8.41,8.41,0,0,1,4-1.57A10,10,0,0,1,29.16,4.4a6.17,6.17,0,0,1,1.17.87c0,1.22,0,2.46-.11,3.77l1.58,3.51c.16-2.6.34-7.71.35-10.66A39.38,39.38,0,0,1,43.4,4c1,.34,2,.72,2.88,1.13l.44.17c.16.06.44.16.57.22a3.63,3.63,0,0,1,0,.45c0,.13,0,.26,0,.38-.11,2.29-.34,4.61-.67,6.89-.21,1.47-.47,3-.77,4.43-1.9-.38-3.86-.8-5.83-1.22-2.29-.49-4.58-1-6.76-1.4l-.36,1.81c2.17.42,4.45.91,6.72,1.39s4.58,1,6.76,1.4l.89.17.19-.88c.39-1.8.72-3.63,1-5.44.33-2.34.56-4.71.68-7.06,0-.09,0-.18,0-.28A2.25,2.25,0,0,0,48.71,4.32ZM11.79,16.11c-3,.55-6.25,1.16-8.44,1.58-.3-1.46-.56-3-.77-4.43C2.25,11,2,8.66,1.91,6.37c0-.12,0-.25,0-.38a3.74,3.74,0,0,1,0-.45,5.33,5.33,0,0,1,.57-.23l.44-.17C3.78,4.73,4.75,4.35,5.74,4A39.39,39.39,0,0,1,17,1.89c0,2.63.1,5.28.31,7.89.08,1,.16,1.77.24,2.49.09.88.18,1.67.24,2.73Z"/><path class="cls-2" d="M33.21,15.27c.15.15.19.55-.35,1.61l-2.62-.46h0l-.2-.26a.92.92,0,0,1-.14-.45q0-2.2.18-4.52.06-1.09.14-2.16l1.65,2.45c0,.39-.06,1-.13,1.83-.11,1.21-.19,1.66.09,1.88S32.92,15,33.21,15.27Z"/><rect class="cls-2" x="31.29" y="14.89" width="2.03" height="0.58" transform="translate(3.76 -6.26) rotate(11.74)"/><path class="cls-2" d="M29.74,16"/></g></g></svg>