<svg xmlns="http://www.w3.org/2000/svg" viewBox="0 0 39.59 25.16"><defs><style>.cls-1{fill:#f8ffff;}.cls-2{fill:#3a506b;}.cls-3{fill:#0b132b;}</style></defs><title>Asset 18</title><g id="Layer_2" data-name="Layer 2"><g id="Layer_1-2" data-name="Layer 1"><path class="cls-1" d="M.3,8.25a15.66,15.66,0,0,0,.29,2.19c.2.95.24,2,1.16,2.49a14.94,14.94,0,0,0,3,1,41.74,41.74,0,0,1,4.37,1.35A5.52,5.52,0,0,1,12,17.08a3.41,3.41,0,0,1,.31.65l.8-.34v0a13.82,13.82,0,0,0-.85-2.74,5.41,5.41,0,0,0-2.79-1.86,40.19,40.19,0,0,0-4.28-1.37,14.16,14.16,0,0,1-2.95-1A3.41,3.41,0,0,1,.3,8.25Z"/><path class="cls-1" d="M15.46,9.63a2.63,2.63,0,0,1,1.62-1.21c-1.43-.35-2.85-.74-4.24-1.18a11.5,11.5,0,0,1-3-1.33A4,4,0,0,1,8,3.39c-.2.2-.51.21-.78.31a8.17,8.17,0,0,1-1.18.24V4a12.33,12.33,0,0,0,4.19,3.62,31.48,31.48,0,0,0,5.14,2.16Z"/><path class="cls-1" d="M13.08,17.38l-.8.34c.23.68.3,1.42.55,2.09.73,2,2.92,3.14,5.08,3.84a28.68,28.68,0,0,0,13.59.8c2.54-.43,5.16-1.23,6.86-3a3,3,0,0,0,1-2.13.49.49,0,0,0,0-.21c-.11-.49-.21-1.39-.29-2a3.2,3.2,0,0,1-1,2c-1.66,1.77-4.22,2.57-6.71,3a29.37,29.37,0,0,1-8,.29A24.58,24.58,0,0,1,18,21.2C15.94,20.5,13.81,19.32,13.08,17.38Z"/><path class="cls-1" d="M20.79,16a12.83,12.83,0,0,0,2.55,6.18v.13a29.37,29.37,0,0,0,8-.29c2.48-.42,5-1.22,6.71-3a3.2,3.2,0,0,0,1-2h0c0-.25-.06-.46-.08-.59a3.74,3.74,0,0,0-1.46-1.79,16.55,16.55,0,0,0-4-2,66.82,66.82,0,0,0-8.82-2.51l-.43.18A5.66,5.66,0,0,0,21,13.63,6,6,0,0,0,20.79,16Z"/><path class="cls-2" d="M2.56,4C1.24,3,0,6.67.3,8.25a3.41,3.41,0,0,0,1.9,2.17,14.16,14.16,0,0,0,2.95,1,40.19,40.19,0,0,1,4.28,1.37,5.41,5.41,0,0,1,2.79,1.86,13.82,13.82,0,0,1,.85,2.74v0c.73,1.94,2.87,3.11,5,3.82a24.58,24.58,0,0,0,5.28,1.13v-.13A12.83,12.83,0,0,1,20.79,16,6,6,0,0,1,21,13.64a5.66,5.66,0,0,1,3.23-3.32l.43-.18c-2.52-.57-5.06-1.1-7.56-1.72a2.63,2.63,0,0,0-1.62,1.21l-.05.12a31.48,31.48,0,0,1-5.14-2.16A12.33,12.33,0,0,1,6.07,4V4C4.79,4.15,2.91,4.33,2.56,4Z"/><path class="cls-3" d="M23.3,22.58A24.81,24.81,0,0,1,18,21.44c-2.75-.93-4.48-2.26-5.11-3.95l0-.05a8.41,8.41,0,0,1-.3-1.11A4.83,4.83,0,0,0,12,14.74,5.21,5.21,0,0,0,9.34,13a40.12,40.12,0,0,0-4.25-1.36l-.38-.1a12.27,12.27,0,0,1-2.61-.88,3.62,3.62,0,0,1-2-2.34C-.21,7,.51,4.42,1.55,3.77a1,1,0,0,1,1.16.07A8.9,8.9,0,0,0,6,3.7a7.78,7.78,0,0,0,1.13-.23l.3-.09a.9.9,0,0,0,.4-.17l.34-.33.08.47A3.72,3.72,0,0,0,10,5.7a11.31,11.31,0,0,0,3,1.3c1.32.42,2.7.8,4.22,1.17s3.39.79,5,1.16l2.51.56a67.94,67.94,0,0,1,8.85,2.52,17,17,0,0,1,4.08,2.08,3.89,3.89,0,0,1,1.55,1.92,2,2,0,0,1,.09.51v.15h0a3.4,3.4,0,0,1-1,2.13c-1.43,1.52-3.67,2.52-6.84,3.07a30.3,30.3,0,0,1-5.13.44A28.27,28.27,0,0,1,23.3,22.58Zm15.47-5.64a1.53,1.53,0,0,0-.07-.39,3.43,3.43,0,0,0-1.37-1.66,16.54,16.54,0,0,0-4-2,67.58,67.58,0,0,0-8.79-2.51l-2.51-.56C20.42,9.45,18.7,9.07,17,8.66s-2.93-.76-4.26-1.18A11.71,11.71,0,0,1,9.69,6.11,4.37,4.37,0,0,1,7.87,3.77l-.28.08-.24.07a8.44,8.44,0,0,1-1.24.26c-.74.12-3.18.46-3.7,0a.46.46,0,0,0-.59,0C1,4.72.31,7.1.54,8.2a3.14,3.14,0,0,0,1.77,2A11.91,11.91,0,0,0,4.82,11l.39.1a40.74,40.74,0,0,1,4.31,1.38,5.61,5.61,0,0,1,2.91,2,5.27,5.27,0,0,1,.6,1.73,9,9,0,0,0,.26,1l0,.05c.59,1.56,2.21,2.8,4.82,3.68a24.33,24.33,0,0,0,5.23,1.12,29,29,0,0,0,8-.28c3.07-.52,5.22-1.48,6.57-2.92a3,3,0,0,0,.9-1.81Z"/><path class="cls-3" d="M15.51,10l.07-.16,0-.1A2.48,2.48,0,0,1,17.1,8.6l0-.37a2.81,2.81,0,0,0-1.76,1.28,30.93,30.93,0,0,1-5-2.09A12.1,12.1,0,0,1,6.22,3.86l-.3.21a12.47,12.47,0,0,0,4.26,3.67,32,32,0,0,0,5.17,2.17Z"/><path class="cls-3" d="M26.18,25.16a31.9,31.9,0,0,0,5.35-.46c3.25-.55,5.54-1.56,7-3.08a3.19,3.19,0,0,0,1.06-2.31V19.2l0-.14c-.1-.46-.2-1.33-.28-2V17c0-.26-.06-.47-.09-.6l-.49.08c0,.12,0,.33.08.57l.25,0-.24,0c.08.64.18,1.52.29,2l0,.1v.06a2.81,2.81,0,0,1-.92,1.95c-1.38,1.45-3.58,2.41-6.72,2.94A28.33,28.33,0,0,1,18,23.42c-2.68-.88-4.34-2.12-4.92-3.69a7.66,7.66,0,0,1-.28-1.05,8.84,8.84,0,0,0-.27-1,3.65,3.65,0,0,0-.33-.69,5.72,5.72,0,0,0-3-2,42.17,42.17,0,0,0-4.39-1.36l-.4-.1a12.55,12.55,0,0,1-2.55-.83c-.67-.34-.8-1.07-.94-1.85,0-.16-.06-.31-.09-.47A15.42,15.42,0,0,1,.55,8.23l-.49,0a16,16,0,0,0,.29,2.22c0,.15.06.3.09.45a2.69,2.69,0,0,0,1.21,2.2A12.87,12.87,0,0,0,4.29,14l.4.1A41.55,41.55,0,0,1,9,15.46a5.33,5.33,0,0,1,2.72,1.75,3.15,3.15,0,0,1,.28.6,8.33,8.33,0,0,1,.25,1,8.21,8.21,0,0,0,.3,1.12c.64,1.72,2.4,3.06,5.23,4A27,27,0,0,0,26.18,25.16Z"/><path class="cls-3" d="M15.44,9.68l0-.11,0,0a3.21,3.21,0,0,1-.36-.72,2.58,2.58,0,0,0-.51-.91L14.48,8a2.44,2.44,0,0,1,.49.86,3.31,3.31,0,0,0,.38.75A.25.25,0,0,0,15.44,9.68Z"/><path class="cls-3" d="M23.19,22.31l.31-.21A12.71,12.71,0,0,1,21,16a5.78,5.78,0,0,1,.18-2.32,5.49,5.49,0,0,1,3.13-3.21l.43-.18L24.58,10l-.44.18a5.79,5.79,0,0,0-3.34,3.43A6.14,6.14,0,0,0,20.6,16,13,13,0,0,0,23.19,22.31Z"/><path class="cls-3" d="M7.4,4.59a17.75,17.75,0,0,1,1.93-.45,13.76,13.76,0,0,1,2-.21,13.8,13.8,0,0,1,2,0,17.71,17.71,0,0,1,2,.3,9.41,9.41,0,0,0-1.94-.63,11.64,11.64,0,0,0-2-.24,11.7,11.7,0,0,0-2.06.16,9.58,9.58,0,0,0-2,.56Z"/><path class="cls-3" d="M7.14,4.2a2.14,2.14,0,0,0-.41,1.32,4.67,4.67,0,0,0,.19,1.3A5.48,5.48,0,0,0,8.18,9,13.58,13.58,0,0,1,7.46,6.7a6.75,6.75,0,0,1-.12-1.17,2.35,2.35,0,0,1,.21-1.05Z"/><path class="cls-3" d="M13.58,9.17l.09,0c.44-.18.9-.35,1.34-.5a4,4,0,0,1,1.67-.3V8.2a4.08,4.08,0,0,0-1.72.3c-.42.14-.84.3-1.25.47A2.53,2.53,0,0,1,14,8.22l.25-.58a.14.14,0,0,0,0-.14.1.1,0,0,0-.1,0l-2.19.8a4.07,4.07,0,0,1,.21-.62,5.64,5.64,0,0,0,.2-.54l0-.1-.1,0c-.28.06-.54.1-.79.14a6.35,6.35,0,0,0-1.18.26,3.94,3.94,0,0,1,.38-1l0-.08h-.09a3.28,3.28,0,0,0-1.77.18c0-.17.09-.33.14-.49a6.59,6.59,0,0,0,.19-.73l0-.09-.09,0-.44.07a5.4,5.4,0,0,0-1.15.26l0,.12a5.29,5.29,0,0,1,1.12-.25L9,5.33c0,.21-.11.42-.17.63s-.13.42-.17.63l0,.13.12-.06a2.85,2.85,0,0,1,1.73-.23,4,4,0,0,0-.37,1.09l0,.11.1,0a5.86,5.86,0,0,1,1.26-.29l.7-.12c-.05.15-.11.29-.16.43a3.8,3.8,0,0,0-.24.75l0,.11.1,0,2.26-.83-.24.58a2.57,2.57,0,0,0-.25.9Z"/><path class="cls-3" d="M2.54,4.36A3.9,3.9,0,0,1,.86,3.74.73.73,0,0,1,.53,3.3a.72.72,0,0,1,.4-.73A5,5,0,0,1,3.34,2C4.86,1.88,7,3,8.29,3.72l.83.45-.95,0c-.66,0-1.33.08-2,.14S4.71,4.47,4,4.47A9.09,9.09,0,0,1,2.54,4.36Zm.83-1.89A4.52,4.52,0,0,0,1.2,3c-.13.09-.19.17-.18.22s0,.06.13.14a3.38,3.38,0,0,0,1.47.53,14.21,14.21,0,0,0,3.54,0l1.11-.1A8.92,8.92,0,0,0,3.37,2.48Z"/><path class="cls-3" d="M8.16,4.09a.65.65,0,0,1-.37-.56C7.69,2.49,9.46.32,9.84,0h0L10,.25l.17.07c0,.09-.11.54-.16.87a6.91,6.91,0,0,1-.28,1.32,7.41,7.41,0,0,1-.57,1c-.22.3-.53.67-.85.67A.45.45,0,0,1,8.16,4.09Zm.12-.6a.2.2,0,0,0,.07.16c.19,0,.7-.76,1-1.35a9.24,9.24,0,0,0,.23-1.18V1A5.47,5.47,0,0,0,8.28,3.49Z"/></g></g></svg>