<svg xmlns="http://www.w3.org/2000/svg" xmlns:xlink="http://www.w3.org/1999/xlink" viewBox="0 0 89.09 150.07"><defs><style>.cls-1{fill:none;}.cls-2{clip-path:url(#clip-path);}.cls-3{fill:#0b132b;}.cls-4{fill:#3a506b;}.cls-5{fill:#f8ffff;}.cls-6{clip-path:url(#clip-path-2);}</style><clipPath id="clip-path" transform="translate(-44.67 -35.49)"><path class="cls-1" d="M162.08,67.22l-19.6,32.46c.67-20.58-19.37-30.18-19.25-36,.09-4.12-3.79,3.08-6-.4h0c-3.51-5.56-1.08-13.45,1.08-19.66.34-1-1.41-11.45-1.13-11.67L121,27c11.39,2.87,24.24,18.65,32.65,20.72l10.74-6.91C165.53,42.2,165.36,44.27,162.08,67.22Z"/></clipPath><clipPath id="clip-path-2" transform="translate(-44.67 -35.49)"><rect class="cls-1" x="18.78" y="6.04" width="46.75" height="73.26" transform="translate(40.86 -17.3) rotate(43.41)"/></clipPath></defs><title>Asset 27</title><g id="Layer_2" data-name="Layer 2"><g id="Layer_1-2" data-name="Layer 1"><g class="cls-2"><path class="cls-3" d="M129.52,174.46h-.92v.35l-.07,0-.29.08-.1,0-.36.08-.12,0-.43.08-.15,0-.48.07-.18,0-.54.07-.17,0-.64.07h-.14l-.76.08h0c-2.14.2-4.9.38-8.14.54-2.62.13-5.56.23-8.74.32h-.2l-1.31,0h-.43l-1.23,0h-.49l-1.25,0h-.51l-1.25,0H100l-1.27,0h-.51l-1.37,0H87.22c-8.69,0-16.64-.19-23-.46l-.4,0-.59,0c-1.45-.07-2.83-.14-4.09-.22s-2.26-.14-3.24-.22l-.69-.06h0a26.66,26.66,0,0,1-5.37-.8v-.29H48.9v7.24c0,.19,0,.39.42.6a3.31,3.31,0,0,0,.79.27c1.4.36,4.41.72,10.9,1.06,7.54.4,17.55.61,28.2.61,5.2,0,10.25-.05,14.94-.15,4.92-.1,9.42-.26,13.26-.46,12.11-.63,12.11-1.36,12.11-1.95v-7.24Z" transform="translate(-44.67 -35.49)"/><path class="cls-4" d="M133.75,44.51h0A8.48,8.48,0,0,0,126,36l-.47,0c-6.5-.32-9.31-.48-16-.48V36h0c0,12.17-9,22.07-20.17,22.07S69.12,48.12,69.12,36H68.2v0c-5,0-9.94.19-15.19.45l-.45,0a8.06,8.06,0,0,0-7.34,8h0l-.55,0C45.5,70.15,54.74,100.69,61.51,123c-4.39,12.23-7.69,28-10.6,41.88-.69,3.28-1.35,6.45-2,9.44v.1c0,.58,0,1.3,12.11,1.94,7.54.4,17.55.61,28.2.61s20.67-.22,28.2-.61c12.11-.64,12.11-1.36,12.11-1.94v-.1c-.65-3-1.31-6.16-2-9.44-2.91-13.9-6.21-29.65-10.6-41.88,6.77-22.35,16-52.89,16.84-78.53Z" transform="translate(-44.67 -35.49)"/><path class="cls-4" d="M44.74,45.61A8.53,8.53,0,0,1,52.43,36l.47,0c6.51-.33,9.5,0,16.23,0v.54c-6.72,0-9.7.07-16.18.4l-.45,0a7.56,7.56,0,0,0-6.91,7.58,7.72,7.72,0,0,0,.06,1Z" transform="translate(-44.67 -35.49)"/><rect class="cls-5" x="34.17" y="139.74" width="20.75" height="9.86"/><path class="cls-5" d="M100,185.56H78.38V174.77H100Zm-20.75-.92H99.12V175.7H79.3Z" transform="translate(-44.67 -35.49)"/></g><g class="cls-6"><path class="cls-4" d="M129.52,174.46h-.92v.35l-.07,0-.29.08-.1,0-.36.08-.12,0-.43.08-.15,0-.48.07-.18,0-.54.07-.17,0-.64.07h-.14l-.76.08h0c-2.14.2-4.9.38-8.14.54-2.62.13-5.56.23-8.74.32h-.2l-1.31,0h-.43l-1.23,0h-.49l-1.25,0h-.51l-1.25,0H100l-1.27,0h-.51l-1.37,0H87.22c-8.69,0-16.64-.19-23-.46l-.4,0-.59,0c-1.45-.07-2.83-.14-4.09-.22s-2.26-.14-3.24-.22l-.69-.06h0a26.66,26.66,0,0,1-5.37-.8v-.29H48.9v7.24c0,.19,0,.39.42.6a3.31,3.31,0,0,0,.79.27c1.4.36,4.41.72,10.9,1.06,7.54.4,17.55.61,28.2.61,5.2,0,10.25-.05,14.94-.15,4.92-.1,9.42-.26,13.26-.46,12.11-.63,12.11-1.36,12.11-1.95v-7.24Z" transform="translate(-44.67 -35.49)"/><path class="cls-4" d="M133.75,44.51h0A8.48,8.48,0,0,0,126,36l-.47,0c-6.5-.32-9.31-.48-16-.48V36h0c0,12.17-9,22.07-20.17,22.07S69.12,48.12,69.12,36H68.2v0c-5,0-9.94.19-15.19.45l-.45,0a8.06,8.06,0,0,0-7.34,8h0l-.55,0C45.5,70.15,54.74,100.69,61.51,123c-4.39,12.23-7.69,28-10.6,41.88-.69,3.28-1.35,6.45-2,9.44v.1c0,.58,0,1.3,12.11,1.94,7.54.4,17.55.61,28.2.61s20.67-.22,28.2-.61c12.11-.64,12.11-1.36,12.11-1.94v-.1c-.65-3-1.31-6.16-2-9.44-2.91-13.9-6.21-29.65-10.6-41.88,6.77-22.35,16-52.89,16.84-78.53Z" transform="translate(-44.67 -35.49)"/><path class="cls-4" d="M44.74,45.61A8.53,8.53,0,0,1,52.43,36l.47,0c6.51-.33,9.5,0,16.23,0v.54c-6.72,0-9.7.07-16.18.4l-.45,0a7.56,7.56,0,0,0-6.91,7.58,7.72,7.72,0,0,0,.06,1Z" transform="translate(-44.67 -35.49)"/><rect class="cls-4" x="34.17" y="139.74" width="20.75" height="9.86"/><path class="cls-4" d="M100,185.56H78.38V174.77H100Zm-20.75-.92H99.12V175.7H79.3Z" transform="translate(-44.67 -35.49)"/></g></g></g></svg>