<svg xmlns="http://www.w3.org/2000/svg" viewBox="0 0 89 166.26"><defs><style>.cls-1{fill:#0b132b;}.cls-2{fill:#5bc0be;}.cls-3{fill:#3a506b;}.cls-4{fill:#f8ffff;}.cls-5{fill:none;}</style></defs><title>Asset 19</title><g id="Layer_2" data-name="Layer 2"><g id="Layer_1-2" data-name="Layer 1"><path class="cls-1" d="M4.84,155.17c0,.53,3.66,1,9.72,1.36-5.57-.33-9.14-.77-9.72-1.24Z"/><path class="cls-2" d="M35.89.46H53.67A62.2,62.2,0,0,0,52.54,11.7c0,1.56,0,3.13.12,4.68-.89.24-1.79.45-2.68.66l-.4,1c-1.91,4.76-2.92,7.51-4.79,12.54-1.88-5-2.9-7.78-4.8-12.54l-.4-1c-.89-.21-1.79-.42-2.68-.66.1-1.56.15-3.13.12-4.68A62.2,62.2,0,0,0,35.89.46Z"/><path class="cls-1" d="M84.91,155.17H84v.35l-.07,0-.29.08-.1,0-.36.08-.12,0-.43.08-.15,0-.48.07-.18,0-.54.07-.17,0-.64.07h-.14l-.76.08h0c-2.14.2-4.9.38-8.14.54-2.62.13-5.56.23-8.74.32h-.2l-1.31,0h-.43l-1.23,0H59l-1.25,0h-.51l-1.25,0h-.56l-1.27,0h-.51l-1.37,0H42.61c-8.69,0-16.64-.19-23-.46l-.4,0-.59,0c-1.45-.07-2.83-.14-4.09-.22s-2.26-.14-3.24-.22l-.69-.06h0a26.66,26.66,0,0,1-5.37-.8v-.29H4.29v7.24c0,.19,0,.39.42.6a3.31,3.31,0,0,0,.79.27c1.4.36,4.41.72,10.9,1.06,7.54.4,17.55.61,28.2.61,5.2,0,10.25-.05,14.94-.15,4.92-.1,9.42-.26,13.26-.46,12.11-.63,12.11-1.36,12.11-1.95v-7.24Z"/><path class="cls-3" d="M89,25h0a8.48,8.48,0,0,0-7.77-8.5l-.47,0c-6.5-.32-9.31-.48-16-.48v.46h0c0,12.17-9,22.07-20.17,22.07S24.37,28.57,24.37,16.4h-.92v0c-5,0-13.09-.4-15.69,0C4.62,17,.37,18.52,0,24.95-.14,44.69,10.19,82.2,16.76,103.49c-4.39,12.23-7.69,28-10.6,41.88-.69,3.28-1.35,6.45-2,9.44v.1c0,.58,0,1.3,12.11,1.94,7.54.4,17.55.61,28.2.61s20.67-.22,28.2-.61c12.11-.64,12.11-1.36,12.11-1.94v-.1c-.65-3-1.31-6.16-2-9.44-2.91-13.9-6.21-29.65-10.6-41.88C78.93,81.14,88.17,50.6,89,25Z"/><path class="cls-4" d="M28.83,15l.91-1.76a.63.63,0,0,0,0,.22,1.5,1.5,0,0,0,.75.68,27.67,27.67,0,0,0,6.15,2.28l.09,0c.86.22,1.72.43,2.59.64l.4,1-1.14.19c-1.35,2.11-2.31,4.54-3.64,6.66l-1.74-2-2.93-3.35-2.42-2.75Z"/><path class="cls-4" d="M27.85,16.6l2.36,2.68,2.94,3.35,1.79,2,0-.06c1.34-2.12,2.3-4.55,3.64-6.66l1.14-.19c1.91,4.76,2.92,7.51,4.8,12.54l0-.11a.52.52,0,0,0,0,.11l.06-.18.06.18c1.87-5,2.89-7.78,4.79-12.54l1,.19c1.36,2.13,2.32,4.58,3.67,6.71l0-.06,0,.06,1.8-2,2.94-3.35,2.36-2.69.06-.06-.3-.59h3.68c0,12-8.21,22.35-19.11,23l-1.06,0-1,0c-10.9-.61-19.57-10.44-19.58-22.48,1.17,0,2.35,0,3.55,0l.11.12h0Z"/><path class="cls-4" d="M54.3,24.88l0,.06c-1.35-2.13-2.31-4.58-3.67-6.71l-1-.19.4-1c.82-.19,1.65-.39,2.47-.61l.08,0,.13,0v0a27.16,27.16,0,0,0,6-2.24,1.5,1.5,0,0,0,.75-.68.58.58,0,0,0,0-.33l1,1.87.95,1.83L59,19.54l-2.94,3.35Z"/><path class="cls-1" d="M49.66,16.6l-.23.06-.09.22c-1.92,4.75-3,7.53-4.53,11.73l-.24.64-.25-.68c-1.57-4.19-2.6-7-4.51-11.69l-.09-.22-.23-.06L37.17,16a64,64,0,0,0,0-7.71,8.58,8.58,0,0,0,7.49,4.6c3.37,0,6.23-1.64,7.31-3.93a64,64,0,0,0,0,7ZM44.64,1c-3.68,0-7,1.31-7.82,3.75q-.23-1.93-.58-3.84H52.9c-.29,1.57-.45,2.59-.62,4.17C51.5,2.44,48.34,1,44.64,1ZM59.8,12.71h0a1.63,1.63,0,0,0-.53-.76,3.05,3.05,0,0,0-1.35-.55,15,15,0,0,0-5.11-.18A62.7,62.7,0,0,1,53.91.55L54,0H35.12l.11.55a62.72,62.72,0,0,1,1.12,10.68,15,15,0,0,0-5.11.18,3.05,3.05,0,0,0-1.35.55,1.6,1.6,0,0,0-.55.9l-2.05,3.93,7.32,8.45.47.51.3-.62c.67-1.06,1.25-2.21,1.82-3.32s1.16-2.28,1.82-3.33l-.78-.5c-.69,1.09-1.29,2.27-1.87,3.41-.47.93-1,1.88-1.48,2.78l-6.53-7.44,1.37-2.63a2.85,2.85,0,0,0,.6.42A35.37,35.37,0,0,0,39,17.44c1.85,4.59,2.88,7.33,4.42,11.45l1.12,3,1.1-3C47.22,24.8,48.24,22,50.1,17.44a35.38,35.38,0,0,0,8.71-2.93,2.71,2.71,0,0,0,.65-.47l1.4,2.67-6.53,7.44c-.53-.9-1-1.86-1.49-2.79-.58-1.14-1.17-2.31-1.86-3.4l-.78.49c.66,1,1.25,2.2,1.81,3.32s1.17,2.31,1.86,3.4l.33.52L61.87,17Z"/><path class="cls-1" d="M24.58,79.24l-.16-.91A157.21,157.21,0,0,1,67.55,77l-.1.92A156.32,156.32,0,0,0,24.58,79.24Z"/><rect class="cls-4" x="34.23" y="155.94" width="20.75" height="9.86"/><path class="cls-4" d="M55.44,166.26H33.77V155.48H55.44Zm-20.75-.92H54.51V156.4H34.69Z"/><path class="cls-5" d="M66.39,16.38v0c0,12.43-9.25,22.51-20.64,22.51S25.12,28.83,25.12,16.4v0"/><path class="cls-1" d="M44.57,39.75l-1,0C32.51,39.16,24,28.48,24,16.38h.75C24.75,28,33,38.28,43.63,38.81a17.82,17.82,0,0,0,2,0c10.55-.59,19.12-11.31,19.13-22.87h.77c0,12-8.82,23.16-19.85,23.78Z"/></g></g></svg>