<svg xmlns="http://www.w3.org/2000/svg" viewBox="0 0 47.9 146.4"><defs><style>.cls-1{fill:#f8ffff;}.cls-2{fill:#464646;}.cls-3{fill:#c6c6c6;}.cls-4{fill:#0b132b;}.cls-5{fill:#3a506b;}.cls-6{fill:#939393;}.cls-7{fill:none;}.cls-8{fill:#5bc0be;}</style></defs><title>Asset 10</title><g id="Layer_2" data-name="Layer 2"><g id="Layer_1-2" data-name="Layer 1"><path class="cls-1" d="M45.23,132.07l0,.13a4.74,4.74,0,0,0,1.88-.55c.1-1.51.19-3,.26-4.42a6.62,6.62,0,0,1-2.43.59h0Z"/><path class="cls-2" d="M29.77,132.76c-3.28,0-6.18-.2-8.36-.45a13.78,13.78,0,0,1,0-4.36v-.08a22.67,22.67,0,0,1-2.66-.43l0,.08a10.91,10.91,0,0,0,.28,4.41,3.86,3.86,0,0,1-1.56-.61A14.71,14.71,0,0,0,31.9,146.15a14.89,14.89,0,0,0,15.23-14.49,4.74,4.74,0,0,1-1.88.55,99.23,99.23,0,0,1-12.16.57h-1a14,14,0,0,1,0-4.44h0l-2.52,0v0A10.54,10.54,0,0,0,29.77,132.76Z"/><path class="cls-3" d="M27.31,60.88l0,.06,1,.51-.58-6.32Z"/><path class="cls-4" d="M14.85,54.62a.29.29,0,0,0,.06.17,1.16,1.16,0,0,0,.66.28c.48.1,1,.18,1.45.24.16-.61.3-1.23.42-1.85h0c-.47.09-.94.2-1.4.33a2.82,2.82,0,0,0-.9.37A.59.59,0,0,0,14.85,54.62Z"/><ellipse class="cls-1" cx="16.47" cy="75.25" rx="7.74" ry="13.3" transform="translate(-33.71 16.81) rotate(-28.31)"/><path class="cls-4" d="M17.44,131.31a3.86,3.86,0,0,0,1.56.61,10.91,10.91,0,0,1-.28-4.41l0-.08c-1-.24-1.62-.54-1.62-.88h0c.08,1.63.14,3.14.19,4.45A.41.41,0,0,0,17.44,131.31Z"/><path class="cls-4" d="M21.38,127.95a13.78,13.78,0,0,0,0,4.36c2.18.26,5.09.41,8.36.45a10.54,10.54,0,0,1-.22-4.41v0c-3.18,0-6-.2-8.15-.44Z"/><path class="cls-4" d="M32.07,128.33a14,14,0,0,0,0,4.44h1a99.23,99.23,0,0,0,12.16-.57l0-.13L45,127.83h0a115.68,115.68,0,0,1-11.77.49H32.07Z"/><path class="cls-5" d="M14.08,57.92c4.55,5.22,16.58,11.71,22,8.84a25.27,25.27,0,0,1,6.07,7.88c3.77,7.86,4.4,15.59,5,23.83a233.48,233.48,0,0,1,.32,28.75,6.62,6.62,0,0,1-2.43.59,115.68,115.68,0,0,1-11.77.49H32.07l-2.52,0c-3.18,0-6-.2-8.15-.44a22.67,22.67,0,0,1-2.66-.43c-1-.24-1.62-.54-1.62-.88h0c-.42-9.45-1.09-23,1.16-26.3C15,94.58,11.3,89.78,8.88,83.65,6.74,78.22,5,67.29,4.88,67A77.85,77.85,0,0,1,14.08,57.92Zm8.7,29c3.76-2,4-8.92.51-15.39s-9.36-10.07-13.12-8-4,8.92-.51,15.38S19,89,22.78,87Z"/><path class="cls-1" d="M17,55.31c-.49-.06-1-.14-1.45-.24a1.16,1.16,0,0,1-.66-.28.29.29,0,0,1-.06-.17l-.77,3.3L25,62.87l-1.16-5.1.56-.41-.67-.82L23,55.64c-1.88,0-3.78-.07-5.6-.29h-.08Z"/><path class="cls-1" d="M27.13,60.87c-1-1.27-1.77-2.29-2.75-3.5l-.56.41L25,62.87l-10.9-4.95c4.55,5.22,16.58,11.71,22,8.84a39.93,39.93,0,0,0-7.75-5.31l-1-.51Z"/><path class="cls-6" d="M17.28,55.34h0Z"/><path class="cls-6" d="M17.79,40.24c.08.24.17.48.28.73l.12.29a9.46,9.46,0,0,0,.86,1.46c.23.31.46.61.71.91a9.11,9.11,0,0,0,.74.76q.39.36.83.68a16.82,16.82,0,0,0,1.8,1.16l.32.18L22.67,46a9.88,9.88,0,0,1-5.14-7.45l0-.14-.25.06v.07h0A34.08,34.08,0,0,1,17.9,42c0,.21.05.42.08.63s.05.53.07.8,0,.51.06.76a.14.14,0,0,1,0,0c0,.51.06,1,.07,1.52a31,31,0,0,1-.9,9.55h.08l5.6.29.75.91.65.78.36-.65c.31-.56.64-1.12,1-1.7l.73-1.22c.21-.35.43-.7.65-1.05l.59-.94A12,12,0,0,1,23.6,50l-.15-.11-.31-.25-.25-.2-.18-.16L22.43,49a13.29,13.29,0,0,1-2.07-2.17,7.64,7.64,0,0,1-.44-.64,10.43,10.43,0,0,1-.56-1c-.17-.34-.31-.69-.45-1-.28-.71-.51-1.44-.73-2.18A8.84,8.84,0,0,1,17.79,40.24Z"/><path class="cls-6" d="M17.9,42c0,.21.05.42.08.63C17.95,42.46,17.93,42.25,17.9,42Z"/><path class="cls-4" d="M17.79,40.24A8.84,8.84,0,0,0,18.18,42c.22.73.45,1.47.73,2.18.14.35.29.71.45,1a10.43,10.43,0,0,0,.56,1c.14.22.28.43.44.64A13.29,13.29,0,0,0,22.43,49l.28.23.18.16.25.2.31.25.15.11a12,12,0,0,0,4.06,1.77l.06-.09h0c.44-.79.92-1.52,1.36-2.31a9.85,9.85,0,0,1-2.18-1.11c-1.13-.66-2.31-1.22-3.45-1.84l-.32-.18a16.82,16.82,0,0,1-1.8-1.16,9.89,9.89,0,0,1-.83-.68,9.11,9.11,0,0,1-.74-.76c-.25-.29-.48-.6-.71-.91a9.46,9.46,0,0,1-.86-1.46c0-.09-.09-.19-.12-.29S17.87,40.48,17.79,40.24Z"/><path class="cls-4" d="M18.07,41c0,.1.08.19.12.29Z"/><path class="cls-4" d="M21.33,45.07q-.43-.32-.83-.68A9.89,9.89,0,0,0,21.33,45.07Z"/><path class="cls-1" d="M24.35,57.32l-.65-.78.67.82c1,1.22,1.77,2.24,2.75,3.5l.15.08,0-.06.38-5.74-2-.16h0l-1,1.7Z"/><path class="cls-6" d="M27.08,52.71c-.22.35-.44.7-.65,1.05Z"/><path class="cls-6" d="M27.08,52.71l.59-.94h0Z"/><path class="cls-4" d="M27.72,51.68l-.06.09h0Z"/><path class="cls-7" d="M17.44,131.08c0,.08,0,.15,0,.23A14.71,14.71,0,0,0,31.9,146.15a14.89,14.89,0,0,0,15.23-14.49"/><path class="cls-7" d="M36.08,66.74l-.06,0c-5.37,2.86-17.4-3.62-22-8.84"/><path class="cls-7" d="M17,55.38l0-.08c.16-.61.3-1.23.42-1.85a34.48,34.48,0,0,0,.67-9.18.14.14,0,0,0,0,0c0-.25,0-.51-.06-.76s0-.53-.07-.8,0-.42-.08-.63a34.08,34.08,0,0,0-.64-3.55"/><path class="cls-7" d="M27.66,51.77l-.59.94c-.22.35-.44.7-.65,1.05L25.7,55l-1,1.7-.36.65"/><path class="cls-7" d="M29.24,49.35c-.47.69-1,1.48-1.52,2.32"/><path class="cls-7" d="M28.07,62.08l-.93-1.21c-1-1.27-1.77-2.29-2.75-3.5l-.67-.82L23,55.64c-1.88,0-3.78-.07-5.6-.29h-.08l-.26,0c-.49-.06-1-.14-1.45-.24a1.16,1.16,0,0,1-.66-.28.29.29,0,0,1-.06-.17.59.59,0,0,1,.29-.46,2.82,2.82,0,0,1,.9-.37c.46-.13.93-.24,1.4-.33"/><line class="cls-7" x1="14.85" y1="54.62" x2="14.08" y2="57.92"/><polyline class="cls-7" points="14.08 57.92 24.98 62.87 23.82 57.77"/><line class="cls-7" x1="27.31" y1="60.88" x2="27.7" y2="55.14"/><polyline class="cls-7" points="28.28 61.46 27.7 55.14 25.71 54.98"/><path class="cls-7" d="M47.43,127.2l0,0a6.62,6.62,0,0,1-2.43.59,115.68,115.68,0,0,1-11.77.49H32.07l-2.52,0c-3.18,0-6-.2-8.15-.44a22.67,22.67,0,0,1-2.66-.43c-1-.24-1.62-.54-1.62-.88"/><path class="cls-7" d="M19.06,131.93H19a3.86,3.86,0,0,1-1.56-.61.41.41,0,0,1-.18-.31c0-1.31-.11-2.82-.19-4.45-.42-9.45-1.09-23,1.16-26.3C15,94.58,11.3,89.78,8.88,83.65,6.74,78.22,5,67.29,4.88,67a77.85,77.85,0,0,1,9.2-9"/><path class="cls-7" d="M29.84,132.76h-.06c-3.28,0-6.18-.2-8.36-.45l-.16,0"/><path class="cls-7" d="M27.13,60.87l.15.08,1,.51A39.93,39.93,0,0,1,36,66.77a25.27,25.27,0,0,1,6.07,7.88c3.77,7.86,4.4,15.59,5,23.83a233.48,233.48,0,0,1,.32,28.75c-.07,1.44-.16,2.92-.26,4.42a4.74,4.74,0,0,1-1.88.55,99.23,99.23,0,0,1-12.16.57H32"/><path class="cls-7" d="M32.07,128.33a14,14,0,0,0,0,4.44,13.5,13.5,0,0,0,.42,1.67"/><path class="cls-7" d="M29.55,128.35a10.48,10.48,0,0,0,.75,5.92"/><path class="cls-7" d="M21.38,127.95a13.78,13.78,0,0,0,0,4.36,14.31,14.31,0,0,0,.38,1.68"/><path class="cls-7" d="M18.72,127.51a11,11,0,0,0,.85,6"/><ellipse class="cls-7" cx="16.47" cy="75.25" rx="7.74" ry="13.3" transform="translate(-33.71 16.81) rotate(-28.31)"/><line class="cls-7" x1="44.95" y1="127.83" x2="45.23" y2="132.07"/><path class="cls-4" d="M34.3,146.26a15.11,15.11,0,0,0,8.51-4.16,14.85,14.85,0,0,0,4.56-10.44h-.49a14.36,14.36,0,0,1-4.41,10.1,14.68,14.68,0,0,1-10.56,4.16,14.25,14.25,0,0,1-10.28-4.55,14.63,14.63,0,0,1-3.93-10.27h-.49a15.12,15.12,0,0,0,4.07,10.62,14.74,14.74,0,0,0,10.63,4.7A15.68,15.68,0,0,0,34.3,146.26Z"/><path class="cls-4" d="M34.09,67.62A6.1,6.1,0,0,0,36.2,67L36,66.52c-5.16,2.83-17-3.37-21.7-8.76l-.37.32C18.14,63,28.13,68.44,34.09,67.62Z"/><path class="cls-6" d="M17.26,38.49a35.69,35.69,0,0,1,.92,7.31,31,31,0,0,1-.9,9.55l5.68.29,1.39,1.68c.94-1.75,2-3.42,3.32-5.55-2.57-.83-3.19-1-5.24-2.72a12.7,12.7,0,0,1-2.52-2.82A16.93,16.93,0,0,1,18.18,42a8.84,8.84,0,0,1-.38-1.76,9,9,0,0,0,1.26,2.48c.23.31.45.62.7.91a12.19,12.19,0,0,0,3.37,2.6l.47.26L22.67,46a9.88,9.88,0,0,1-5.14-7.45l0-.14-.25.06Z"/><path class="cls-4" d="M17.24,55.44a34.85,34.85,0,0,0,.26-17l-.48.11a34.37,34.37,0,0,1-.25,16.77Z"/><path class="cls-4" d="M24.57,57.44c1.32-2.4,3.33-5.67,4.88-8L29,49.21c-1.56,2.29-3.57,5.58-4.9,8Z"/><path class="cls-4" d="M17.79,40.24A8.68,8.68,0,0,0,18.18,42a16.83,16.83,0,0,0,1.73,4.23,12.68,12.68,0,0,0,2.52,2.82c2.05,1.76,2.67,1.89,5.24,2.72.46-.83,1-1.58,1.41-2.41a9.9,9.9,0,0,1-2.18-1.11c-1.23-.72-2.53-1.32-3.77-2a12.23,12.23,0,0,1-3.37-2.6c-.25-.29-.48-.6-.7-.91A9.08,9.08,0,0,1,17.79,40.24Z"/><path class="cls-4" d="M28.06,62.08c-.75-1.15-1.56-2.26-2.37-3.36S24,56.52,23.15,55.48l-.08-.09H23a55.56,55.56,0,0,1-5.63-.29q-.7-.08-1.38-.21a5.68,5.68,0,0,1-.65-.15.48.48,0,0,1-.19-.11s0,0,0-.08a.76.76,0,0,1,.39-.33,4,4,0,0,1,.63-.22l1.36-.32-.09-.48-1.4.33a4.39,4.39,0,0,0-.71.24,1.21,1.21,0,0,0-.64.59.56.56,0,0,0,.09.58.92.92,0,0,0,.41.25,5.9,5.9,0,0,0,.73.16q.7.13,1.41.21a56,56,0,0,0,5.68.29h0l-.19-.09c.81,1.1,1.69,2.15,2.56,3.21S27.12,61.08,28.06,62.08Z"/><rect class="cls-4" x="12.77" y="56.03" width="3.39" height="0.49" transform="translate(-43.62 57.65) rotate(-76.94)"/><path class="cls-4" d="M14,58.15l10.9,4.94.42.19-.08-.47a22.45,22.45,0,0,0-.63-2.54c-.24-.84-.5-1.67-.77-2.51.11.87.24,1.73.39,2.59a22.45,22.45,0,0,0,.53,2.56l.34-.28L14.18,57.7Z"/><rect class="cls-4" x="24.63" y="57.89" width="5.75" height="0.25" transform="translate(-32.21 81.59) rotate(-86.18)"/><polygon class="cls-4" points="28.4 61.45 27.81 55.03 25.72 54.85 25.7 55.1 27.58 55.26 28.15 61.48 28.4 61.45"/><path class="cls-4" d="M45.25,127.92a5.6,5.6,0,0,0,2.26-.62l-.15-.2c-.9.68-5.4,1-14.18,1.09-10.46.08-15.93-.77-15.94-1.64H17c0,1.48,8.73,1.94,16.19,1.89A108.83,108.83,0,0,0,45.25,127.92Z"/><path class="cls-4" d="M19.08,131.83a7.77,7.77,0,0,1-1-.28,2.59,2.59,0,0,1-.45-.21c-.13-.08-.26-.19-.27-.3L17.32,129l-.16-4.13c-.11-2.76-.22-5.51-.28-8.27s-.07-5.51.06-8.26c.07-1.37.17-2.74.36-4.1a18.3,18.3,0,0,1,.39-2,6.09,6.09,0,0,1,.74-1.83l.09-.13-.08-.13C16.95,97.5,15.28,95,13.7,92.4a59,59,0,0,1-4.23-8A52.56,52.56,0,0,1,6.89,75.8c-.68-3-1.23-5.88-1.78-8.9l-.05.23C6.51,65.54,8,64,9.46,62.42a46.41,46.41,0,0,1,4.76-4.3l-.3-.39a46.87,46.87,0,0,0-4.82,4.35c-1.52,1.54-3,3.13-4.42,4.73l-.08.09,0,.14C5.17,70,5.74,73,6.41,75.91A53,53,0,0,0,9,84.63a59.47,59.47,0,0,0,4.27,8c1.59,2.58,3.24,5.11,4.75,7.71v-.26a6.52,6.52,0,0,0-.8,2,18.75,18.75,0,0,0-.39,2.06c-.19,1.38-.28,2.76-.34,4.14-.11,2.76-.08,5.53,0,8.29s.2,5.52.33,8.27l.21,4.13.1,2.08a.74.74,0,0,0,.38.46,2.8,2.8,0,0,0,.49.23,8,8,0,0,0,1,.28Z"/><path class="cls-4" d="M29.84,132.66c-1.43-.12-2.86-.19-4.29-.28s-2.85-.2-4.27-.33l-.06.49a42.61,42.61,0,0,0,4.3.35c1.44.06,2.88.06,4.31,0Z"/><path class="cls-4" d="M27.08,61a41.94,41.94,0,0,1,8.18,5.32,26.22,26.22,0,0,1,6.2,7.45,36.48,36.48,0,0,1,2,4.46,41.67,41.67,0,0,1,1.43,4.67,66.3,66.3,0,0,1,1.56,9.64c.57,6.5,1,13,1,19.56s-.11,13.06-.57,19.57l.1-.18h0a2.54,2.54,0,0,1-.79.31c-.3.08-.6.13-.91.18-.62.1-1.25.16-1.88.22-1.26.11-2.53.17-3.79.22-2.53.09-5.08.13-7.61.14V133c2.54,0,5.09,0,7.63-.14,1.27,0,2.54-.11,3.82-.22.64-.06,1.27-.12,1.91-.22.32-.05.64-.11,1-.19a2.9,2.9,0,0,0,1-.4h0l.09-.06v-.12q.65-9.79.5-19.61c-.1-6.54-.51-13.07-1.11-19.59a66.62,66.62,0,0,0-1.6-9.69,42,42,0,0,0-1.45-4.7,36.74,36.74,0,0,0-2-4.49,26.48,26.48,0,0,0-6.29-7.51,42.17,42.17,0,0,0-8.24-5.32Z"/><path class="cls-4" d="M32.28,134.52l.47-.15a12.92,12.92,0,0,1-.44-6l-.49-.06A13.37,13.37,0,0,0,32.28,134.52Z"/><path class="cls-4" d="M30.08,134.37l.45-.2a10.32,10.32,0,0,1-.74-5.78l-.49-.08A10.82,10.82,0,0,0,30.08,134.37Z"/><path class="cls-4" d="M21.55,134l.47-.14a13.67,13.67,0,0,1-.4-5.92l-.49-.08A14.16,14.16,0,0,0,21.55,134Z"/><path class="cls-4" d="M19.34,133.6l.45-.2a10.78,10.78,0,0,1-.83-5.86l-.49-.07A11.28,11.28,0,0,0,19.34,133.6Z"/><path class="cls-4" d="M16,86.34A19.26,19.26,0,0,1,9.43,79h0C5.89,72.46,6.16,65.4,10,63.31c1.9-1,4.36-.73,6.91.84a19.26,19.26,0,0,1,6.55,7.3A19.26,19.26,0,0,1,26,80.94c-.1,3-1.2,5.21-3.1,6.24a5,5,0,0,1-1.69.55A8.07,8.07,0,0,1,16,86.34Zm-5.7-22.59c-3.64,2-3.82,8.71-.41,15.05a18.76,18.76,0,0,0,6.37,7.11c2.4,1.47,4.68,1.77,6.42.83s2.75-3,2.84-5.82a18.76,18.76,0,0,0-2.44-9.23,18.76,18.76,0,0,0-6.37-7.12,7.59,7.59,0,0,0-4.9-1.32A4.47,4.47,0,0,0,10.28,63.75Z"/><rect class="cls-4" x="44.84" y="127.83" width="0.49" height="4.25" transform="translate(-8.27 3.17) rotate(-3.69)"/><path class="cls-1" d="M45.23,132.07l0,.13a4.74,4.74,0,0,0,1.88-.55c.1-1.51.19-3,.26-4.42a6.62,6.62,0,0,1-2.43.59h0Z"/><path class="cls-4" d="M29.77,132.76c-3.28,0-6.18-.2-8.36-.45a13.78,13.78,0,0,1,0-4.36v-.08a22.67,22.67,0,0,1-2.66-.43l0,.08a10.91,10.91,0,0,0,.28,4.41,3.86,3.86,0,0,1-1.56-.61A14.71,14.71,0,0,0,31.9,146.15a14.89,14.89,0,0,0,15.23-14.49,4.74,4.74,0,0,1-1.88.55,99.23,99.23,0,0,1-12.16.57h-1a14,14,0,0,1,0-4.44h0l-2.52,0v0A10.54,10.54,0,0,0,29.77,132.76Z"/><path class="cls-3" d="M27.31,60.88l0,.06,1,.51-.58-6.32Z"/><path class="cls-4" d="M14.85,54.62a.29.29,0,0,0,.06.17,1.16,1.16,0,0,0,.66.28c.48.1,1,.18,1.45.24.16-.61.3-1.23.42-1.85h0c-.47.09-.94.2-1.4.33a2.82,2.82,0,0,0-.9.37A.59.59,0,0,0,14.85,54.62Z"/><ellipse class="cls-1" cx="16.47" cy="75.25" rx="7.74" ry="13.3" transform="translate(-33.71 16.81) rotate(-28.31)"/><path class="cls-4" d="M17.44,131.31a3.86,3.86,0,0,0,1.56.61,10.91,10.91,0,0,1-.28-4.41l0-.08c-1-.24-1.62-.54-1.62-.88h0c.08,1.63.14,3.14.19,4.45A.41.41,0,0,0,17.44,131.31Z"/><path class="cls-4" d="M21.38,127.95a13.78,13.78,0,0,0,0,4.36c2.18.26,5.09.41,8.36.45a10.54,10.54,0,0,1-.22-4.41v0c-3.18,0-6-.2-8.15-.44Z"/><path class="cls-4" d="M32.07,128.33a14,14,0,0,0,0,4.44h1a99.23,99.23,0,0,0,12.16-.57l0-.13L45,127.83h0a115.68,115.68,0,0,1-11.77.49H32.07Z"/><path class="cls-1" d="M17,55.31c-.49-.06-1-.14-1.45-.24a1.16,1.16,0,0,1-.66-.28.29.29,0,0,1-.06-.17l-.77,3.3L25,62.87l-1.16-5.1.56-.41-.67-.82L23,55.64c-1.88,0-3.78-.07-5.6-.29h-.08Z"/><path class="cls-1" d="M27.13,60.87c-1-1.27-1.77-2.29-2.75-3.5l-.56.41L25,62.87l-10.9-4.95c4.55,5.22,16.58,11.71,22,8.84a39.93,39.93,0,0,0-7.75-5.31l-1-.51Z"/><path class="cls-6" d="M17.28,55.34h0Z"/><path class="cls-6" d="M17.79,40.24c.08.24.17.48.28.73l.12.29a9.46,9.46,0,0,0,.86,1.46c.23.31.46.61.71.91a9.11,9.11,0,0,0,.74.76q.39.36.83.68a16.82,16.82,0,0,0,1.8,1.16l.32.18L22.67,46a9.88,9.88,0,0,1-5.14-7.45l0-.14-.25.06v.07h0A34.08,34.08,0,0,1,17.9,42c0,.21.05.42.08.63s.05.53.07.8,0,.51.06.76a.14.14,0,0,1,0,0c0,.51.06,1,.07,1.52a31,31,0,0,1-.9,9.55h.08l5.6.29.75.91.65.78.36-.65c.31-.56.64-1.12,1-1.7l.73-1.22c.21-.35.43-.7.65-1.05l.59-.94A12,12,0,0,1,23.6,50l-.15-.11-.31-.25-.25-.2-.18-.16L22.43,49a13.29,13.29,0,0,1-2.07-2.17,7.64,7.64,0,0,1-.44-.64,10.43,10.43,0,0,1-.56-1c-.17-.34-.31-.69-.45-1-.28-.71-.51-1.44-.73-2.18A8.84,8.84,0,0,1,17.79,40.24Z"/><path class="cls-6" d="M17.9,42c0,.21.05.42.08.63C17.95,42.46,17.93,42.25,17.9,42Z"/><path class="cls-4" d="M17.79,40.24A8.84,8.84,0,0,0,18.18,42c.22.73.45,1.47.73,2.18.14.35.29.71.45,1a10.43,10.43,0,0,0,.56,1c.14.22.28.43.44.64A13.29,13.29,0,0,0,22.43,49l.28.23.18.16.25.2.31.25.15.11a12,12,0,0,0,4.06,1.77l.06-.09h0c.44-.79.92-1.52,1.36-2.31a9.85,9.85,0,0,1-2.18-1.11c-1.13-.66-2.31-1.22-3.45-1.84l-.32-.18a16.82,16.82,0,0,1-1.8-1.16,9.89,9.89,0,0,1-.83-.68,9.11,9.11,0,0,1-.74-.76c-.25-.29-.48-.6-.71-.91a9.46,9.46,0,0,1-.86-1.46c0-.09-.09-.19-.12-.29S17.87,40.48,17.79,40.24Z"/><path class="cls-4" d="M18.07,41c0,.1.08.19.12.29Z"/><path class="cls-4" d="M21.33,45.07q-.43-.32-.83-.68A9.89,9.89,0,0,0,21.33,45.07Z"/><path class="cls-1" d="M24.35,57.32l-.65-.78.67.82c1,1.22,1.77,2.24,2.75,3.5l.15.08,0-.06.38-5.74-2-.16h0l-1,1.7Z"/><path class="cls-6" d="M27.08,52.71c-.22.35-.44.7-.65,1.05Z"/><path class="cls-6" d="M27.08,52.71l.59-.94h0Z"/><path class="cls-4" d="M27.72,51.68l-.06.09h0Z"/><path class="cls-7" d="M17.44,131.08c0,.08,0,.15,0,.23A14.71,14.71,0,0,0,31.9,146.15a14.89,14.89,0,0,0,15.23-14.49"/><path class="cls-7" d="M36.08,66.74l-.06,0c-5.37,2.86-17.4-3.62-22-8.84"/><path class="cls-7" d="M17,55.38l0-.08c.16-.61.3-1.23.42-1.85a34.48,34.48,0,0,0,.67-9.18.14.14,0,0,0,0,0c0-.25,0-.51-.06-.76s0-.53-.07-.8,0-.42-.08-.63a34.08,34.08,0,0,0-.64-3.55"/><path class="cls-7" d="M27.66,51.77l-.59.94c-.22.35-.44.7-.65,1.05L25.7,55l-1,1.7-.36.65"/><path class="cls-7" d="M29.24,49.35c-.47.69-1,1.48-1.52,2.32"/><path class="cls-7" d="M28.07,62.08l-.93-1.21c-1-1.27-1.77-2.29-2.75-3.5l-.67-.82L23,55.64c-1.88,0-3.78-.07-5.6-.29h-.08l-.26,0c-.49-.06-1-.14-1.45-.24a1.16,1.16,0,0,1-.66-.28.29.29,0,0,1-.06-.17.59.59,0,0,1,.29-.46,2.82,2.82,0,0,1,.9-.37c.46-.13.93-.24,1.4-.33"/><line class="cls-7" x1="14.85" y1="54.62" x2="14.08" y2="57.92"/><polyline class="cls-7" points="14.08 57.92 24.98 62.87 23.82 57.77"/><line class="cls-7" x1="27.31" y1="60.88" x2="27.7" y2="55.14"/><polyline class="cls-7" points="28.28 61.46 27.7 55.14 25.71 54.98"/><path class="cls-7" d="M47.43,127.2l0,0a6.62,6.62,0,0,1-2.43.59,115.68,115.68,0,0,1-11.77.49H32.07l-2.52,0c-3.18,0-6-.2-8.15-.44a22.67,22.67,0,0,1-2.66-.43c-1-.24-1.62-.54-1.62-.88"/><path class="cls-7" d="M19.06,131.93H19a3.86,3.86,0,0,1-1.56-.61.41.41,0,0,1-.18-.31c0-1.31-.11-2.82-.19-4.45-.42-9.45-1.09-23,1.16-26.3C15,94.58,11.3,89.78,8.88,83.65,6.74,78.22,5,67.29,4.88,67a77.85,77.85,0,0,1,9.2-9"/><path class="cls-7" d="M29.84,132.76h-.06c-3.28,0-6.18-.2-8.36-.45l-.16,0"/><path class="cls-7" d="M27.13,60.87l.15.08,1,.51A39.93,39.93,0,0,1,36,66.77a25.27,25.27,0,0,1,6.07,7.88c3.77,7.86,4.4,15.59,5,23.83a233.48,233.48,0,0,1,.32,28.75c-.07,1.44-.16,2.92-.26,4.42a4.74,4.74,0,0,1-1.88.55,99.23,99.23,0,0,1-12.16.57H32"/><path class="cls-7" d="M32.07,128.33a14,14,0,0,0,0,4.44,13.5,13.5,0,0,0,.42,1.67"/><path class="cls-7" d="M29.55,128.35a10.48,10.48,0,0,0,.75,5.92"/><path class="cls-7" d="M21.38,127.95a13.78,13.78,0,0,0,0,4.36,14.31,14.31,0,0,0,.38,1.68"/><path class="cls-7" d="M18.72,127.51a11,11,0,0,0,.85,6"/><ellipse class="cls-7" cx="16.47" cy="75.25" rx="7.74" ry="13.3" transform="translate(-33.71 16.81) rotate(-28.31)"/><line class="cls-7" x1="44.95" y1="127.83" x2="45.23" y2="132.07"/><path class="cls-4" d="M38.57,145a15.11,15.11,0,0,0,8.8-13.35h-.49a14.61,14.61,0,0,1-8.51,12.91Z"/><path class="cls-4" d="M29.51,146.17l.08-.49a14.43,14.43,0,0,1-11.91-14.6h-.49A14.92,14.92,0,0,0,29.51,146.17Z"/><path class="cls-4" d="M34.09,67.62A6.1,6.1,0,0,0,36.2,67L36,66.52c-5.16,2.83-17-3.37-21.7-8.76l-.37.32C18.14,63,28.13,68.44,34.09,67.62Z"/><path class="cls-8" d="M17.26,38.49a35.69,35.69,0,0,1,.92,7.31,31,31,0,0,1-.9,9.55l5.68.29,1.39,1.68c.94-1.75,2-3.42,3.32-5.55-2.57-.83-3.19-1-5.24-2.72a12.7,12.7,0,0,1-2.52-2.82A16.93,16.93,0,0,1,18.18,42a8.84,8.84,0,0,1-.38-1.76,9,9,0,0,0,1.26,2.48c.23.31.45.62.7.91a12.19,12.19,0,0,0,3.37,2.6l.47.26L22.67,46a9.88,9.88,0,0,1-5.14-7.45l0-.14-.25.06Z"/><path class="cls-4" d="M17.24,55.44a34.85,34.85,0,0,0,.26-17l-.48.11a34.37,34.37,0,0,1-.25,16.77Z"/><path class="cls-4" d="M24.57,57.44c1.32-2.4,3.33-5.67,4.88-8L29,49.21c-1.56,2.29-3.57,5.58-4.9,8Z"/><path class="cls-4" d="M17.79,40.24A8.68,8.68,0,0,0,18.18,42a16.83,16.83,0,0,0,1.73,4.23,12.68,12.68,0,0,0,2.52,2.82c2.05,1.76,2.67,1.89,5.24,2.72.46-.83,1-1.58,1.41-2.41a9.9,9.9,0,0,1-2.18-1.11c-1.23-.72-2.53-1.32-3.77-2a12.23,12.23,0,0,1-3.37-2.6c-.25-.29-.48-.6-.7-.91A9.08,9.08,0,0,1,17.79,40.24Z"/><path class="cls-4" d="M28.06,62.08c-.75-1.15-1.56-2.26-2.37-3.36S24,56.52,23.15,55.48l-.08-.09H23a55.56,55.56,0,0,1-5.63-.29q-.7-.08-1.38-.21a5.68,5.68,0,0,1-.65-.15.48.48,0,0,1-.19-.11s0,0,0-.08a.76.76,0,0,1,.39-.33,4,4,0,0,1,.63-.22l1.36-.32-.09-.48-1.4.33a4.39,4.39,0,0,0-.71.24,1.21,1.21,0,0,0-.64.59.56.56,0,0,0,.09.58.92.92,0,0,0,.41.25,5.9,5.9,0,0,0,.73.16q.7.13,1.41.21a56,56,0,0,0,5.68.29h0l-.19-.09c.81,1.1,1.69,2.15,2.56,3.21S27.12,61.08,28.06,62.08Z"/><rect class="cls-4" x="12.77" y="56.03" width="3.39" height="0.49" transform="translate(-43.62 57.65) rotate(-76.94)"/><path class="cls-4" d="M14,58.15l10.9,4.94.42.19-.08-.47a22.45,22.45,0,0,0-.63-2.54c-.24-.84-.5-1.67-.77-2.51.11.87.24,1.73.39,2.59a22.45,22.45,0,0,0,.53,2.56l.34-.28L14.18,57.7Z"/><rect class="cls-4" x="24.63" y="57.89" width="5.75" height="0.25" transform="translate(-32.21 81.59) rotate(-86.18)"/><polygon class="cls-4" points="28.4 61.45 27.81 55.03 25.72 54.85 25.7 55.1 27.58 55.26 28.15 61.48 28.4 61.45"/><path class="cls-4" d="M45.25,127.92a5.6,5.6,0,0,0,2.26-.62l-.15-.2c-.9.68-5.4,1-14.18,1.09-10.46.08-15.93-.77-15.94-1.64H17c0,1.48,8.73,1.94,16.19,1.89A108.83,108.83,0,0,0,45.25,127.92Z"/><path class="cls-4" d="M19.08,131.83a7.77,7.77,0,0,1-1-.28,2.59,2.59,0,0,1-.45-.21c-.13-.08-.26-.19-.27-.3L17.32,129l-.16-4.13c-.11-2.76-.22-5.51-.28-8.27s-.07-5.51.06-8.26c.07-1.37.17-2.74.36-4.1a18.3,18.3,0,0,1,.39-2,6.09,6.09,0,0,1,.74-1.83l.09-.13-.08-.13C16.95,97.5,15.28,95,13.7,92.4a59,59,0,0,1-4.23-8A52.56,52.56,0,0,1,6.89,75.8c-.68-3-1.23-5.88-1.78-8.9l-.05.23C6.51,65.54,8,64,9.46,62.42a46.41,46.41,0,0,1,4.76-4.3l-.3-.39a46.87,46.87,0,0,0-4.82,4.35c-1.52,1.54-3,3.13-4.42,4.73l-.08.09,0,.14C5.17,70,5.74,73,6.41,75.91A53,53,0,0,0,9,84.63a59.47,59.47,0,0,0,4.27,8c1.59,2.58,3.24,5.11,4.75,7.71v-.26a6.52,6.52,0,0,0-.8,2,18.75,18.75,0,0,0-.39,2.06c-.19,1.38-.28,2.76-.34,4.14-.11,2.76-.08,5.53,0,8.29s.2,5.52.33,8.27l.21,4.13.1,2.08a.74.74,0,0,0,.38.46,2.8,2.8,0,0,0,.49.23,8,8,0,0,0,1,.28Z"/><path class="cls-4" d="M29.84,132.66c-1.43-.12-2.86-.19-4.29-.28s-2.85-.2-4.27-.33l-.06.49a42.61,42.61,0,0,0,4.3.35c1.44.06,2.88.06,4.31,0Z"/><path class="cls-4" d="M27.08,61a41.94,41.94,0,0,1,8.18,5.32,26.22,26.22,0,0,1,6.2,7.45,36.48,36.48,0,0,1,2,4.46,41.67,41.67,0,0,1,1.43,4.67,66.3,66.3,0,0,1,1.56,9.64c.57,6.5,1,13,1,19.56s-.11,13.06-.57,19.57l.1-.18h0a2.54,2.54,0,0,1-.79.31c-.3.08-.6.13-.91.18-.62.1-1.25.16-1.88.22-1.26.11-2.53.17-3.79.22-2.53.09-5.08.13-7.61.14V133c2.54,0,5.09,0,7.63-.14,1.27,0,2.54-.11,3.82-.22.64-.06,1.27-.12,1.91-.22.32-.05.64-.11,1-.19a2.9,2.9,0,0,0,1-.4h0l.09-.06v-.12q.65-9.79.5-19.61c-.1-6.54-.51-13.07-1.11-19.59a66.62,66.62,0,0,0-1.6-9.69,42,42,0,0,0-1.45-4.7,36.74,36.74,0,0,0-2-4.49,26.48,26.48,0,0,0-6.29-7.51,42.17,42.17,0,0,0-8.24-5.32Z"/><path class="cls-4" d="M32.28,134.52l.47-.15a12.92,12.92,0,0,1-.44-6l-.49-.06A13.37,13.37,0,0,0,32.28,134.52Z"/><path class="cls-4" d="M30.08,134.37l.45-.2a10.32,10.32,0,0,1-.74-5.78l-.49-.08A10.82,10.82,0,0,0,30.08,134.37Z"/><path class="cls-4" d="M21.55,134l.47-.14a13.67,13.67,0,0,1-.4-5.92l-.49-.08A14.16,14.16,0,0,0,21.55,134Z"/><path class="cls-4" d="M19.34,133.6l.45-.2a10.78,10.78,0,0,1-.83-5.86l-.49-.07A11.28,11.28,0,0,0,19.34,133.6Z"/><path class="cls-4" d="M16,86.34A19.26,19.26,0,0,1,9.43,79h0C5.89,72.46,6.16,65.4,10,63.31c1.9-1,4.36-.73,6.91.84a19.26,19.26,0,0,1,6.55,7.3A19.26,19.26,0,0,1,26,80.94c-.1,3-1.2,5.21-3.1,6.24a5,5,0,0,1-1.69.55A8.07,8.07,0,0,1,16,86.34Zm-5.7-22.59c-3.64,2-3.82,8.71-.41,15.05a18.76,18.76,0,0,0,6.37,7.11c2.4,1.47,4.68,1.77,6.42.83s2.75-3,2.84-5.82a18.76,18.76,0,0,0-2.44-9.23,18.76,18.76,0,0,0-6.37-7.12,7.59,7.59,0,0,0-4.9-1.32A4.47,4.47,0,0,0,10.28,63.75Z"/><rect class="cls-4" x="44.84" y="127.83" width="0.49" height="4.25" transform="translate(-8.27 3.17) rotate(-3.69)"/><path class="cls-8" d="M35.83,17.63c.12-.08.25,0,.35.1l0,0s0,0,0,0a.92.92,0,0,1,.18.26,8.7,8.7,0,0,1,.74,2.25l.16,0,.06.47,0,.16.14-.06a.81.81,0,0,1,.77.19l.17-.27A25.4,25.4,0,0,0,37,17.21c-.22-.42-.44-.83-.68-1.23l-.12.07c-4.81.08-11.85-.61-16-3.09-.62.11-.93.79-1.11,1.39A15,15,0,0,0,20.2,25.46l9-2.17a9.78,9.78,0,0,1-.09-1.16s0-.06,0-.1,0-.13,0-.2,0-.09,0-.14a4.81,4.81,0,0,1,.23-1.57c.06-.15.19-.32.32-.33a.16.16,0,0,1,.11,0,.57.57,0,0,1,.45-.43h.07a.66.66,0,0,1,.41.06.33.33,0,0,0,.15.06c.1,0,.15-.18.21-.29a.65.65,0,0,1,.55-.33.66.66,0,0,1,.55.12.8.8,0,0,1,.93-.62.56.56,0,0,0,.28,0,.4.4,0,0,0,.18-.13c.17-.19.42-.39.67-.3s.22.15.34.11.15-.17.21-.27a.45.45,0,0,1,.67-.08l0,0h0v0l0,0h0l.07,0C35.68,17.83,35.74,17.69,35.83,17.63Z"/><path class="cls-8" d="M37.11,35.37A4.12,4.12,0,0,0,35,35.23c-.21,0-.48.2-.41.4a.36.36,0,0,0,.22.19c1,.52,2.27.21,3.43.08A5.21,5.21,0,0,0,37.11,35.37Zm-19.48,1.3c0-.16,0-.3,0-.46a11.15,11.15,0,0,0-.83-4.35,10.1,10.1,0,0,0-1.23-2.3,4.56,4.56,0,0,0-.91-1l-.23-.25-.28-.05a1.86,1.86,0,0,0-.51-.15,1.11,1.11,0,0,0-.32,0L13,28.08a.81.81,0,0,0-.62.51,10.22,10.22,0,0,0,1.4,7,3.38,3.38,0,0,0,1.86,1.5c.69.14,2,0,2-.13S17.63,36.78,17.63,36.67Zm24,3.49A28.27,28.27,0,0,1,36,51.56a25.54,25.54,0,0,1-6.71-2.21c-.87-.39-1.72-.8-2.54-1.21-1-.57-2-1.06-3-1.61l-.09,0L22.67,46a9.88,9.88,0,0,1-5.14-7.45l0-.14-.25.06a4.09,4.09,0,0,1-2.8-.36,5.19,5.19,0,0,1-2-2.06,11,11,0,0,1-1-2.74,10.91,10.91,0,0,1-.22-6A8.36,8.36,0,0,1,16.25,27l.15,0a13.52,13.52,0,0,0,3,3c.64-.62,1.8-1.44,2.44-2.06a13.24,13.24,0,0,1-1.21-1.71l8.6-1.49c.23,1.1.56,2.46.8,3.36s.51,1.78.81,2.65l.15.43.39-.14c1-.35,2-.73,2.95-1.11s3.41-1.58,4.36-1.92c-.17-.91-.61-3.08-.95-4.87a18.11,18.11,0,0,1,7.39,9.66,10.53,10.53,0,0,1-4.49,5.39,3.83,3.83,0,0,0,1.79,1.45c-.29.18-.58.34-.87.49Z"/><path class="cls-4" d="M34.76,35.83c1,.52,2.27.21,3.43.08a5.21,5.21,0,0,0-1.08-.53A4.12,4.12,0,0,0,35,35.23c-.21,0-.48.2-.41.4A.36.36,0,0,0,34.76,35.83Z"/><path class="cls-1" d="M34.06,29.07l-2.55,1c-.24-.71-.45-1.44-.65-2.16-.3-1.12-.57-2.26-.77-3.39l0-.18a1.27,1.27,0,0,1,0-.23l.24-.14.19-.12a13.65,13.65,0,0,1,1.22-.74,16.34,16.34,0,0,1,4.93-1.76c.21,1.47.92,5,1.17,6.32C36.81,28,35.06,28.68,34.06,29.07Zm1.77-7.35c-.31.07-.38,1-.15,2s.65,1.83,1,1.76.38-1,.15-2S36.14,21.64,35.83,21.71Z"/><path class="cls-4" d="M29.19,23.29l-9,2.17c.14.27.29.54.45.79l8.6-1.49c-.07-.3-.13-.59-.17-.84,0,0,0,0,0,0,0-.65,0-.12.15-.25a.33.33,0,0,1,0-.1s0,0,0,0A1.74,1.74,0,0,1,29.19,23.29Z"/><path class="cls-4" d="M20.2,25.46l-4.14,1a5.39,5.39,0,0,0,.34.53l4.26-.74C20.49,26,20.34,25.73,20.2,25.46Z"/><path class="cls-4" d="M16.39,27a13.52,13.52,0,0,0,3,3c.64-.62,1.8-1.44,2.44-2.06a13.24,13.24,0,0,1-1.21-1.71Z"/><path class="cls-4" d="M41.31.25c-6.55.45-19.4,2.67-24.22,6.82A19.69,19.69,0,0,0,.24,14.64c1.23,3.91.84,8.68,2,12.6A23.74,23.74,0,0,0,5,32.76,121,121,0,0,0,15.24,46.89a10.21,10.21,0,0,0,2.94-1.09,35.69,35.69,0,0,0-.92-7.31v-.07a4.09,4.09,0,0,1-2.8-.36,5.19,5.19,0,0,1-2-2.06,11,11,0,0,1-1-2.74,10.91,10.91,0,0,1-.22-6A8.36,8.36,0,0,1,16.25,27l.15,0a5.39,5.39,0,0,1-.34-.53l4.14-1a15,15,0,0,1-1.11-11.11c.18-.6.5-1.27,1.11-1.39,4.13,2.48,11.16,3.17,16,3.09L36.3,16c.24.4.46.81.68,1.23l.07,0c1.79-1.74,4-6.62,4.46-9.08A25,25,0,0,0,41.31.25Z"/><path class="cls-2" d="M17.63,36.67a13.51,13.51,0,0,0-.83-4.81,11.5,11.5,0,0,0-2.14-3.27,2.32,2.32,0,0,0-.51-.3l-.83-.15L13,28.08a.81.81,0,0,0-.62.51,10.22,10.22,0,0,0,1.4,7,3.38,3.38,0,0,0,1.86,1.5c.69.14,2,0,2-.13S17.63,36.78,17.63,36.67Z"/><path class="cls-2" d="M14.43,28.34l-.28-.05a2.32,2.32,0,0,1,.51.3Z"/><path class="cls-2" d="M16.8,31.86a13.51,13.51,0,0,1,.83,4.81c0-.16,0-.3,0-.46A11.15,11.15,0,0,0,16.8,31.86Z"/><path class="cls-4" d="M17.79,40.24A8.84,8.84,0,0,0,18.18,42a16.93,16.93,0,0,0,1.73,4.23,12.7,12.7,0,0,0,2.52,2.82c2.05,1.76,2.67,1.89,5.24,2.72h0c.46-.84.95-1.57,1.41-2.41a9.91,9.91,0,0,1-2.18-1.1l-.19-.11c-1.11-.55-2.14-1.11-3-1.61l-.09,0-.47-.26a12.19,12.19,0,0,1-3.37-2.6c-.25-.29-.48-.6-.7-.91A9,9,0,0,1,17.79,40.24Z"/><path class="cls-4" d="M23.68,46.53c.88.5,1.91,1.05,3,1.61C25.72,47.57,24.69,47.08,23.68,46.53Z"/><ellipse class="cls-4" cx="36.24" cy="23.6" rx="0.57" ry="1.93" transform="translate(-4.14 8.11) rotate(-12.08)"/><path class="cls-4" d="M35.47,17.75h0l0,0Z"/><path class="cls-4" d="M35.48,17.77l0,0Z"/><path class="cls-4" d="M29.21,23.28c0,.1,0,.2,0,.3l0,0h0a1.47,1.47,0,0,1,.56-.45L30,23a13.41,13.41,0,0,1,1.29-.78,17.16,17.16,0,0,1,5.6-1.92l.23,0A8.07,8.07,0,0,0,36.34,18a1.36,1.36,0,0,0-.13-.2s0,0,0,0l0,0a.23.23,0,0,0-.3-.06c-.09.06-.15.21-.26.19a.19.19,0,0,1-.12-.08h0l0,0,0,0h0a.44.44,0,0,0-.65.1c-.06.1-.09.25-.21.29s-.23-.08-.35-.13-.49.11-.66.32a.44.44,0,0,1-.17.14.54.54,0,0,1-.29,0,.79.79,0,0,0-.93.65A.55.55,0,0,0,32,19a.69.69,0,0,0-.85.31c-.07.13-.13.32-.28.31a.34.34,0,0,1-.15-.06.62.62,0,0,0-.91.41c-.18-.1-.36.11-.43.31A7.67,7.67,0,0,0,29.21,23.28Z"/><path class="cls-4" d="M36.18,17.73l0,0Z"/><path class="cls-4" d="M29.29,23.55h0l.28-.17.15-.09c.44-.29.91-.57,1.39-.83a19.08,19.08,0,0,1,6-2c0-.05,0-.11,0-.16l-.23,0a17.16,17.16,0,0,0-5.6,1.92A13.41,13.41,0,0,0,30,23l-.13.08A1.47,1.47,0,0,0,29.29,23.55Z"/><path class="cls-4" d="M37.13,20.28A8.7,8.7,0,0,0,36.39,18a.92.92,0,0,0-.18-.26,1.36,1.36,0,0,1,.13.2,8.07,8.07,0,0,1,.76,2.33Z"/><path class="cls-4" d="M37.38,20.89A1.14,1.14,0,0,0,37,22.23a1.34,1.34,0,0,0,.7.84c0-.06,0-.12,0-.18C37.57,22.07,37.44,21.35,37.38,20.89Z"/><path class="cls-4" d="M37.1,20.28c0,.05,0,.11,0,.16h0c0-.05,0-.11,0-.16Z"/><path class="cls-4" d="M31.66,23.07a13.65,13.65,0,0,0-1.22.74l-.19.12-.24.14a1.27,1.27,0,0,0,0,.23l0,.18c.21,1.14.47,2.28.77,3.39.2.72.41,1.45.65,2.16l2.55-1c1-.39,2.74-1.09,3.7-1.44-.25-1.28-1-4.85-1.17-6.32A16.34,16.34,0,0,0,31.66,23.07Zm-2.38.49.28-.17.15-.09c.44-.29.91-.57,1.39-.83a19.08,19.08,0,0,1,6-2h0c0-.05,0-.11,0-.16l.16,0,.06.47,0,.16A1.14,1.14,0,0,0,37,22.23a1.34,1.34,0,0,0,.7.84.17.17,0,0,0,0,0l0,0c.34,1.8.77,4,.95,4.87-.95.34-3.36,1.53-4.36,1.92s-2,.77-2.95,1.11L31,31.2l-.15-.43c-.3-.87-.57-1.76-.81-2.65s-.57-2.25-.8-3.36c-.07-.3-.13-.59-.17-.84,0,0,0,0,0,0,0-.65,0-.12.15-.25h0Z"/><path class="cls-4" d="M37.76,23.08h0a.17.17,0,0,0,0,0l0,0Z"/><path class="cls-4" d="M37.72,22.89c0,.06,0,.12,0,.18h0Z"/><path class="cls-4" d="M37.72,22.89A3.3,3.3,0,0,1,38.29,21a.81.81,0,0,0-.77-.19l-.14.06C37.44,21.35,37.57,22.07,37.72,22.89Z"/><path class="cls-4" d="M37.76,23.08a.71.71,0,0,0,.49,0,1.08,1.08,0,0,0,.49-1.41,1.44,1.44,0,0,0-.44-.68,3.3,3.3,0,0,0-.57,1.88Z"/><path class="cls-7" d="M37.1,20.28A8.07,8.07,0,0,0,36.34,18a1.36,1.36,0,0,0-.13-.2s0,0,0,0l0,0c-.1-.12-.23-.18-.35-.1s-.15.2-.26.19l-.07,0h0l0,0,0,0h0l0,0a.45.45,0,0,0-.67.08c-.06.1-.1.24-.21.27s-.22-.07-.34-.11-.49.11-.67.3a.4.4,0,0,1-.18.13.56.56,0,0,1-.28,0,.8.8,0,0,0-.93.62.66.66,0,0,0-.55-.12.65.65,0,0,0-.48.33c-.07.12-.14.3-.28.3h0a.33.33,0,0,1-.15-.06.66.66,0,0,0-.41-.06h-.07a.57.57,0,0,0-.42.44h0a.16.16,0,0,0-.11,0,.53.53,0,0,0-.3.33,4.71,4.71,0,0,0-.25,1.57s0,.09,0,.14,0,.13,0,.2,0,.07,0,.1a9.78,9.78,0,0,0,.09,1.16,1.74,1.74,0,0,0,0,.22s0,0,0,0a.33.33,0,0,0,0,.1"/><path class="cls-7" d="M12.58,28.64a.82.82,0,0,1,.74-.5,1.11,1.11,0,0,1,.32,0,1.86,1.86,0,0,1,.51.15,2.32,2.32,0,0,1,.51.3,4.56,4.56,0,0,1,.91,1,10.1,10.1,0,0,1,1.23,2.3,13.51,13.51,0,0,1,.83,4.81c0,.11,0,.21,0,.32"/><path class="cls-7" d="M17.06,32.66a4.89,4.89,0,0,0-2.43-.84"/><path class="cls-7" d="M33.62,33.37a1.37,1.37,0,0,0-1.2.57,1.94,1.94,0,0,0-.33,1.32,3.38,3.38,0,0,0,.44,1.3"/><path class="cls-7" d="M38.19,35.9a5.21,5.21,0,0,0-1.08-.53A4.12,4.12,0,0,0,35,35.23c-.21,0-.48.2-.41.4a.36.36,0,0,0,.22.19C35.8,36.35,37,36,38.19,35.9Z"/><path class="cls-7" d="M39.66,37l-.31-.24c-.37-.29-.75-.58-1.16-.83"/><path class="cls-7" d="M37.77,23.15a18.11,18.11,0,0,1,7.39,9.66,10.53,10.53,0,0,1-4.49,5.39,3.83,3.83,0,0,0,1.79,1.45c-.29.18-.58.34-.87.49a12.66,12.66,0,0,1-3.09,1.09,9.78,9.78,0,0,1-8.69-2.44"/><path class="cls-7" d="M26.7,48.14c.82.41,1.68.82,2.54,1.21A25.54,25.54,0,0,0,36,51.56,28.27,28.27,0,0,0,41.6,40.15"/><path class="cls-7" d="M17.53,38.5A9.88,9.88,0,0,0,22.67,46l.93.53"/><path class="cls-7" d="M38.29,21l.17-.27A25.4,25.4,0,0,0,37,17.21c-.22-.42-.44-.83-.68-1.23a16.18,16.18,0,0,0-1.39-2"/><path class="cls-7" d="M18.61,37.86a4.09,4.09,0,0,1-1.12.5l-.25.06a4.09,4.09,0,0,1-2.8-.36,5.19,5.19,0,0,1-2-2.06,11,11,0,0,1-1-2.74,10.91,10.91,0,0,1-.22-6A8.36,8.36,0,0,1,16.25,27"/><path class="cls-7" d="M36.17,16.05c-4.81.08-11.85-.61-16-3.09"/><path class="cls-7" d="M20.2,13c-.62.11-.93.79-1.11,1.39A15,15,0,0,0,20.2,25.46c.14.27.29.54.45.79A13.24,13.24,0,0,0,21.87,28c-.64.62-1.8,1.44-2.44,2.06"/><path class="cls-7" d="M15.07,23.94a8,8,0,0,0,1,2.51,5.39,5.39,0,0,0,.34.53,13.52,13.52,0,0,0,3,3"/><path class="cls-7" d="M41.31.25a25,25,0,0,1,.2,7.85c-.42,2.46-2.67,7.34-4.46,9.08"/><path class="cls-7" d="M41.31.25c-6.55.45-19.4,2.67-24.22,6.82A19.69,19.69,0,0,0,.24,14.64"/><path class="cls-7" d="M.24,14.64c1.23,3.91.84,8.68,2,12.6A23.74,23.74,0,0,0,5,32.76,121,121,0,0,0,15.24,46.89a10.21,10.21,0,0,0,2.94-1.09h0"/><path class="cls-7" d="M39.27,33a4.46,4.46,0,0,0,2.27.52,10.34,10.34,0,0,0,2.32-.36"/><polyline class="cls-7" points="29.5 23.21 29.21 23.28 29.19 23.28 29.19 23.29 20.2 25.46 16.06 26.46 15.44 26.61"/><polyline class="cls-7" points="29.41 24.74 29.26 24.76 20.65 26.25 16.39 26.99 16.25 27.01"/><path class="cls-7" d="M18.18,45.8a35.69,35.69,0,0,0-.92-7.31"/><path class="cls-7" d="M27.67,51.77c-1.07,1.7-2.23,3.62-3.13,5.22"/><path class="cls-7" d="M29.24,49.35c-.47.69-1,1.52-1.57,2.41"/><path class="cls-4" d="M36.39,18c-.1-.22-.32-.47-.51-.34s-.15.21-.26.19-.11-.07-.15-.12a.44.44,0,0,0-.67.08c-.06.1-.09.25-.21.29s-.23-.08-.34-.13-.49.11-.67.31a.44.44,0,0,1-.17.14.53.53,0,0,1-.29,0,.8.8,0,0,0-.93.65.69.69,0,0,0-1,.21c-.07.13-.14.32-.28.31a.35.35,0,0,1-.15-.06.62.62,0,0,0-.91.41c-.18-.1-.36.12-.44.32a8.11,8.11,0,0,0-.14,3.33l.31-.19.15-.08c.44-.29.91-.58,1.39-.84a19.06,19.06,0,0,1,6.07-2h0A9,9,0,0,0,36.39,18Z"/><path class="cls-7" d="M32,19a.67.67,0,0,0-1,.2c-.07.13-.13.3-.27.3a.34.34,0,0,1-.15-.06.61.61,0,0,0-.88.39c-.17-.1-.35.11-.42.3a7.54,7.54,0,0,0-.14,3.15c0,.2,0,.38.08.55"/><ellipse class="cls-4" cx="36.24" cy="23.59" rx="0.57" ry="1.93" transform="translate(-4.15 8.15) rotate(-12.14)"/><path class="cls-4" d="M29,23.86l.48-.09a7.86,7.86,0,0,1,.07-3.56.36.36,0,0,1,.13-.17l.31.16v-.35a.29.29,0,0,1,.17-.2.43.43,0,0,1,.38,0,.57.57,0,0,0,.25.09c.28,0,.41-.24.48-.38l0,0a.46.46,0,0,1,.65-.13l.32.26.08-.4a.54.54,0,0,1,.24-.34.51.51,0,0,1,.39-.08h0a.63.63,0,0,0,.36,0,.64.64,0,0,0,.29-.21c.16-.18.31-.27.4-.24l.07,0a.47.47,0,0,0,.74-.23l0-.07a.16.16,0,0,1,.13-.08.18.18,0,0,1,.15,0,.48.48,0,0,0,.3.18.43.43,0,0,0,.38-.18l0,0a2.32,2.32,0,0,1,.15.23,7.89,7.89,0,0,1,.77,2.45l.49-.07a8.37,8.37,0,0,0-.82-2.59.91.91,0,0,0-.49-.48.45.45,0,0,0-.37.06.61.61,0,0,0-.11.1.67.67,0,0,0-.55-.17.67.67,0,0,0-.49.3l-.06.1,0,0,0,0-.14-.07c-.21-.08-.54-.08-.93.37l-.07.07-.08,0-.07,0a1,1,0,0,0-.77.15,1.07,1.07,0,0,0-.35.37,1,1,0,0,0-.48,0,.92.92,0,0,0-.64.46l0,.06,0,.09h0a.92.92,0,0,0-.83,0,.81.81,0,0,0-.36.35l-.08,0a.8.8,0,0,0-.42.46A8.39,8.39,0,0,0,29,23.86Z"/><path class="cls-5" d="M13,28.08a.81.81,0,0,0-.62.52,10.21,10.21,0,0,0,1.4,7,3.38,3.38,0,0,0,1.86,1.5c.69.15,2,0,2-.13,0-.33,0-.53,0-.78a10.82,10.82,0,0,0-3.2-7.86"/><path class="cls-4" d="M12.82,28.72c.07-.28.56-.43,1-.33a2.41,2.41,0,0,1,1.14.66,8.49,8.49,0,0,1,1.57,2.34A13.37,13.37,0,0,1,17.63,37a13.49,13.49,0,0,0-.93-5.69,8.77,8.77,0,0,0-1.53-2.5,2.8,2.8,0,0,0-1.3-.82A1.55,1.55,0,0,0,13,28a1,1,0,0,0-.69.6Z"/><path class="cls-4" d="M17.11,32.58A3.45,3.45,0,0,0,15.94,32a3.33,3.33,0,0,0-1.31-.14,9.28,9.28,0,0,1,1.23.37,8.85,8.85,0,0,1,1.14.55Z"/><path class="cls-4" d="M33.64,33.18a1.37,1.37,0,0,0-1.14.31,1.71,1.71,0,0,0-.57,1A2.17,2.17,0,0,0,32,35.64a2.9,2.9,0,0,0,.52.93,5.19,5.19,0,0,1-.24-1,2.44,2.44,0,0,1,.07-.95,1.56,1.56,0,0,1,.46-.74,1.35,1.35,0,0,1,.77-.34Z"/><path class="cls-4" d="M39.66,37a4.87,4.87,0,0,0-1.85-1.62,4.72,4.72,0,0,0-2.49-.44,2.13,2.13,0,0,0-.67.16.65.65,0,0,0-.34.35.49.49,0,0,0,.19.55,2.9,2.9,0,0,0,1.28.39,12.52,12.52,0,0,0,2.45-.21l-.06-.49a12.28,12.28,0,0,1-2.35.19,3,3,0,0,1-.54-.1L35,35.66a1.4,1.4,0,0,1-.21-.11s0,0,0,0a.49.49,0,0,1,.08-.06,1.8,1.8,0,0,1,.5-.1,3.62,3.62,0,0,1,2.18.45A16.53,16.53,0,0,0,39.66,37Z"/><path class="cls-4" d="M37.6,23.33a18,18,0,0,1,7.33,9.56v-.15a8.64,8.64,0,0,1-1.73,3A10.91,10.91,0,0,1,40.55,38h0l-.25.15.16.18c.15.17.27.34.41.49a4.93,4.93,0,0,0,.94.78,2.32,2.32,0,0,0,.59.29h0l-.07-.45a14.63,14.63,0,0,1-3.09,1.24A10.58,10.58,0,0,1,36,41.1a10.38,10.38,0,0,1-3.25-.65,10.56,10.56,0,0,1-2.92-1.68,9.16,9.16,0,0,0,1.28,1.15,9.53,9.53,0,0,0,4.86,1.79,9.28,9.28,0,0,0,3.49-.38,10.81,10.81,0,0,0,3.15-1.49l.44-.31-.51-.14h0a1.76,1.76,0,0,1-.47-.2,4.23,4.23,0,0,1-.45-.32,4.28,4.28,0,0,1-.41-.37,1.16,1.16,0,0,1-.3-.43l-.09.34h0A11.4,11.4,0,0,0,43.57,36a9.12,9.12,0,0,0,1.83-3.17l0-.07,0-.08a18.46,18.46,0,0,0-7.52-9.81Z"/><path class="cls-4" d="M36.06,51.82l.08-.11A28.67,28.67,0,0,0,41.84,40.2l-.48-.11a27.73,27.73,0,0,1-5.51,11.2c-3.68-.49-10.12-3.83-13-5.56a9.6,9.6,0,0,1-5-7.27l-.49.07a10.19,10.19,0,0,0,5.26,7.63c3.21,1.89,9.65,5.21,13.38,5.64Z"/><path class="cls-4" d="M38,23.09a3.18,3.18,0,0,1,.69-2.21l.07-.1,0-.11a22.28,22.28,0,0,0-3.59-6.84l-.38.31a21.69,21.69,0,0,1,3.47,6.57,3.56,3.56,0,0,0-.7,2.43Z"/><path class="cls-4" d="M17,38.73a4.42,4.42,0,0,0,1.79-.66l-.27-.41a4,4,0,0,1-3.92.19,5,5,0,0,1-1.93-2,11.05,11.05,0,0,1-1-2.67,10.82,10.82,0,0,1-.25-5.72,8.07,8.07,0,0,1,4.82-.23l.13-.48a8.58,8.58,0,0,0-5.23.29l-.11,0,0,.12a11.13,11.13,0,0,0,.21,6.1,11.5,11.5,0,0,0,1.06,2.79,5.46,5.46,0,0,0,2.12,2.16A4.37,4.37,0,0,0,17,38.73Z"/><path class="cls-4" d="M36.18,16.3v-.49c-5.06.08-11.88-.67-15.84-3.06l-.25.42C24.13,15.61,31,16.38,36.18,16.3Z"/><path class="cls-4" d="M19.6,30.19c.32-.31.79-.69,1.25-1.06s.87-.7,1.19-1L22.2,28l-.15-.18a14.75,14.75,0,0,1-2.73-13.37c.22-.74.53-1.15.92-1.22l-.09-.49c-.59.11-1,.63-1.31,1.56a15.26,15.26,0,0,0,2.68,13.65c-.28.25-.64.54-1,.82s-.95.76-1.28,1.09Z"/><path class="cls-4" d="M19.28,30.21l.3-.39c-2.46-1.85-3.82-3.73-4.27-5.92l-.48.1C15.3,26.31,16.72,28.29,19.28,30.21Z"/><path class="cls-7" d="M41.42,1.61a13.59,13.59,0,0,0-5-.69"/><path class="cls-4" d="M37.22,17.35c1.83-1.76,4.11-6.69,4.54-9.21a25.54,25.54,0,0,0-.2-7.94l-.49.08a25.05,25.05,0,0,1,.2,7.77c-.41,2.41-2.66,7.27-4.4,8.94Z"/><path class="cls-4" d="M.43,14.79A19.41,19.41,0,0,1,17.07,7.31h.1l.08-.07C22,3.19,34.53,1,41.33.49l0-.49C34.47.46,21.88,2.72,17,6.81A19.92,19.92,0,0,0,0,14.5Z"/><path class="cls-4" d="M15.14,47.15l.13,0a10.42,10.42,0,0,0,3-1.11l-.22-.44a10.51,10.51,0,0,1-2.73,1,120.92,120.92,0,0,1-10.12-14,23.72,23.72,0,0,1-2.71-5.46,32,32,0,0,1-1-6.19,31.63,31.63,0,0,0-1-6.42L0,14.72A31.26,31.26,0,0,1,1,21a32.32,32.32,0,0,0,1,6.28A24.12,24.12,0,0,0,4.8,32.9,121.42,121.42,0,0,0,15.05,47Z"/><path class="cls-4" d="M39.19,33.15a3.34,3.34,0,0,0,1.13.47,4.68,4.68,0,0,0,1.21.09,6.44,6.44,0,0,0,1.19-.18,8.89,8.89,0,0,0,1.13-.36l-1.17.14a9.65,9.65,0,0,1-1.15,0,5.89,5.89,0,0,1-1.12-.13,4.81,4.81,0,0,1-1.06-.35Z"/><path class="cls-4" d="M31,31.2l.39-.14c1-.35,2-.73,2.95-1.12s3.41-1.57,4.36-1.92l-1-.39c-1,.35-2.7,1.05-3.7,1.44l-2.54,1c-.24-.71-.46-1.44-.65-2.16-.3-1.12-.56-2.26-.77-3.39l0-.19a2,2,0,0,1,0-.22l.24-.15.19-.11c.39-.26.8-.51,1.22-.74a16.4,16.4,0,0,1,4.93-1.76c.21,1.47.92,5,1.18,6.32l1,.39c-.28-1.43-1.2-6-1.36-7.29l-.06-.47-.43.07a17.16,17.16,0,0,0-5.6,1.92c-.45.24-.88.51-1.28.78l-.13.08a1.48,1.48,0,0,0-.56.45c-.2.32-.18-.39-.2.32,0,0,0,0,0,0,.21,1.16.66,3.05,1,4.2.24.89.52,1.78.82,2.65Z"/><rect class="cls-4" x="15.23" y="24.66" width="14.47" height="0.49" transform="translate(-5.21 5.96) rotate(-13.56)"/><rect class="cls-4" x="16.15" y="25.63" width="13.36" height="0.49" transform="translate(-4.07 4.26) rotate(-9.79)"/><ellipse class="cls-4" cx="37.88" cy="21.96" rx="0.9" ry="1.2" transform="translate(-4.88 12.56) rotate(-17.7)"/></g></g></svg>