<svg xmlns="http://www.w3.org/2000/svg" viewBox="0 0 74.16 66.77"><defs><style>.cls-1{fill:#0b132b;}.cls-2{fill:#5bc0be;}.cls-3{fill:#3a506b;}</style></defs><title>Asset 8</title><g id="Layer_2" data-name="Layer 2"><g id="Layer_1-2" data-name="Layer 1"><path class="cls-1" d="M20.92,20.93h0a14.25,14.25,0,0,0-2.54,2.82,24.87,24.87,0,0,0-4,11.42c-.31,2.65.58,5.29.65,8,1.27,1.12.26,2.05,0,2.69l-1.13-.47a15.37,15.37,0,0,0-4.64-1.12V44.2A53,53,0,0,1,1.31,26.53,43.14,43.14,0,0,1,0,18.17,34.7,34.7,0,0,1,2.88,2.7,37.64,37.64,0,0,1,11,.77C20.8-.77,30.3-.18,39.24,4.11a15.86,15.86,0,0,1,3-.52C49,3,55.68,4.88,61.84,7.61A70.15,70.15,0,0,1,74,14.55a82.49,82.49,0,0,1-.35,14.39A46.58,46.58,0,0,1,69.37,44.2v0a15.48,15.48,0,0,0-6.52.92c0-.39,0-.77.06-1.15l0-.28a2.27,2.27,0,0,0-.4-1.86,1.88,1.88,0,0,0-.42-.33,48.76,48.76,0,0,0-.29-6.35A27.4,27.4,0,0,0,58,23.91l-.09-.16a46.09,46.09,0,0,1-23.81,6.67A43.39,43.39,0,0,1,20.92,20.93Z"/><path class="cls-2" d="M14.82,58.52c.12,2.53.25,5.06.57,7.58a7.89,7.89,0,0,1-7.68-.74A9.78,9.78,0,0,1,4.48,61a20.63,20.63,0,0,1-1.22-5.33c-.45-3.84-.47-7.62,1.12-11.09a15.58,15.58,0,0,1,4.85-.35,15.37,15.37,0,0,1,4.64,1.12h.3c0,.72.06,1.43.1,2.15Q14.55,53,14.82,58.52Z"/><path class="cls-2" d="M61.33,58.52l.17-3.37c.28-1.36.51-2.73.7-4.08.28-2,.49-3.95.61-5.91a15.48,15.48,0,0,1,6.52-.92,14.49,14.49,0,0,1,2.43.36c1.6,3.48,1.59,7.26,1.12,11.09A20.63,20.63,0,0,1,71.67,61a9.76,9.76,0,0,1-3.22,4.34,7.91,7.91,0,0,1-7.69.74C61.08,63.59,61.21,61.05,61.33,58.52Z"/><path class="cls-3" d="M69.84,45.63a1.51,1.51,0,0,1,1.28.8c1.53,4.24.9,9.18-.8,13.37a6.32,6.32,0,0,1-3.06,3.25c-1.23.45-3.73.59-3.77.27-.09-.6-.14-1-.21-1.45A20.22,20.22,0,0,1,67.2,46.49"/><path class="cls-1" d="M69.68,45.43a2.9,2.9,0,0,0-1.54.23,5.23,5.23,0,0,0-2.19,1.86,16.39,16.39,0,0,0-2.2,5,25.21,25.21,0,0,0-.27,10.77,26.57,26.57,0,0,1,.09-8,16.41,16.41,0,0,1,2-1.29,17.35,17.35,0,0,1,2.18-1,6.23,6.23,0,0,0-2.39.59,7,7,0,0,0-1.62,1.06c.14-.66.29-1.32.49-2a15.87,15.87,0,0,1,2.31-4.74,4.5,4.5,0,0,1,1.93-1.52c.7-.3,1.65-.14,1.84.36l.83-.4A1.83,1.83,0,0,0,69.68,45.43Z"/><path class="cls-3" d="M6.28,45.63a1.51,1.51,0,0,0-1.28.8c-1.53,4.24-.9,9.18.8,13.37a6.32,6.32,0,0,0,3.06,3.25c1.23.45,3.73.59,3.77.27.09-.6.14-1,.21-1.45A20.22,20.22,0,0,0,8.92,46.49"/><path class="cls-1" d="M12.37,52.54a16.39,16.39,0,0,0-2.2-5A5.23,5.23,0,0,0,8,45.66a2.9,2.9,0,0,0-1.54-.23A1.83,1.83,0,0,0,5,46.37l.83.4c.2-.5,1.14-.66,1.84-.36a4.5,4.5,0,0,1,1.93,1.52,15.87,15.87,0,0,1,2.31,4.74c.2.65.36,1.31.49,2a7,7,0,0,0-1.62-1.06A6.23,6.23,0,0,0,8.4,53a17.35,17.35,0,0,1,2.18,1,16.4,16.4,0,0,1,2,1.29,26.57,26.57,0,0,1,.09,8A25.21,25.21,0,0,0,12.37,52.54Z"/></g></g></svg>