<svg xmlns="http://www.w3.org/2000/svg" viewBox="0 0 27.11 37.36"><defs><style>.cls-1{fill:#0b132b;}.cls-2{fill:#5bc0be;}</style></defs><title>Asset 10</title><g id="Layer_2" data-name="Layer 2"><g id="Layer_1-2" data-name="Layer 1"><path class="cls-1" d="M26,30a3.6,3.6,0,0,1,1.06,2.68,3.81,3.81,0,0,1-1,2.65,8.82,8.82,0,0,0,0-2.59,14.66,14.66,0,0,0-.62-2.38Z"/><path class="cls-1" d="M8.93,35.57a4.42,4.42,0,0,1-2.38.81,3.63,3.63,0,0,1-2.47-.75,3.09,3.09,0,0,1-1.15-2.39,1.62,1.62,0,0,1,.69-1.44,1.61,1.61,0,0,1,1.58,0,6.56,6.56,0,0,1,1,.7l.89.72,1.75,1.44c1.19.93,2.36,1.78,3.61,2.69a9.44,9.44,0,0,1-4.14-2L6.53,34l-.9-.67a5.84,5.84,0,0,0-.87-.57.65.65,0,0,0-.59,0,.61.61,0,0,0-.19.54,2,2,0,0,0,.76,1.57,3.3,3.3,0,0,0,3.67,0Z"/><path class="cls-1" d="M10.34,31.58a10.52,10.52,0,0,0,4.95-.15A11,11,0,0,0,19.58,29a6.65,6.65,0,0,1-4.09,3.17A6.82,6.82,0,0,1,10.34,31.58Z"/><path class="cls-1" d="M1.63,36.28A4,4,0,0,1,.11,33.82,4.59,4.59,0,0,1,2.6,28.68a4,4,0,0,1,2.88-.33,6.11,6.11,0,0,0-2.46,1,4.91,4.91,0,0,0-2.1,4.33A6.11,6.11,0,0,0,1.63,36.28Z"/><path class="cls-1" d="M4.84,32.23a.77.77,0,0,0-.29-.11.53.53,0,0,0-.48.27,1.43,1.43,0,0,0-.17.56,4.67,4.67,0,0,0,0,1.48,1.78,1.78,0,0,0,.28.74,1.61,1.61,0,0,0,1.13.6,4.72,4.72,0,0,0,1.3-.08c.45-.07,1.22,0,1.54-.43s-.16-.79-.5-1.07A17.56,17.56,0,0,0,4.84,32.23Z"/><path class="cls-2" d="M13.93,22.61c-1.7-2.69.43-4.74-1-10.17a4.8,4.8,0,0,1-.08-2.54c.5-1.88,2.38-3.52,3.5-3.17.66.21.79,1,1.29,2.42,1,2.77,1.49,2.33,3,5.58A30.32,30.32,0,0,1,22.77,22c.54,2.67.35,3.06.17,3.28C21.67,26.81,16,25.87,13.93,22.61Z"/><path class="cls-1" d="M14.8,37.26a19.79,19.79,0,0,0,5.27-3.85,22.51,22.51,0,0,0,3.67-5.25h0l0,.22a53.07,53.07,0,0,0-1.48-7.23q-.49-1.78-1.12-3.52c-.39-1.17-.83-2.32-1.26-3.49s-.89-2.32-1.43-3.44c-.27-.56-.53-1.13-.82-1.67a10.08,10.08,0,0,1-.8-1.75A7.51,7.51,0,0,1,18.62,0l.64.66A6.19,6.19,0,0,0,17.37,7.1,25.19,25.19,0,0,0,19,10.4c.57,1.11,1.21,2.2,1.76,3.33a36,36,0,0,1,2.67,7.08,34.18,34.18,0,0,1,1.18,7.49v.11l0,.11h0A13.23,13.23,0,0,1,20.67,34,15.37,15.37,0,0,1,14.8,37.26Z"/></g></g></svg>