<svg xmlns="http://www.w3.org/2000/svg" viewBox="0 0 43.41 44.95"><defs><style>.cls-1{fill:none;stroke:#0b132b;stroke-miterlimit:10;}.cls-2{fill:#0b132b;}.cls-3{fill:#5bc0be;}</style></defs><title>Asset 20</title><g id="Layer_2" data-name="Layer 2"><g id="Layer_1-2" data-name="Layer 1"><path class="cls-1" d="M23.13,2.2c-14,8.13-14.29,14.67-13.7,17.19.15.62.8,2.45,1.4,2.24H12.5a1.6,1.6,0,0,0,1.37-.75c.21-.34.47-.77.76-1.26S13.75,17.7,16,15.79l.22-.18a5.8,5.8,0,0,1,3.11-1.27h0a7.89,7.89,0,0,1,6.85,3c.55.72-1.21-2.46-.81-3.27l.71-1.45a1.14,1.14,0,0,1,.38-.4c.58-.42,1.69-2.67,2.29-4a1.6,1.6,0,0,0-.24-1.69l-3.6-4.28a.81.81,0,0,0-.65-.29H24A1.92,1.92,0,0,0,23.13,2.2Z"/><rect class="cls-2" x="10.23" y="8.19" width="20.75" height="35.81" transform="translate(29.87 -5.83) rotate(54.47)"/><circle class="cls-3" cx="13.17" cy="31.41" r="2.34" transform="translate(-14.38 11.38) rotate(-31.24)"/><path class="cls-3" d="M10.37,20.65a8.24,8.24,0,0,1-.84-2.46C8.75,11,23.3,2.27,24,1.94h.25a.81.81,0,0,1,.65.29l3.6,4.28a1.6,1.6,0,0,1,.24,1.69c-.6,1.34-1.71,3.58-2.29,4a1.14,1.14,0,0,0-.38.4L25.38,14c-.35.73,1,3.33.91,3.38s-.09-.08-.1-.11c-.35-.55-3.37-3.7-6.78-3.25a7.68,7.68,0,0,0-3.47,1.38,3.73,3.73,0,0,0-1.31,2.41"/><path class="cls-3" d="M22.82,9.33l.63-7.78h0L33.84,0l5.67,9.44,2.76,8.68,1.13,7.39L42.1,30.21l-2.37,2-2,4.43-2.45,3.13-3.16,2.35L29,41.72l-1.3-1.35-4.51-.49-1.28-.62-1-2.08,2.86-1.68,2-1.51,1.4-4.24L25.54,19.42s-.11-.59-.9-3.23"/><path class="cls-2" d="M23.9,34.67c-1.22,1.15-2.66,1.26-3,2.51A2.25,2.25,0,0,0,21,38.68c.75,1.71,4.22,2.44,6.72,1.7,5.28-1.56,6.7-9.84,7-11.41a21.11,21.11,0,0,0,0-7.21c-.28,8.53-2.58,15-5.58,16.79a8,8,0,0,1-4.22,1.14c-1.24-.08-3.11-.56-3.19-1.41-.06-.64.92-1.23,1.34-1.46A10.3,10.3,0,0,0,25.73,34c2-3.17,1.66-6.62,1.33-9.63a25.76,25.76,0,0,0-2.52-8.57c2,7,2.2,12.72,1.2,15.53A7.57,7.57,0,0,1,23.9,34.67Z"/><path class="cls-2" d="M56.47.31"/><path class="cls-2" d="M27.93,39.74a.58.58,0,0,0-.61,0c-.26.22-.06.87,0,1.07.5,1.17,2.93,1.63,4.77,1.31a8.06,8.06,0,0,0,5-3.42c4.37-5.8,3-14.88,2.48-17.75a32.71,32.71,0,0,1-.19,8.46c-.44,2.84-.83,5.06-2.39,7.47-.43.66-2.84,4.26-6,4.54-.22,0-2.22.18-2.64-.68C28.23,40.41,28.28,40,27.93,39.74Z"/><path class="cls-2" d="M40,33.08a5.72,5.72,0,0,0,2.85-3.6,12.54,12.54,0,0,0,.54-4A37.44,37.44,0,0,0,33.84,0l-.68.62a36.52,36.52,0,0,1,9.33,24.89A11.7,11.7,0,0,1,42,29.18c-.47,1.38-1.81,3.06-2.27,3L39,33.35A4,4,0,0,0,40,33.08Z"/></g></g></svg>