<svg xmlns="http://www.w3.org/2000/svg" viewBox="0 0 47.66 11.37"><defs><style>.cls-1{fill:#0b132b;}</style></defs><title>Asset 9</title><g id="Layer_2" data-name="Layer 2"><g id="Layer_1-2" data-name="Layer 1"><path class="cls-1" d="M46.36,3.63a1.62,1.62,0,0,0-.95-.76l-.2,0a1.62,1.62,0,0,0-.8-.58,2,2,0,0,0-1.74.24l0,0a2.1,2.1,0,0,1-.17-.21l-.08-.11A1.89,1.89,0,0,0,41,1.51a2.06,2.06,0,0,0-.83.13A2.07,2.07,0,0,0,38.44.87a2,2,0,0,0-.86.1L37.45,1c-.07,0-.18.08-.22.07A.86.86,0,0,1,37.05,1a1.79,1.79,0,0,0-2-.46,2.15,2.15,0,0,0-.26.17s-.12.09-.1.11A1.17,1.17,0,0,1,34.6.63L34.46.45A1.32,1.32,0,0,0,33.4,0a1.37,1.37,0,0,0-1,.48l0,0h0A1.44,1.44,0,0,0,32,.31a.89.89,0,0,0-.73,0,1.82,1.82,0,0,0-.84,1,15.88,15.88,0,0,0-.95,5.32h.92s0,0,0,0A41.66,41.66,0,0,1,43,9c1.08.38,2.13.81,3.12,1.27l.32.13.27.11c0,.21,0,.42,0,.62l.92,0C47.75,9.17,47.49,5.54,46.36,3.63Z"/><path class="cls-1" d="M17.76,6.69h.4a15.88,15.88,0,0,0-.95-5.32,1.82,1.82,0,0,0-.84-1,.89.89,0,0,0-.73,0,1.4,1.4,0,0,0-.31.2l0,0a1.37,1.37,0,0,0-1-.48A1.3,1.3,0,0,0,13.2.45l-.14.19c0,.05-.09.13-.06.14l-.16-.1A2.21,2.21,0,0,0,12.57.5a1.79,1.79,0,0,0-2,.46.86.86,0,0,1-.18.12A.88.88,0,0,1,10.21,1L10.08,1a2.13,2.13,0,0,0-1.62.1,2.16,2.16,0,0,0-.79.63,2,2,0,0,0-1-.19,1.89,1.89,0,0,0-1.4.71l-.08.11c-.06.08-.15.21-.11.23l-.13-.09a1.93,1.93,0,0,0-1.69-.2,1.62,1.62,0,0,0-.8.58l-.2,0a1.61,1.61,0,0,0-.95.76C.17,5.54-.08,9.17,0,11.15l.36,0c0,.07,0,.15,0,.22l0,0v0a1.22,1.22,0,0,1,.36-.24H.94s0,0,0-.06c.31-.13.67-.24.89-.34,1-.43,2-.82,3.06-1.16a42.82,42.82,0,0,1,12.9-2.19l0-.44C17.77,6.83,17.76,6.76,17.76,6.69Z"/></g></g></svg>