<svg xmlns="http://www.w3.org/2000/svg" viewBox="0 0 48.1 73.06"><defs><style>.cls-1{fill:#5bc0be;}</style></defs><title>Asset 8</title><g id="Layer_2" data-name="Layer 2"><g id="Layer_1-2" data-name="Layer 1"><path class="cls-1" d="M33.17,33.59c2,.4,4.12.85,6.23,1.3,2.28.49,4.56,1,6.72,1.4l.89.18.19-.89c.09-.45.19-.9.28-1.36l-.17,3.37c-.12,2.53-.25,5.06-.57,7.58a34.08,34.08,0,0,1-1.16,5.58,32.92,32.92,0,0,1-10.13,15,50.36,50.36,0,0,1-11.51,7.35,48.91,48.91,0,0,1-11.3-7.35,32.86,32.86,0,0,1-10.14-15,35.07,35.07,0,0,1-1.16-5.58C1,42.66.88,40.12.76,37.59q-.28-5.5-.53-11c0-.72-.07-1.43-.1-2.15S.05,23,0,22.24l.91,0c0,.28,0,.56.06.82.12,2.33.34,4.67.67,7q.39,2.71,1,5.38c4.32-.85,16-3,16-3-.12-2.51-.32-3.53-.53-6-.14-1.66-.22-3.32-.27-5H18a8.61,8.61,0,0,1,4.78-2.07,10.64,10.64,0,0,1,4.63.49h0a8.32,8.32,0,0,0,.51,1.14c.77,1.45,1.51,2.9,2.19,4.38,0,.12,0,.25,0,.37l1.58,3.51s0-.1,0-.15c.45,1.17.86,2.36,1.22,3.58l-.18.89Z"/><path class="cls-1" d="M16.93,12c-.15-.43-.52-1-.93-.77-.2.09-.36.35-.57.3s-.2-.16-.28-.26a.92.92,0,0,0-1.36,0c-.15.18-.27.44-.5.48s-.43-.2-.65-.32c-.46-.25-1,.08-1.42.41a1,1,0,0,1-.39.22,1.14,1.14,0,0,1-.56-.15,1.65,1.65,0,0,0-2,1,1.44,1.44,0,0,0-2.11.13c-.18.23-.36.56-.65.51a.73.73,0,0,1-.29-.16,1.3,1.3,0,0,0-1.93.53c-.33-.24-.76.13-1,.48-1,1.76-1.29,5.23-1.18,7.27l0,0a.91.91,0,0,0-.18.63l-.91,0a55,55,0,0,1,.26-8,24.87,24.87,0,0,1,4-11.42A14.25,14.25,0,0,1,6.85,0h0A43.39,43.39,0,0,0,20,9.49,46.09,46.09,0,0,0,43.82,2.82l.09.16a27.4,27.4,0,0,1,3.86,11.28,48.77,48.77,0,0,1,.29,6.35,1.08,1.08,0,0,0-.25-.14,14.34,14.34,0,0,0-1.19-6.17c-.2-.35-.63-.72-1-.48a1.3,1.3,0,0,0-1.93-.53.73.73,0,0,1-.29.16c-.29.06-.47-.28-.65-.51a1.45,1.45,0,0,0-2.12-.13,1.63,1.63,0,0,0-2-1,1.14,1.14,0,0,1-.56.15.91.91,0,0,1-.39-.22c-.41-.33-1-.66-1.42-.41-.22.12-.41.36-.65.32s-.35-.3-.5-.48a.92.92,0,0,0-1.36,0c-.07.1-.15.23-.28.26s-.37-.2-.57-.3c-.41-.19-.78.34-.93.77a16,16,0,0,0-.89,4.69l-.94,0v.95l0,1.6a7.06,7.06,0,0,0-.92-.63,9.83,9.83,0,0,0-2.19-1,10.3,10.3,0,0,0-4.31-.4A8.61,8.61,0,0,0,18,19.27h-.15c0-.56,0-1.13,0-1.71h0l0-.44A15.82,15.82,0,0,0,16.93,12Z"/><rect class="cls-1" x="4.06" y="12.53" width="39.5" height="26.59"/><rect class="cls-1" x="30.81" y="8.87" width="8.25" height="11.17"/><rect class="cls-1" x="6.19" y="10.5" width="15.28" height="9.54"/><rect class="cls-1" x="1.06" y="13.43" width="10.25" height="22.12"/><rect class="cls-1" x="36.94" y="9.93" width="7.31" height="6.94"/><rect class="cls-1" x="42.06" y="11.56" width="4.88" height="27.56"/><ellipse class="cls-1" cx="46.62" cy="25.45" rx="12.54" ry="1.44" transform="translate(20.01 71.43) rotate(-88.57)"/></g></g></svg>