<svg xmlns="http://www.w3.org/2000/svg" viewBox="0 0 44.17 87.23"><defs><style>.cls-1{fill:#5bc0be;}.cls-2{fill:#0b132b;}.cls-3{fill:#f8ffff;}</style></defs><title>Asset 21</title><g id="Layer_2" data-name="Layer 2"><g id="Layer_1-2" data-name="Layer 1"><g id="_Group_" data-name="&lt;Group&gt;"><path class="cls-1" d="M3.49,80.87a1.57,1.57,0,0,0,1.14.57l.13,0,.1.28a4.06,4.06,0,0,0,.8,1.43,1.9,1.9,0,0,0,1.54.64l.06,0a12.69,12.69,0,0,0,.64,1.52A3.08,3.08,0,0,0,9.5,86.93a1,1,0,0,0,.59,0c.42-.13.49-.63.48-1a24.7,24.7,0,0,0-.29-2.82L9.2,75.35A10.86,10.86,0,0,1,9.05,73a10.39,10.39,0,0,1,.66-3.36l.35.49a23.74,23.74,0,0,0,2.2,2.78,8.64,8.64,0,0,0,3,2.07c.31.12.73.21.92,0a.62.62,0,0,0,.06-.53c-.31-1.6-1.57-3-2.75-4.25A18.15,18.15,0,0,1,9,62c-.09-.43-.76-.33-1.14-.62a4.49,4.49,0,0,0-1.59-.79,2.26,2.26,0,0,0-.73-.1,1.83,1.83,0,0,0-.87.3c-.21.13-.4.6-.59.88h0A19.86,19.86,0,0,0,.35,75.46a6.52,6.52,0,0,0,.46,2c.29.65,1.15,1.73,1.63,1.64l.19,0c.08.24.17.48.26.72A3.47,3.47,0,0,0,3.49,80.87Z"/></g><path class="cls-2" d="M9.66,69.69a15.33,15.33,0,0,0,3.84,4.62,7.86,7.86,0,0,0,1.33.78,2.77,2.77,0,0,0,.78.26,1,1,0,0,0,.51-.05.65.65,0,0,0,.38-.48,2.07,2.07,0,0,0-.11-.86,5,5,0,0,0-.28-.73,7.63,7.63,0,0,0-.81-1.31c-.61-.82-1.32-1.54-2-2.27a23.62,23.62,0,0,1-1.82-2.32A15.73,15.73,0,0,1,9,62l-.09,0a16.52,16.52,0,0,0,2.24,5.55A20.07,20.07,0,0,0,12.95,70c.66.77,1.35,1.47,1.92,2.26a7.11,7.11,0,0,1,.74,1.23,4.5,4.5,0,0,1,.25.66,1.94,1.94,0,0,1,.11.61.1.1,0,0,1-.06.09.45.45,0,0,1-.23,0,2.32,2.32,0,0,1-.63-.21,7.36,7.36,0,0,1-1.25-.71,21.55,21.55,0,0,1-4-4.3Z"/><path class="cls-2" d="M9.63,69.61a7.2,7.2,0,0,0-.55,2,15.88,15.88,0,0,0-.19,2,16.25,16.25,0,0,0,.18,2l.26,2,.54,4c.17,1.33.4,2.66.47,4a2.37,2.37,0,0,1-.06.91.43.43,0,0,1-.57.27,2.33,2.33,0,0,1-1.37-1.15,14.08,14.08,0,0,1-1.41-3.69A70.77,70.77,0,0,1,5.81,74a18.79,18.79,0,0,0,0,4,33.16,33.16,0,0,0,.68,4A14.46,14.46,0,0,0,8,85.86,2.74,2.74,0,0,0,9.63,87.2a1,1,0,0,0,.63-.05.87.87,0,0,0,.43-.49,2.71,2.71,0,0,0,.09-1.09c-.08-1.36-.33-2.68-.51-4l-.58-4-.3-2a16,16,0,0,1-.22-2,15.69,15.69,0,0,1,.14-2,7,7,0,0,1,.49-1.91Z"/><path class="cls-2" d="M7.16,83.5A1.61,1.61,0,0,1,6,83.09,2.94,2.94,0,0,1,5.27,82a19.46,19.46,0,0,1-.87-2.73q-.17-.7-.29-1.41c-.09-.47-.17-.95-.25-1.43-.15-1-.29-1.92-.46-2.88,0,1,0,2,.09,2.92a21.89,21.89,0,0,0,.41,2.91,15.52,15.52,0,0,0,.85,2.84,3.26,3.26,0,0,0,.91,1.28A2,2,0,0,0,7.22,84Z"/><path class="cls-2" d="M4.62,81.19a1.34,1.34,0,0,1-.87-.44,2.84,2.84,0,0,1-.55-.94,18.9,18.9,0,0,1-.72-2.25,18,18,0,0,1-.42-2.33,20,20,0,0,1-.14-2.39,11.62,11.62,0,0,0-.21,2.41A13.63,13.63,0,0,0,2,77.68,14.44,14.44,0,0,0,2.69,80a3.19,3.19,0,0,0,.68,1.11,1.77,1.77,0,0,0,1.26.55Z"/><path class="cls-2" d="M2.29,79.35a.57.57,0,0,0,.2,0l-.09-.48c-.24,0-1-.78-1.36-1.49A6.28,6.28,0,0,1,.6,75.43,19.54,19.54,0,0,1,4.34,61.71l-.4-.29A20,20,0,0,0,.11,75.48a6.72,6.72,0,0,0,.48,2.08C.81,78.06,1.61,79.23,2.29,79.35Z"/><path class="cls-3" d="M42.68.41A4.31,4.31,0,0,0,39,1.05L8.95,22.53a4.32,4.32,0,0,0-1,6h0a4.32,4.32,0,0,0,6,1L44,8.08"/><path class="cls-2" d="M10.71,30.54a4.55,4.55,0,0,0,3.4-.79L44.17,8.28l-.29-.4L13.83,29.36a4.07,4.07,0,0,1-4.73-6.62L39.15,1.25A4.06,4.06,0,0,1,42.61.64l.13-.48a4.55,4.55,0,0,0-3.88.68L8.81,22.33a4.56,4.56,0,0,0,1.9,8.21Z"/><path class="cls-3" d="M3.17,62.12l4-36.67,4.26.71.73-4.37a4.32,4.32,0,0,1,3.55,5L9.66,63.2Z"/><path class="cls-2" d="M7,25.31l-4,36.78,0,.23.23,0,6.5,1.08.24,0,0-.24,1.69-9.74,1.64-9.75L14.83,34l.79-4.88c.13-.82.28-1.62.38-2.45a3.5,3.5,0,0,0-.63-2.45,5.83,5.83,0,0,1,.11,2.37c-.15.79-.28,1.62-.42,2.43l-.83,4.87-1.65,9.75L11,53.39,9.42,63.16,9.7,63l-6.5-1.08.2.27,4-36.78Z"/><rect class="cls-2" x="6.68" y="56.57" width="0.25" height="6.71" transform="translate(-53.43 56.8) rotate(-80.55)"/></g></g></svg>