<svg xmlns="http://www.w3.org/2000/svg" viewBox="0 0 12.59 74.2"><defs><style>.cls-1{fill:#0b132b;}</style></defs><title>Asset 19</title><g id="Layer_2" data-name="Layer 2"><g id="Layer_1-2" data-name="Layer 1"><path class="cls-1" d="M12.34,67.37,11.86,10.5C11.81,4.87,9.17.28,6,.25H6C2.76.21.2,4.74.25,10.37L.73,67.24c0,.31.15.56.33.57l11,.12C12.2,67.93,12.34,67.68,12.34,67.37Z"/><path class="cls-1" d="M12,68.17l-11-.12c-.32,0-.57-.35-.57-.81L0,10.37c0-3.72,1.09-7.16,2.93-9A4.23,4.23,0,0,1,6,0c3.33,0,6.09,4.74,6.14,10.49l.48,56.87a.94.94,0,0,1-.23.66.46.46,0,0,1-.32.14ZM11.61,10.5C11.57,5,9,.53,6,.49A3.77,3.77,0,0,0,3.28,1.72C1.53,3.47.46,6.78.49,10.37L1,67.24a.63.63,0,0,0,.08.32L12,67.68a.44.44,0,0,0,.09-.32Z"/><rect class="cls-1" x="3.56" y="20.35" width="6.8" height="53.85" rx="3.4" ry="3.4"/></g></g></svg>