<svg xmlns="http://www.w3.org/2000/svg" viewBox="0 0 48.53 77.65"><defs><style>.cls-1{fill:#0b132b;}</style></defs><title>Asset 22</title><g id="Layer_2" data-name="Layer 2"><g id="Layer_1-2" data-name="Layer 1"><path class="cls-1" d="M27.65.25a4.31,4.31,0,0,0-3.36,1.62L1.19,30.7a4.32,4.32,0,0,0,.67,6.07h0a4.32,4.32,0,0,0,6.07-.67L31,7.26"/><path class="cls-1" d="M5.06,37.93a4.55,4.55,0,0,0,3.06-1.68L31.22,7.42l-.38-.31L7.74,35.94a4.07,4.07,0,0,1-6.35-5.09L24.49,2A4.06,4.06,0,0,1,27.65.49V0A4.55,4.55,0,0,0,24.1,1.71L1,30.54a4.56,4.56,0,0,0,4.06,7.39Z"/><g id="_Group_" data-name="&lt;Group&gt;"><path class="cls-1" d="M39.27,77.38a1.57,1.57,0,0,0,1.19-.43l.06-.11.27.12a4.06,4.06,0,0,0,1.58.4,1.9,1.9,0,0,0,1.52-.68l0-.05a12.69,12.69,0,0,0,1.54.58,3.08,3.08,0,0,0,2.33,0,1,1,0,0,0,.44-.4c.19-.4-.12-.79-.43-1.07A24.7,24.7,0,0,0,45.58,74L39.2,69.44a10.86,10.86,0,0,1-1.8-1.5,10.39,10.39,0,0,1-2-2.8l.59.08a23.74,23.74,0,0,0,3.53.32,8.64,8.64,0,0,0,3.54-.72c.31-.14.65-.38.61-.68a.62.62,0,0,0-.34-.41c-1.37-.88-3.23-.9-5-.94a18.15,18.15,0,0,1-9-2.4c-.37-.23-.77.32-1.24.39a4.49,4.49,0,0,0-1.67.61,2.26,2.26,0,0,0-.57.47,1.83,1.83,0,0,0-.38.84,3.58,3.58,0,0,0,.24,1h0a19.86,19.86,0,0,0,7.44,12.19A6.52,6.52,0,0,0,35,77c.67.24,2,.35,2.31-.05l.1-.17.7.31A3.47,3.47,0,0,0,39.27,77.38Z"/></g><path class="cls-1" d="M35.42,65.2a15.33,15.33,0,0,0,6,.4,7.86,7.86,0,0,0,1.48-.42,2.77,2.77,0,0,0,.73-.38,1,1,0,0,0,.31-.4.65.65,0,0,0-.09-.6,2.07,2.07,0,0,0-.7-.51,5,5,0,0,0-.73-.3,7.63,7.63,0,0,0-1.51-.32c-1-.12-2-.11-3-.13A23.62,23.62,0,0,1,35,62.26a15.73,15.73,0,0,1-5.58-1.91l-.05.08a16.52,16.52,0,0,0,5.56,2.2,20.07,20.07,0,0,0,3,.39c1,.05,2,0,3,.17a7.11,7.11,0,0,1,1.4.31,4.5,4.5,0,0,1,.65.28,1.94,1.94,0,0,1,.52.34.1.1,0,0,1,0,.11.45.45,0,0,1-.14.18,2.32,2.32,0,0,1-.59.31,7.36,7.36,0,0,1-1.38.42,21.55,21.55,0,0,1-5.88-.05Z"/><path class="cls-1" d="M35.34,65.17a7.2,7.2,0,0,0,1,1.75,15.88,15.88,0,0,0,1.34,1.53,16.25,16.25,0,0,0,1.59,1.26l1.63,1.18,3.27,2.36c1.08.79,2.2,1.55,3.21,2.4a2.37,2.37,0,0,1,.62.67.43.43,0,0,1-.19.6,2.33,2.33,0,0,1-1.78.21,14.08,14.08,0,0,1-3.64-1.52A70.77,70.77,0,0,1,35.89,71a18.79,18.79,0,0,0,3,2.76A33.16,33.16,0,0,0,42.21,76,14.46,14.46,0,0,0,46,77.56a2.74,2.74,0,0,0,2.11-.27,1,1,0,0,0,.4-.49.87.87,0,0,0-.06-.65,2.71,2.71,0,0,0-.73-.81c-1-.88-2.17-1.61-3.26-2.4l-3.29-2.33L39.5,69.45a16,16,0,0,1-1.59-1.21,15.69,15.69,0,0,1-1.34-1.47,7,7,0,0,1-1.05-1.67Z"/><path class="cls-1" d="M43.71,76.53a1.61,1.61,0,0,1-1.09.54,2.94,2.94,0,0,1-1.3-.21,19.46,19.46,0,0,1-2.57-1.25q-.62-.36-1.23-.76c-.41-.26-.81-.53-1.21-.81-.8-.55-1.59-1.11-2.41-1.65.7.68,1.42,1.33,2.18,1.95A21.89,21.89,0,0,0,38.48,76a15.52,15.52,0,0,0,2.64,1.34,3.26,3.26,0,0,0,1.56.23,2,2,0,0,0,1.42-.79Z"/><path class="cls-1" d="M40.28,76.78a1.34,1.34,0,0,1-.91.33,2.84,2.84,0,0,1-1.06-.25,18.9,18.9,0,0,1-2.13-1,18,18,0,0,1-2-1.3A20,20,0,0,1,32.38,73,11.62,11.62,0,0,0,34,74.8a13.63,13.63,0,0,0,1.94,1.47,14.44,14.44,0,0,0,2.18,1.11,3.19,3.19,0,0,0,1.27.28,1.77,1.77,0,0,0,1.26-.54Z"/><path class="cls-1" d="M37.34,77.2a.57.57,0,0,0,.14-.15l-.42-.27c-.13.21-1.28.22-2,0a6.28,6.28,0,0,1-1.71-1A19.54,19.54,0,0,1,26,63.57l-.49.08A20,20,0,0,0,33,76.12a6.72,6.72,0,0,0,1.84,1.09A3.52,3.52,0,0,0,37.34,77.2Z"/><path class="cls-1" d="M25.45,64.69,1.65,36.51l3.45-2.6L2.43,30.38a4.32,4.32,0,0,1,6,.85l22.24,29.5Z"/><path class="cls-1" d="M1.39,36.58,25.26,64.85l.15.18.19-.14,5.26-4,.2-.15-.15-.2L25,52.64l-5.94-7.91-6-7.88-3-3.94c-.51-.66-1-1.31-1.51-2a3.5,3.5,0,0,0-2.21-1.23,5.83,5.83,0,0,1,1.8,1.56c.47.66,1,1.32,1.47,2l3,4,5.93,7.91,6,7.89,6,7.85,0-.35-5.26,4,.34,0L1.77,36.27Z"/><rect class="cls-1" x="23.02" y="60.43" width="6.71" height="0.25" transform="translate(-31.14 28.08) rotate(-37.01)"/></g></g></svg>