<svg xmlns="http://www.w3.org/2000/svg" viewBox="0 0 13.28 67.56"><defs><style>.cls-1{fill:#0b132b;}</style></defs><title>Asset 17</title><g id="Layer_2" data-name="Layer 2"><g id="Layer_1-2" data-name="Layer 1"><path class="cls-1" d="M1.41,67.23.25,10.44C.14,4.82,2.64.25,5.85.25h0c3.21,0,5.9,4.55,6,10.17L13,67.55"/><path class="cls-1" d="M13.28,67.55,12.11,10.41C12,4.66,9.18,0,5.85,0a4.27,4.27,0,0,0-3,1.41C1,3.27-.07,6.73,0,10.45L1.16,67.24h.49L.5,10.44c-.07-3.59,1-6.91,2.68-8.68A3.78,3.78,0,0,1,5.85.49c3.07,0,5.65,4.45,5.77,9.93l1.17,57.14Z"/></g></g></svg>