<svg xmlns="http://www.w3.org/2000/svg" viewBox="0 0 20.36 7.81"><defs><style>.cls-1{fill:#0b132b;}</style></defs><title>Asset 15</title><g id="Layer_2" data-name="Layer 2"><g id="Layer_1-2" data-name="Layer 1"><path class="cls-1" d="M.47,0A23.17,23.17,0,0,0,5.28,1.93a21.87,21.87,0,0,0,5.13.77,21.41,21.41,0,0,0,5.19-.46A10.87,10.87,0,0,0,20.36.12a9.71,9.71,0,0,1-4.59,2.75,19.72,19.72,0,0,1-5.37.8A20.25,20.25,0,0,1,5,3,18.62,18.62,0,0,1,0,.8Z"/><path class="cls-1" d="M7,6.81A21.36,21.36,0,0,0,10.81,7a28,28,0,0,0,3.79-.56A6.12,6.12,0,0,1,10.85,7.8,6.5,6.5,0,0,1,7,6.81Z"/></g></g></svg>