<svg xmlns="http://www.w3.org/2000/svg" viewBox="0 0 29.24 43.65"><defs><style>.cls-1{fill:#f8ffff;}</style></defs><title>Asset 9</title><g id="Layer_2" data-name="Layer 2"><g id="Layer_1-2" data-name="Layer 1"><path class="cls-1" d="M24.29,40.54c-1.52-3.4-.06-7.34,1.58-10.68s3.51-6.95,2.77-10.6c-1.46.72-2.27,2.29-3,3.75l-2.06,4.23c-.23.47-.64,1-1.14.85a1.06,1.06,0,0,1-.55-.75A26.58,26.58,0,0,1,21,20.55c-.3-6.2-.9-12.51-3.36-18.2-.35-.81-1.19-1.76-1.93-1.28a62.76,62.76,0,0,1,1,18.57c-1.33-3.09-1.93-6.53-2.84-9.77a22,22,0,0,0-4.39-9c-.27-.3-.71-.6-1-.35s-.2.56-.14.86L12.31,20c-.94-2.39-1.89-4-2.83-6.4A43.26,43.26,0,0,0,5,4.42c-.7.2-.69,1.2-.51,1.91A100.11,100.11,0,0,0,9.38,21.14C7.21,17.46,4.95,13.8,2.46,10.33c-.48-.67-1.33-1.42-2-1,.17,4.27,3.21,7.79,5.22,11.56C9.45,28,9.79,36.74,14.33,43.4"/><path class="cls-1" d="M8.53,0a.86.86,0,0,0-.28.15,1.27,1.27,0,0,0-.3,1.3L11,16c-.38-.81-.76-1.65-1.14-2.61A43.63,43.63,0,0,0,5.38,4.17L5.2,3.91,4.9,4h0c-.81.24-1.11,1.17-.81,2.43A100.9,100.9,0,0,0,7.14,16.58C5.62,14.15,4.21,12,2.82,10.07,2,8.92,1,8.5.2,9L0,9.15v.24c.13,3.27,1.87,6.1,3.56,8.84.58.95,1.19,1.93,1.71,2.91A51.77,51.77,0,0,1,9,31.27c1.22,4.25,2.48,8.65,5,12.38l.73-.49C12.23,39.54,11,35.21,9.8,31a52.46,52.46,0,0,0-3.74-10.3c-.53-1-1.14-2-1.74-3C2.75,15.22,1.13,12.58.91,9.67c.39,0,.91.5,1.2.91C4.25,13.59,6.45,17,9,21.36L9.79,21A100,100,0,0,1,4.93,6.22a2.15,2.15,0,0,1,0-1.17,45.12,45.12,0,0,1,4.15,8.7C9.55,15,10,16,10.5,17s.94,2,1.4,3.17l.84-.25L8.81,1.3c-.07-.34,0-.42,0-.42a.89.89,0,0,1,.43.3c2.34,2.6,3.53,6.08,4.3,8.82.27,1,.52,2,.77,3a44.51,44.51,0,0,0,2.09,6.85l.68,1.59.16-1.72a63,63,0,0,0-1-18.29h0a2.06,2.06,0,0,1,1,1.12c2.29,5.3,3,11,3.32,18l0,.34a25.61,25.61,0,0,0,.89,6.56,1.44,1.44,0,0,0,.82,1c.62.21,1.24-.19,1.67-1.08L26,23.21A8.36,8.36,0,0,1,28.3,20c.38,3.14-1.15,6.26-2.63,9.29l-.2.41c-1.59,3.25-3.2,7.43-1.58,11.05l.8-.36c-1.47-3.29.07-7.24,1.57-10.31l.2-.41c1.57-3.2,3.34-6.82,2.6-10.47l-.11-.56-.51.25c-1.66.82-2.54,2.63-3.19,4L23.2,27c-.2.4-.46.68-.6.63s-.18-.19-.27-.47a25,25,0,0,1-.85-6.34l0-.34c-.34-7.1-1.05-12.94-3.4-18.36A2.9,2.9,0,0,0,16.53.56a1.21,1.21,0,0,0-1,.14l-.25.16.06.3a62.15,62.15,0,0,1,1.19,16.5c-.54-1.6-1-3.27-1.36-4.9-.25-1-.5-2-.78-3-.8-2.83-2-6.44-4.49-9.17A1.36,1.36,0,0,0,8.53,0Z"/></g></g></svg>