<svg xmlns="http://www.w3.org/2000/svg" viewBox="0 0 21.61 25.12"><defs><style>.cls-1{fill:#f8fcfe;}.cls-2{fill:#010101;}</style></defs><title>Asset 1</title><g id="Layer_2" data-name="Layer 2"><g id="Layer_1-2" data-name="Layer 1"><path class="cls-1" d="M14.68,0H9.09L2.51,5.83.85,9.19a8.12,8.12,0,0,0,0,3.89l1-.19.34.21L.8,21.23l.45,3.53H2.64l1.66-1.53L5,22.39l.33.88,1.94.46,2.12-1,1.44-1.35.34-.45.85.87,1.51-.22,1.44-1.06.63-1.29.38.11,0,.69,1.53.13,1.23-.94,1.22-3.09,1.47-5.38V5.89L19.91,3,17.38.64"/><path class="cls-2" d="M16.87.94A13.46,13.46,0,0,1,19,2.9,10.14,10.14,0,0,1,20.55,5a7.63,7.63,0,0,1,.53,2.76,17,17,0,0,1-.22,3c-.15,1-.36,2.06-.57,3.1l-.16.77c-.06.23-.14.49-.21.74-.16.5-.33,1-.53,1.49a13.65,13.65,0,0,1-.64,1.43,4.42,4.42,0,0,1-.39.62,3.58,3.58,0,0,1-.52.47,1.77,1.77,0,0,1-1.14.45A.71.71,0,0,1,16,19.2h0l0-.55-.33.43a6.55,6.55,0,0,1-2.24,2.06,1.68,1.68,0,0,1-2.23-.47L11,20.39l-.21.3A6.48,6.48,0,0,1,8,23a3,3,0,0,1-1.57.24,1.26,1.26,0,0,1-1.1-.82h0l-.14-.33L5,22.39a7.25,7.25,0,0,1-1.62,1.69,1.33,1.33,0,0,1-1.67,0A2.34,2.34,0,0,1,1,22.31c0-.75.14-1.59.22-2.41.19-1.65.4-3.3.73-4.93s.73-3.23,1.17-4.9A15.06,15.06,0,0,0,1.33,14.9c-.36,1.68-.58,3.35-.79,5a18.35,18.35,0,0,0-.21,2.54,3,3,0,0,0,.92,2.3,1.85,1.85,0,0,0,2.33-.12,7.37,7.37,0,0,0,1.72-2l-.37,0h0a1.62,1.62,0,0,0,1.4,1.09,3.43,3.43,0,0,0,1.78-.27,7,7,0,0,0,3-2.5l-.36,0a1.65,1.65,0,0,0,1.21.85,2.59,2.59,0,0,0,1.51-.22,7.08,7.08,0,0,0,2.45-2.23l-.38-.12h0a1.07,1.07,0,0,0,.34.8,1.18,1.18,0,0,0,.68.3,2.21,2.21,0,0,0,1.45-.55,4,4,0,0,0,.62-.56,5,5,0,0,0,.47-.72,14.31,14.31,0,0,0,.68-1.5q.3-.76.55-1.54c.08-.26.16-.51.23-.8l.16-.79c.21-1,.43-2.08.59-3.13A11.75,11.75,0,0,0,21,4.62a10.53,10.53,0,0,0-1.64-2.22,10.85,10.85,0,0,0-2-1.77Z"/><path class="cls-2" d="M1.12,13.18a1.53,1.53,0,0,0,1.09-.09L2,12.39a.94.94,0,0,1-.84,0,1,1,0,0,1-.51-.69,2.78,2.78,0,0,1,.14-1.28A11.69,11.69,0,0,1,2,7.76,16.91,16.91,0,0,1,6.17,3c.46-.36.94-.69,1.41-1S8.91.82,9.51.32L9.09,0C8.52.47,7.91.89,7.32,1.3s-1,.67-1.45,1A17.82,17.82,0,0,0,1.47,7.41,12.65,12.65,0,0,0,.21,10.26,3.74,3.74,0,0,0,0,12a1.6,1.6,0,0,0,.81,1.11Z"/></g></g></svg>