<svg xmlns="http://www.w3.org/2000/svg" viewBox="0 0 17.57 51.62"><defs><style>.cls-1{fill:#fcfcfc;}.cls-2{fill:#fff;}</style></defs><title>Asset 23</title><g id="Layer_2" data-name="Layer 2"><g id="Layer_1-2" data-name="Layer 1"><path class="cls-1" d="M16.71,23.95l-.05-.57c-.14-1.52-.3-3.58-.38-4.65-.15-2-1.16-3.07-2.35-4.27A17,17,0,0,1,9.45,6.63L3.11,1c-2.79,5-3.6,16.54-2,20.88,1.4,3.72,3.63,6.94,6.46,8.51A8.24,8.24,0,0,0,9.09,31L6,36.56c-.27.48-.55,1-.81,1.46h0A19.27,19.27,0,0,0,3,43.5c-.5,2.59-.1,5.68,1.48,7.31a1.07,1.07,0,0,0,.79.41c.62-.06.88-1,1.06-1.84a19.85,19.85,0,0,1,3.89-7.61,62.46,62.46,0,0,0,4.89-6.63,14.92,14.92,0,0,0,2.12-8.61A12.87,12.87,0,0,0,16.71,23.95Z"/><path class="cls-2" d="M7.6,30.36A8.15,8.15,0,0,0,5.15,38c.27-.49.54-1,.81-1.46L9.09,31a8.24,8.24,0,0,1-1.49-.66Z"/><path d="M0,16.08A17.3,17.3,0,0,0,.86,22c1.54,4.1,3.89,7.19,6.62,8.71a8.51,8.51,0,0,0,1.08.52L5.71,36.31c-.27.48-.55,1-.82,1.47l.52.5c.26-.49.54-1,.81-1.45l3.13-5.56.29-.51-.47-.16A8,8,0,0,1,7.73,30c-2.6-1.44-4.83-4.39-6.3-8.31-1.3-3.47-.7-8.81-.26-12.71.09-.83.18-1.6.24-2.26A23.12,23.12,0,0,1,3.24,1.42l.43-1L3.11,0,2.69,1A23,23,0,0,0,.77,6.58C.72,7.23.63,8,.54,8.81A65.73,65.73,0,0,0,0,16.08Z"/><path d="M15.55,20.9a24.12,24.12,0,0,1,1.44,6,13.66,13.66,0,0,1-1.16,6c-1.57,3.69-4.25,6.25-6.52,9.37a20.68,20.68,0,0,0-2.88,5.37c-.18.51-.32,1-.45,1.57a4,4,0,0,1-.44,1.26.41.41,0,0,1-.29.21.5.5,0,0,1-.36-.14,3.71,3.71,0,0,1-.79-1,9,9,0,0,1-.81-5.75,18.33,18.33,0,0,1,2.1-5.58l-.52-.5a19.19,19.19,0,0,0-2.25,5.88,10.06,10.06,0,0,0,.91,6.56,4.5,4.5,0,0,0,1,1.2,1.08,1.08,0,0,0,.79.27,1.11,1.11,0,0,0,.76-.51,4.92,4.92,0,0,0,.6-1.64c.12-.5.25-1,.41-1.45A19.7,19.7,0,0,1,9.84,42.9c1.1-1.54,2.31-3,3.47-4.5a23.24,23.24,0,0,0,3.07-5.14,14.7,14.7,0,0,0,1.18-6.41A12.36,12.36,0,0,0,15.55,20.9Z"/><path d="M4.65,36.38a8,8,0,0,0,.19,1.77L5.13,38h.33V37.9a7.69,7.69,0,0,1,2.32-7.18L7.44,30A8.47,8.47,0,0,0,4.65,36.38Z"/><path d="M9.37,6.56a18.6,18.6,0,0,0,4.36,8.23c1.26,1.26,2.1,2.22,2.23,4,.08,1.07.24,3.14.38,4.66l.65.77c-.14-1.51-.32-4.44-.4-5.51a6.8,6.8,0,0,0-2.48-4.57A16.68,16.68,0,0,1,9.75,6.48Z"/></g></g></svg>