<svg xmlns="http://www.w3.org/2000/svg" viewBox="0 0 9.56 22.41"><defs><style>.cls-1{fill:#0b132b;}.cls-2{fill:#5bc0be;}</style></defs><title>Asset 10</title><g id="Layer_2" data-name="Layer 2"><g id="Layer_1-2" data-name="Layer 1"><path class="cls-1" d="M6.78,16a10,10,0,0,1-2.54-4.52A33.44,33.44,0,0,1,2.67,0l.44,0A33,33,0,0,0,4.66,11.39a9.63,9.63,0,0,0,2.42,4.33Z"/><path class="cls-2" d="M9.55,19.47c.07.36-2.12,1.37-4.77,1.87s-4.71.77-4.78.41,1.88-1.2,4.53-1.7S9.49,19.11,9.55,19.47Z"/><path class="cls-1" d="M0,21.83c.86-.05,1.69-.11,2.5-.22a21.2,21.2,0,0,0,2.39-.47c.78-.22,1.55-.46,2.31-.75s1.52-.6,2.35-.9a6.41,6.41,0,0,1-2,1.73,8.53,8.53,0,0,1-2.45.95,9.2,9.2,0,0,1-2.61.23A7.49,7.49,0,0,1,0,21.83Z"/></g></g></svg>