<svg xmlns="http://www.w3.org/2000/svg" viewBox="0 0 24.56 8.24"><defs><style>.cls-1{fill:#0b132b;}.cls-2{fill:#f8ffff;}</style></defs><title>Asset 11</title><g id="Layer_2" data-name="Layer 2"><g id="Layer_1-2" data-name="Layer 1"><path class="cls-1" d="M20.67.34c1,.15,2.92.72,3.84.46l-.43.06c-.17.06-.22.11-.39.17-.36.14-.87-.14-1.23,0C15.87,3.31,7.39,4.87.22,4.13,0,4.11,1.58,3.51,2,3.37c.74-.24,1.53-.46,2.24-.75,1-.44,2-1,3.06-1.44A5.13,5.13,0,0,1,10.83,1a8,8,0,0,1,1,.54c.44.22.46.19.85-.05A8.86,8.86,0,0,1,14.64.53,9.91,9.91,0,0,1,19.17.09C19.68.15,20.17.26,20.67.34Z"/><path class="cls-2" d="M.22,4.13A83.22,83.22,0,0,0,10.89,7.3,4,4,0,0,0,13.67,7C16.92,5.33,21.08,3.46,24,1,16.18,1.63,7.92,2.33.22,4.13Z"/><path class="cls-1" d="M.44,4.15a.93.93,0,0,0,.34-.06H.89l.2,0,.78.2,1.56.39,3.13.74,3.14.72,1.53.35a3.48,3.48,0,0,0,1.28,0A5,5,0,0,0,13.81,6c.49-.24,1-.48,1.46-.7l2.91-1.37A46.35,46.35,0,0,0,23.81.87h0l.16.39c-4,.3-8,.63-11.92,1.1-2,.24-4,.51-5.92.83q-1.47.25-2.94.53L1.73,4A6.76,6.76,0,0,1,.44,4.15ZM0,4.12a10.16,10.16,0,0,1,1.63-.52l1.47-.3q1.47-.29,3-.53c2-.33,4-.6,5.94-.84,4-.47,8-.8,11.94-1.1l.62,0-.46.43h0a24.25,24.25,0,0,1-5.26,3.93c-.94.56-1.9,1.06-2.86,1.57l-1.44.74a6.53,6.53,0,0,1-1.68.69,4.67,4.67,0,0,1-1.93,0c-.6-.14-1.07-.27-1.61-.4-1-.29-2.09-.58-3.12-.92s-2.06-.7-3.08-1.1c-.5-.21-1-.42-1.5-.65L.86,4.72.68,4.63.41,4.47A3.53,3.53,0,0,1,0,4.12Z"/></g></g></svg>