<svg xmlns="http://www.w3.org/2000/svg" viewBox="0 0 85.49 93.79"><defs><style>.cls-1{fill:#0b132b;}.cls-2{fill:#f8ffff;}.cls-3{fill:#b8f0f4;}</style></defs><title>Asset 13</title><g id="Layer_2" data-name="Layer 2"><g id="Layer_1-2" data-name="Layer 1"><path class="cls-1" d="M24.47,6.72C22,8.5,20.06,9.42,18.31,11,12.94,16,9.48,21.81,6.62,34c-.67,2.86,2.47,8.44,3.4,11.24,1.58,4.78-1.65,9.62-4.3,13.39-.35.5-5,3.88-4.8,4.46.43,1.3,2.6,1.14,3.63,2S7.09,64.44,8,67.94C8.24,69,11,71.78,16,73.56c.61.22,2,4.54,7.95,3.62,1.07-.71-.36-5.29-.47-6.57a148.63,148.63,0,0,1-.12-21.29,6.66,6.66,0,0,1,.51-2c.36-.9-.19-1.06.78-1.19,3.79-.54,3.79.83,12.36-3.13a31.57,31.57,0,0,0,5.79-3.59c.44-.34-4.08,1.14,2.24.91,1.57-.06,3.87-.43,4.57-.48,4.06-.28,8.52-3.24,11.19-6.32a24.59,24.59,0,0,0,4.08-6.43,11.26,11.26,0,0,0,.65-3c.21,1.17.43,2.91.52,3.54,1,6.85.52,2.55,2.23,9.81.2.84,2.67,5.61,2.93,6.43s3,3.88,2.93,4.6a61.19,61.19,0,0,0,.35,7c.07.74.32-1.27,1-1s4.49-.32,4.86-1c5.9-10.85,4.85-18,4.21-23.75S82.45,24.15,80,19.24c-.57-1.15-1.4-1.63-2.2-2.63C75.33,13.47,71,11.36,67,10.37c-1-.25.94.25-.48-1.37-.18-.21.32-.45-2.68-3.14-2.3-2.07-4.68-2.58-7.47-3.66-.95-.37-6-1.35-7.12-1.6S44.88.76,43.74.34L33.59,2.15Z"/><path class="cls-2" d="M76.95,53.32a1.88,1.88,0,0,0-.39.08Zm3.7,5.43a12,12,0,0,0-.48-2.24A12,12,0,0,1,80.64,58.75Zm.11,1.15c0-.38-.06-.76-.11-1.14C80.7,59.14,80.73,59.52,80.76,59.9Zm-2.2-8.15a2.81,2.81,0,0,1,.54.38l.24.24.22.25c.14.17.28.34.41.53s.25.37.38.56.18.31.26.47l.05.1,0,0q.16.3.29.61a1.57,1.57,0,0,1,.11.28,4,4,0,0,1,.22.54c0,.08.06.16.09.25a4.89,4.89,0,0,1,.16.51,1.64,1.64,0,0,1,.06.19c.08.28.15.55.21.83a14.46,14.46,0,0,1,.33,4.08c0,.28,0,.55-.08.83A10.35,10.35,0,0,1,80.4,67a7.36,7.36,0,0,1-.84,1,2.14,2.14,0,0,1-.25.24,4.59,4.59,0,0,1-.76.61,5.21,5.21,0,0,1-4.29.6h-.08l.05-.64,0-.33c.05-.61.1-1.23.12-1.84s.08-1.38.11-2.07,0-1.39.05-2.08c0-2.19,0-4.4-.05-6.59,0-1-.07-2-.11-3a7.23,7.23,0,0,1,1.7-1.14A3.13,3.13,0,0,1,78,51.54,2.06,2.06,0,0,1,78.55,51.75ZM79,66.87a2.68,2.68,0,0,0,.28-.33Zm.79-11.42a5,5,0,0,0-.92-1.36,2.81,2.81,0,0,0-.24-.22,2.68,2.68,0,0,0-.54-.35,2,2,0,0,0-.9-.21,2.18,2.18,0,0,1,.9.22,2.64,2.64,0,0,1,.54.34l.24.22a4.87,4.87,0,0,1,.91,1.36,9.08,9.08,0,0,1,.42,1.05A7.7,7.7,0,0,0,79.75,55.45Z"/><path class="cls-2" d="M20.69,53.4a1.88,1.88,0,0,0-.39-.08h0Zm-.59-.09a2,2,0,0,0-.9.21,2.68,2.68,0,0,0-.54.35,2.81,2.81,0,0,0-.24.22l.24-.22a2.64,2.64,0,0,1,.54-.34A2,2,0,0,1,20.1,53.31Zm-3.61,6.55c0-.34.06-.69.11-1C16.55,59.16,16.52,59.51,16.49,59.86Zm.44-2.8a12.35,12.35,0,0,0-.32,1.62A14,14,0,0,1,16.93,57.06Zm.53-4.45.23-.25.24-.24a2.81,2.81,0,0,1,.54-.38,2.18,2.18,0,0,1,.54-.21,3.19,3.19,0,0,1,1.95.25l.29.14a5.84,5.84,0,0,1,.55.34c.27.18.53.39.78.6h0l.49.43h0a.15.15,0,0,0,.07.06c0,.22,0,.44,0,.67,0,1-.09,2.05-.11,3.09-.07,2.21-.09,4.43,0,6.65,0,1,.06,1.93.11,2.89q0,.65.08,1.29c0,.47.06.93.11,1.39a4.62,4.62,0,0,1-.49.17,5.52,5.52,0,0,1-1,.2,5.14,5.14,0,0,1-3.31-.79c-.18-.12-.36-.25-.54-.39l-.48-.46a8,8,0,0,1-.84-1,10,10,0,0,1-1.35-3,13.36,13.36,0,0,1-.33-4.94,13.94,13.94,0,0,1,.27-1.61c.1-.45.22-.89.36-1.33A13.08,13.08,0,0,1,16,54.89a6.47,6.47,0,0,1,.3-.61,10,10,0,0,1,.7-1.15C17.18,52.95,17.32,52.77,17.46,52.61Z"/><path class="cls-1" d="M75.76,70.16a6,6,0,0,1-1.64-.23l.24-.84a4.77,4.77,0,0,0,3.93-.54A6.39,6.39,0,0,0,80,66.77a11.82,11.82,0,0,0,1.35-9.19,10.77,10.77,0,0,0-2.17-4.69,3.06,3.06,0,0,0-.87-.76,2.43,2.43,0,0,0-2.11.05,7.06,7.06,0,0,0-1.63,1.1L74,52.62a7.82,7.82,0,0,1,1.84-1.23,3.29,3.29,0,0,1,2.88,0,3.86,3.86,0,0,1,1.13,1,11.63,11.63,0,0,1,2.35,5.06,12.69,12.69,0,0,1-1.48,9.88,7.25,7.25,0,0,1-2,2A5.48,5.48,0,0,1,75.76,70.16Z"/><path class="cls-1" d="M21.26,70.15a5.54,5.54,0,0,1-3-.88,7.24,7.24,0,0,1-2-2,12.69,12.69,0,0,1-1.48-9.88,11.63,11.63,0,0,1,2.35-5.06,4,4,0,0,1,1.13-1,3.29,3.29,0,0,1,2.88,0A9.29,9.29,0,0,1,23.37,53l-.18.42-.29.33.29-.33-.34.29a8.86,8.86,0,0,0-2.07-1.48,2.42,2.42,0,0,0-2.11-.05,3.05,3.05,0,0,0-.87.76,10.77,10.77,0,0,0-2.17,4.69A11.82,11.82,0,0,0,17,66.77a6.39,6.39,0,0,0,1.74,1.77,4.89,4.89,0,0,0,4.45.36l.33.81A6,6,0,0,1,21.26,70.15Z"/><path class="cls-1" d="M7,65.47a9.17,9.17,0,0,0,2.15,3.38,14.37,14.37,0,0,0,3,2.72A11.19,11.19,0,0,0,16,73.06a19.14,19.14,0,0,0,4.13.38,10.93,10.93,0,0,1-8.28-1.28,13.67,13.67,0,0,1-3.24-2.82A9.17,9.17,0,0,1,6.4,65.62Z"/><path class="cls-1" d="M23,77.56a10.81,10.81,0,0,1-1.81-.17,9,9,0,0,1-4.64-2.22,2.89,2.89,0,0,1-.92-1.39.52.52,0,0,1,0-.22h.66v.12a2.35,2.35,0,0,0,.72,1,8.37,8.37,0,0,0,4.3,2,8.68,8.68,0,0,0,3.12,0l.1.65A9.46,9.46,0,0,1,23,77.56Z"/><path class="cls-1" d="M11.09,65.31A8.82,8.82,0,0,1,8.38,66a10.54,10.54,0,0,1-2.84-.15,9.81,9.81,0,0,1-2.68-1A21.14,21.14,0,0,1,.51,63.3h0L0,63l.51-.33a24.23,24.23,0,0,0,4-3.37,21.31,21.31,0,0,0,3.18-4.14,15.17,15.17,0,0,0,1.83-4.83,12.59,12.59,0,0,0-.06-5.11l.07.16a20.09,20.09,0,0,1-2.48-5.4A19.75,19.75,0,0,1,6.36,34a28.7,28.7,0,0,1,.85-5.85,32.33,32.33,0,0,1,1.9-5.59A39,39,0,0,1,24.8,5.44,38.71,38.71,0,0,1,47.34.1,35.58,35.58,0,0,1,58.7,2.74,29,29,0,0,1,63.88,5.5a8.3,8.3,0,0,1,3.42,4.79l-.23-.22a22,22,0,0,1,11.27,6.64,26.36,26.36,0,0,1,6.18,11.57,32.45,32.45,0,0,1,.56,13.13,30.82,30.82,0,0,1-1.63,6.4,29.59,29.59,0,0,1-3.05,5.84l-.31-.19A35.31,35.31,0,0,0,84.4,41.3a31.34,31.34,0,0,0-.5-12.87,25.75,25.75,0,0,0-6-11.31,21.18,21.18,0,0,0-11-6.46l-.19,0,0-.18A7.69,7.69,0,0,0,63.52,6a28.49,28.49,0,0,0-5.06-2.68A34.94,34.94,0,0,0,47.3.75,34.23,34.23,0,0,0,35.93,2,43.67,43.67,0,0,0,25.45,6.53,37.76,37.76,0,0,0,10.19,23.07a31.26,31.26,0,0,0-2.71,11,18.65,18.65,0,0,0,.61,5.58,19,19,0,0,0,2.3,5.13l.05.08,0,.08a13.58,13.58,0,0,1,0,5.52,16.12,16.12,0,0,1-2,5.11,22.2,22.2,0,0,1-3.36,4.29A24.3,24.3,0,0,1,.95,63.3v-.68H1c.78.49,1.54,1,2.32,1.43a10.73,10.73,0,0,0,2.43,1A12.63,12.63,0,0,0,11.09,65.31Z"/><path class="cls-3" d="M41.91,5A22.37,22.37,0,0,0,31.62,7.48,36,36,0,0,0,23,13.69,40.2,40.2,0,0,0,16.38,22a41.48,41.48,0,0,0-4.26,9.8,36.83,36.83,0,0,1,3.91-10,38.18,38.18,0,0,1,6.62-8.49,34.43,34.43,0,0,1,8.81-6.18A21.35,21.35,0,0,1,41.91,5Z"/><path class="cls-3" d="M37.75,10A31.48,31.48,0,0,0,15.13,28.81a25.57,25.57,0,0,1,3.41-6.91,28.67,28.67,0,0,1,11.8-9.79A25.7,25.7,0,0,1,37.75,10Z"/><path class="cls-1" d="M21.42,54a1.76,1.76,0,0,0-2.22-.29,3.92,3.92,0,0,0-1.52,1.9,13.68,13.68,0,0,0-1,5,9.79,9.79,0,0,0,.95,4.93,4,4,0,0,0,1.6,1.83,3.36,3.36,0,0,0,2.43.1l.06.23a3.66,3.66,0,0,1-2.66,0,4.43,4.43,0,0,1-1.85-2,10,10,0,0,1-1.06-5.17,13.55,13.55,0,0,1,1.09-5.16,4.29,4.29,0,0,1,1.77-2,2,2,0,0,1,2.52.49Z"/><path class="cls-1" d="M24.69,46.39A7.93,7.93,0,0,0,24,48.07a7.82,7.82,0,0,0-.25,1.8l-.16,3.79c0,1.26-.12,2.53-.14,3.79v3.79c-.07,2.53.18,5,.32,7.56a54.84,54.84,0,0,0,1,7.48,16.84,16.84,0,0,0,3.52,6.38,28.28,28.28,0,0,0,5.48,5A26.19,26.19,0,0,0,47.55,92.6a24.11,24.11,0,0,0,7.36-.76A27.65,27.65,0,0,0,61.75,89a29,29,0,0,0,5.88-4.56,22.76,22.76,0,0,0,4.34-6c.13-.28.23-.57.35-.85a7.45,7.45,0,0,0,.3-.81L73,74.89c.21-1.24.39-2.49.53-3.74.29-2.5.46-5,.54-7.54.18-5,0-10.11-.28-15.16h0l.06.18a43.54,43.54,0,0,1-3.48-5.78q-.76-1.5-1.42-3.05c-.39-1.05-.82-2.1-1.14-3.17a67.1,67.1,0,0,1-2.34-13.21h.08a66.88,66.88,0,0,0,2.61,13.1c.35,1.06.79,2.08,1.2,3.11s.95,2,1.47,3a43,43,0,0,0,3.55,5.62l.06.08v.1h0c.37,5.06.62,10.14.52,15.23-.06,2.54-.22,5.09-.5,7.63-.14,1.27-.32,2.53-.52,3.79l-.34,1.89a7.3,7.3,0,0,1-.35,1c-.12.3-.24.61-.37.91a23.75,23.75,0,0,1-4.5,6.29,30,30,0,0,1-6.07,4.77,28.75,28.75,0,0,1-7.11,3,24.64,24.64,0,0,1-7.7.83,27.31,27.31,0,0,1-14.41-5.18,29.33,29.33,0,0,1-5.66-5.25,17.6,17.6,0,0,1-3.69-6.85,55.74,55.74,0,0,1-.92-7.59c-.12-2.54-.35-5.09-.25-7.63l0-3.81c0-1.27.12-2.54.18-3.81l.2-3.8a8.51,8.51,0,0,1,.29-2A15.36,15.36,0,0,1,24,46Z"/><path class="cls-1" d="M75.69,53.9a2,2,0,0,1,2.52-.49,4.29,4.29,0,0,1,1.77,2,13.55,13.55,0,0,1,1.09,5.16A10,10,0,0,1,80,65.77a4.43,4.43,0,0,1-1.85,2,3.66,3.66,0,0,1-2.66,0l.06-.23a3.36,3.36,0,0,0,2.43-.1,4,4,0,0,0,1.6-1.83,9.79,9.79,0,0,0,.95-4.93,13.68,13.68,0,0,0-1-5A3.92,3.92,0,0,0,78,53.72a1.76,1.76,0,0,0-2.22.29Z"/></g></g></svg>