<svg xmlns="http://www.w3.org/2000/svg" viewBox="0 0 84.11 86.82"><defs><style>.cls-1{fill:#f8ffff;}.cls-2{fill:#3a506b;}.cls-3{fill:#0b132b;}</style></defs><title>Asset 7</title><g id="Layer_2" data-name="Layer 2"><g id="Layer_1-2" data-name="Layer 1"><path class="cls-1" d="M29.74,40.74v.1c-5.82-5.91-9.08-8.23-13.94-15.11C17.89,24.26,20,22.79,22,21.28c4.53-3.27,9-6.66,13.38-10.32a44.86,44.86,0,0,1,.19,6.51A34.57,34.57,0,0,1,35.24,21a52.55,52.55,0,0,0-5.16,3.14C30,28.6,29.88,34.36,29.74,40.74Z"/><path class="cls-2" d="M78.7,35.85c.62,15.39,2.44,27.48,4.92,42.3-4.24,1.61-8.39,3-12.58,4.27C66,83.92,61,85.19,55.67,86.28c-.47-12.63-1-30.62-1.31-45.35,5.87-6,9.14-8.29,14-15.2-2.08-1.47-4.16-2.93-6.23-4.42A99.9,99.9,0,0,1,74,23.25a6.2,6.2,0,0,1,2.69,1.06Z"/><path class="cls-2" d="M15.81,25.73c4.86,6.88,8.12,9.21,13.94,15.11-.34,14.75-.83,32.78-1.31,45.44-5.31-1.09-10.37-2.35-15.37-3.84C8.88,81.19,4.73,79.76.49,78.16,3,63.33,4.77,51.24,5.41,35.85l2-11.54a6.17,6.17,0,0,1,2.68-1.06,100.29,100.29,0,0,1,11.94-2C20,22.79,17.89,24.26,15.81,25.73Z"/><path class="cls-1" d="M62.17,21.3c2.07,1.49,4.15,3,6.23,4.42-4.9,6.92-8.16,9.23-14,15.2-.14-6.45-.25-12.28-.33-16.75A52.55,52.55,0,0,0,48.87,21a34.57,34.57,0,0,1-.39-3.55,43.54,43.54,0,0,1,.19-6.59C53.08,14.58,57.6,18,62.17,21.3Z"/><path class="cls-3" d="M48.83,11a39.24,39.24,0,0,0-.25,4.73,23.68,23.68,0,0,0,.16,2.67c.11.87.36,1.74.57,2.63l-.23-.34h0a53.09,53.09,0,0,1,5.2,3.16l.19.13v.23q.27,15.53.69,31.05c.27,10.35.57,20.7,1,31l-.53-.41h0c4.73-1,9.44-2.19,14.08-3.56,2.32-.69,4.63-1.4,6.93-2.16s4.58-1.57,6.86-2.38l-.28.48h0c-1.1-6.35-2.12-12.72-2.94-19.11q-.62-4.8-1.07-9.62c-.16-1.61-.25-3.22-.35-4.83s-.18-3.22-.2-4.83l.54,0,.43,4.81.46,4.8q.46,4.8,1.09,9.58C82,65.37,83,71.73,84,78.08h0l.06.35-.33.13c-2.26.91-4.54,1.75-6.85,2.53s-4.62,1.54-7,2.2c-4.68,1.34-9.42,2.5-14.2,3.41h0l-.51.1,0-.51c-.39-10.35-.68-20.7-1-31.06s-.51-20.71-.69-31.06l.19.35a52.21,52.21,0,0,0-5.12-3.11h0l-.24-.13v-.21c0-.89-.07-1.78-.1-2.7v-2.7a41.44,41.44,0,0,1,.27-5.38A31.19,31.19,0,0,1,49.64,5a25.31,25.31,0,0,1,2.12-5l.74.47a19.77,19.77,0,0,0-2.38,4.71,25.29,25.29,0,0,0-1.22,5.18q0,.3-.08.61"/><path class="cls-1" d="M29.68,41.25c-1.64-1.67-3.11-3.09-4.4-4.33a68.47,68.47,0,0,1-9.75-11l-.19-.27.27-.19c6-4.24,13-9.22,19.7-14.82l.42.5C29.14,16.67,22.24,21.6,16.26,25.8a68.16,68.16,0,0,0,9.48,10.64c1.3,1.25,2.77,2.67,4.41,4.35Z"/><path class="cls-3" d="M5.49,39.84c0,1.61-.1,3.22-.2,4.83s-.2,3.22-.35,4.83q-.45,4.82-1.07,9.62C3,65.52,2,71.89.92,78.23h0l-.28-.48c2.28.81,4.57,1.62,6.86,2.38s4.61,1.47,6.93,2.16c4.64,1.38,9.35,2.52,14.08,3.56h0l-.53.41c.39-10.34.68-20.7,1-31s.51-20.7.69-31.05v-.23l.19-.13A53.09,53.09,0,0,1,35,20.65h0L34.8,21c.2-.89.46-1.76.57-2.63a23.68,23.68,0,0,0,.16-2.67,38.76,38.76,0,0,0-.33-5.33A25.29,25.29,0,0,0,34,5.18,19.77,19.77,0,0,0,31.6.47L32.35,0a25.32,25.32,0,0,1,2.12,5,31.19,31.19,0,0,1,1.06,5.3,41.44,41.44,0,0,1,.27,5.38v2.7c0,.92-.13,1.81-.1,2.7v.21l-.24.13h0a52.21,52.21,0,0,0-5.12,3.11l.19-.35q-.27,15.53-.69,31.06c-.27,10.35-.57,20.71-1,31.06l0,.51-.51-.1h0c-4.78-.91-9.52-2.07-14.2-3.41-2.34-.66-4.66-1.41-7-2.2S2.59,79.49.33,78.57L0,78.44l.06-.35h0C1.08,71.73,2.12,65.38,3,59q.63-4.78,1.09-9.58l.46-4.8.43-4.81Z"/></g></g></svg>