<svg xmlns="http://www.w3.org/2000/svg" viewBox="0 0 16.71 76.26"><defs><style>.cls-1{fill:#3a506b;}</style></defs><title>Asset 1</title><g id="Layer_2" data-name="Layer 2"><g id="Layer_1-2" data-name="Layer 1"><g id="Layer_2-2" data-name="Layer 2"><g id="Layer_1-2-2" data-name="Layer 1-2"><path class="cls-1" d="M8.44,75.86h0A7.85,7.85,0,0,0,16.27,68L16.13,8.28A7.85,7.85,0,0,0,8.3.47h0A7.85,7.85,0,0,0,.46,8.32L.59,66.83V68A7.85,7.85,0,0,0,8.44,75.86Z"/><path class="cls-1" d="M13.17,74.81a8.23,8.23,0,0,1-4.75,1.45h0A8.29,8.29,0,0,1,.14,68L0,8.31a8.29,8.29,0,1,1,16.58,0L16.71,68a8.23,8.23,0,0,1-2.41,5.86A8.4,8.4,0,0,1,13.17,74.81ZM4.07,2.24a7.4,7.4,0,0,0-3.19,6L1,68a7.41,7.41,0,0,0,7.41,7.41h0A7.41,7.41,0,0,0,15.83,68L15.69,8.28a7.4,7.4,0,0,0-11.62-6Z"/></g></g></g></g></svg>