<svg xmlns="http://www.w3.org/2000/svg" viewBox="0 0 50.48 22.46"><defs><style>.cls-1{fill:#0b132b;}</style></defs><title>Asset 8</title><g id="Layer_2" data-name="Layer 2"><g id="Layer_1-2" data-name="Layer 1"><path class="cls-1" d="M6.59,22.46a2.57,2.57,0,0,1,.93-1.2A2.35,2.35,0,0,1,9,20.76,2.35,2.35,0,0,1,8,22,2.57,2.57,0,0,1,6.59,22.46Z"/><path class="cls-1" d="M9.23,22.46a2.57,2.57,0,0,1,.93-1.2,2.35,2.35,0,0,1,1.43-.5,2.35,2.35,0,0,1-.93,1.2A2.57,2.57,0,0,1,9.23,22.46Z"/><path class="cls-1" d="M44.06,22.46a2.57,2.57,0,0,1-1.43-.5,2.35,2.35,0,0,1-.93-1.2,2.35,2.35,0,0,1,1.43.5A2.57,2.57,0,0,1,44.06,22.46Z"/><path class="cls-1" d="M41.43,22.46A2.57,2.57,0,0,1,40,22a2.35,2.35,0,0,1-.93-1.2,2.35,2.35,0,0,1,1.43.5A2.57,2.57,0,0,1,41.43,22.46Z"/><path class="cls-1" d="M48.76,5.68l-.35-.06a4.39,4.39,0,0,0-1-2,8.18,8.18,0,0,0-1.89-1.57A12.83,12.83,0,0,0,41.08.28a13.13,13.13,0,0,0-9.29,1.45l.82,1.79a20.76,20.76,0,0,1,4-.77,17.3,17.3,0,0,1,4,.13,16.76,16.76,0,0,1,3.9,1.07,8.87,8.87,0,0,1,2.12,1.14,1,1,0,0,1,0,.13l-.12.48-.25,1-.52,1.92-1.08,3.86c.64-1.13,1.22-2.3,1.77-3.49.28-.6.53-1.21.79-1.82L47.25,7h.21l.47-.05a8.41,8.41,0,0,0,.88-.2c.29-.08.57-.18.85-.29a7.11,7.11,0,0,0,.82-.4C49.89,5.89,49.32,5.77,48.76,5.68Z"/><path class="cls-1" d="M9.4.28A12.83,12.83,0,0,0,5,2.05,8.18,8.18,0,0,0,3.08,3.62a4.39,4.39,0,0,0-1,2l-.35.06C1.17,5.77.59,5.89,0,6a7.11,7.11,0,0,0,.82.4c.28.11.56.21.85.29a8.41,8.41,0,0,0,.88.2L3,7h.42c.22.41.44.82.67,1.22.57,1,1.17,1.92,1.83,2.84L4.79,7.9,4.22,6.33,4,5.54l-.13-.39v0A8.77,8.77,0,0,1,6,3.94a16.76,16.76,0,0,1,3.9-1.07,17.3,17.3,0,0,1,4-.13,20.76,20.76,0,0,1,4,.77l.82-1.79A13.13,13.13,0,0,0,9.4.28Z"/></g></g></svg>