<svg xmlns="http://www.w3.org/2000/svg" viewBox="0 0 61.31 81.97"><defs><style>.cls-1{fill:#0b132b;}.cls-2{fill:#fcfcfc;}.cls-3{fill:#f8ffff;}</style></defs><title>Asset 7</title><g id="Layer_2" data-name="Layer 2"><g id="Layer_1-2" data-name="Layer 1"><path class="cls-1" d="M36.11,78.36a13.29,13.29,0,0,1-8,3.6,13.4,13.4,0,0,1-8.34-2.88,4.8,4.8,0,0,1-.3-1.82,3.2,3.2,0,0,1,1.34-2.1,7.91,7.91,0,0,1,2.32-1.07A20.07,20.07,0,0,1,29.37,73a11.71,11.71,0,0,1,6.08,1.61,1.46,1.46,0,0,1,.46.38,1.58,1.58,0,0,1,.19.47c.13.44.8.33.92.78-.14,0-.42,1.25-.56,1.26-.06.63-.49,1.95-.25-.77"/><path class="cls-2" d="M3.74,29.33C2,31.4,1.86,34.38,1.84,37.11L1.74,52A30.68,30.68,0,0,0,3,61.43c1.22,4,9.21,13.18,12.49,13.25s6.09,6,21.41.95c6.82-2.24,10.44-7.25,14.37-13.1,2.23-3.33,1.92-15.46,1.92-20,0-1.89-.1-3.5-.18-5.56-.11-2.49.34-3.19,1.52-5.39A15,15,0,0,0,56,25.91c.6-5.94-.34-12.18-3.53-17.22S43.69,0,37.72,0a24,24,0,0,0-9.94,2.68,103.12,103.12,0,0,0-14.53,8.76A31.89,31.89,0,0,0,6.58,17a30.78,30.78,0,0,0-4,7A40.74,40.74,0,0,0,0,30.57c-.18.67.21,1.76.79,1.38"/><path class="cls-3" d="M55.64,37.62a1.88,1.88,0,0,0-.39.08Zm3.7,5.43a12,12,0,0,0-.48-2.24A12,12,0,0,1,59.34,43.05Zm.11,1.15c0-.38-.06-.76-.11-1.14C59.39,43.44,59.42,43.83,59.45,44.2ZM57.25,36a2.81,2.81,0,0,1,.54.38l.24.24.22.25c.14.17.28.34.41.53s.25.37.38.56.18.31.26.47l.05.1,0,0q.16.3.29.61a1.57,1.57,0,0,1,.11.28A4,4,0,0,1,60,40c0,.08.06.16.09.25a4.89,4.89,0,0,1,.16.51,1.64,1.64,0,0,1,.06.19c.08.28.15.55.21.83a14.46,14.46,0,0,1,.33,4.08c0,.28,0,.55-.08.83a10.35,10.35,0,0,1-1.67,4.63,7.36,7.36,0,0,1-.84,1,2.14,2.14,0,0,1-.25.24,4.59,4.59,0,0,1-.76.61,5.21,5.21,0,0,1-4.29.6h-.08l.05-.64,0-.33c.05-.61.1-1.23.12-1.84s.08-1.38.11-2.07,0-1.39.05-2.08c0-2.19,0-4.4-.05-6.59,0-1-.07-2-.11-3a7.23,7.23,0,0,1,1.7-1.14,3.13,3.13,0,0,1,1.95-.25A2.06,2.06,0,0,1,57.25,36Zm.4,15.12a2.68,2.68,0,0,0,.28-.33Zm.79-11.42a5,5,0,0,0-.92-1.36,2.81,2.81,0,0,0-.24-.22,2.68,2.68,0,0,0-.54-.35,2,2,0,0,0-.9-.21,2.18,2.18,0,0,1,.9.22,2.64,2.64,0,0,1,.54.34l.24.22a4.87,4.87,0,0,1,.91,1.36,9.08,9.08,0,0,1,.42,1.05A7.7,7.7,0,0,0,58.44,39.75Z"/><path class="cls-1" d="M54.45,54.46a6,6,0,0,1-1.64-.23l.24-.84A4.77,4.77,0,0,0,57,52.85a6.39,6.39,0,0,0,1.74-1.77,11.82,11.82,0,0,0,1.35-9.19,10.77,10.77,0,0,0-2.17-4.69,3.06,3.06,0,0,0-.87-.76,2.43,2.43,0,0,0-2.11.05,7.06,7.06,0,0,0-1.63,1.1l-.57-.67a7.82,7.82,0,0,1,1.84-1.23,3.29,3.29,0,0,1,2.88,0,3.86,3.86,0,0,1,1.13,1,11.63,11.63,0,0,1,2.35,5.06,12.69,12.69,0,0,1-1.48,9.88,7.25,7.25,0,0,1-2,2A5.48,5.48,0,0,1,54.45,54.46Z"/><path class="cls-1" d="M3.38,30.69a7.93,7.93,0,0,0-.72,1.68,7.82,7.82,0,0,0-.25,1.8L2.25,38c0,1.26-.12,2.53-.14,3.79v3.79c-.07,2.53.18,5,.32,7.56a54.84,54.84,0,0,0,1,7.48A16.84,16.84,0,0,0,6.92,67a28.28,28.28,0,0,0,5.48,5,26.19,26.19,0,0,0,13.84,4.91,24.11,24.11,0,0,0,7.36-.76,27.65,27.65,0,0,0,6.84-2.89,29,29,0,0,0,5.88-4.56,22.76,22.76,0,0,0,4.34-6c.13-.28.23-.57.35-.85a7.45,7.45,0,0,0,.3-.81l.34-1.85c.21-1.24.39-2.49.53-3.74.29-2.5.46-5,.54-7.54.18-5,0-10.11-.28-15.16h0l.06.18A43.54,43.54,0,0,1,49,27.15q-.76-1.5-1.42-3.05c-.39-1.05-.82-2.1-1.14-3.17A67.1,67.1,0,0,1,44.14,7.72h.08a66.88,66.88,0,0,0,2.61,13.1c.35,1.06.79,2.08,1.2,3.11s.95,2,1.47,3a43,43,0,0,0,3.55,5.62l.06.08v.1h0c.37,5.06.62,10.14.52,15.23-.06,2.54-.22,5.09-.5,7.63-.14,1.27-.32,2.53-.52,3.79l-.34,1.89a7.3,7.3,0,0,1-.35,1c-.12.3-.24.61-.37.91a23.75,23.75,0,0,1-4.5,6.29A30,30,0,0,1,41,74.19a28.75,28.75,0,0,1-7.11,3,24.64,24.64,0,0,1-7.7.83,27.31,27.31,0,0,1-14.41-5.18,29.33,29.33,0,0,1-5.66-5.25,17.6,17.6,0,0,1-3.69-6.85,55.74,55.74,0,0,1-.92-7.59c-.12-2.54-.35-5.09-.25-7.63l0-3.81c0-1.27.12-2.54.18-3.81l.2-3.8a8.51,8.51,0,0,1,.29-2,15.36,15.36,0,0,1,.75-1.82Z"/><path class="cls-1" d="M54.39,38.2a2,2,0,0,1,2.52-.49,4.29,4.29,0,0,1,1.77,2,13.55,13.55,0,0,1,1.09,5.16,10,10,0,0,1-1.06,5.17,4.43,4.43,0,0,1-1.85,2,3.66,3.66,0,0,1-2.66,0l.06-.23a3.36,3.36,0,0,0,2.43-.1,4,4,0,0,0,1.6-1.83,9.79,9.79,0,0,0,.95-4.93,13.68,13.68,0,0,0-1-5A3.92,3.92,0,0,0,56.74,38a1.76,1.76,0,0,0-2.22.29Z"/></g></g></svg>