<svg xmlns="http://www.w3.org/2000/svg" viewBox="0 0 19.39 7.91"><title>Asset 1</title><g id="Layer_2" data-name="Layer 2"><g id="Layer_2-2" data-name="Layer 2"><path d="M15.41,2.36c.09-.48,4.16.77,4,.65a21.16,21.16,0,0,0-6.82-3A4.91,4.91,0,0,0,9.48.78C9.58.41,8.72.1,7.89.08A7.13,7.13,0,0,0,5.6.48,10.26,10.26,0,0,0,0,4.61C.73,3.86,2.4,3.4,4,3a33.24,33.24,0,0,1,5.28-.82A19.14,19.14,0,0,1,15.41,2.36Z"/><path d="M11.9,7.91l-.17-.47a2.28,2.28,0,0,0,1.45-1.93l.5,0A2.8,2.8,0,0,1,11.9,7.91Z"/><path d="M12.17,3.35l3.68-.54c.25,0,.56-.11.63-.36s-.39-.6-.77-.66a44.67,44.67,0,0,0-6.24-.47C8.2,1.32,5,.9,4.14,1.94,2.86,3.43,5,3.81,6,3.85A32.15,32.15,0,0,0,12.17,3.35Z"/></g></g></svg>