<svg xmlns="http://www.w3.org/2000/svg" viewBox="0 0 24.47 43.49"><defs><style>.cls-1{fill:#f8ffff;}</style></defs><title>Asset 10</title><g id="Layer_2" data-name="Layer 2"><g id="Layer_1-2" data-name="Layer 1"><path class="cls-1" d="M12,0c.24,3.71-2.49,6.9-5.18,9.47s-5.7,5.3-6.27,9c1.62-.17,2.92-1.36,4.1-2.48L8,12.75c.38-.36,1-.74,1.36-.41a1.06,1.06,0,0,1,.25.89A26.58,26.58,0,0,1,8.1,19.91C6.24,25.83,4.61,32,4.95,38.15,5,39,5.45,40.21,6.32,40a62.76,62.76,0,0,1,5.46-17.78c.17,3.36-.45,6.79-.72,10.15a22,22,0,0,0,1,10c.15.37.46.81.84.69s.38-.45.43-.76l2.76-18.81c.05,2.56.39,4.42.44,7a43.26,43.26,0,0,0,1,10.15c.73.05,1.06-.88,1.14-1.61a100.11,100.11,0,0,0,.56-15.58C20,27.6,20.85,31.81,22,35.93c.22.8.75,1.79,1.56,1.59,1.32-4.07-.31-8.42-.89-12.65-1.09-8,1.6-16.26-.35-24.07"/><path class="cls-1" d="M12.72,43.49a1.36,1.36,0,0,1-1.06-1c-1.37-3.42-1.27-7.22-1-10.16.08-1,.2-2.05.31-3.08.19-1.67.38-3.38.42-5.06a62.15,62.15,0,0,0-4.6,15.88l0,.3-.29.06a1.21,1.21,0,0,1-1-.23,2.89,2.89,0,0,1-.88-2c-.32-5.9,1-11.62,3.18-18.4l.1-.33a24.91,24.91,0,0,0,1.4-6.23c0-.29,0-.47-.09-.53s-.46.07-.78.39L4.92,16.32c-1.06,1-2.52,2.41-4.36,2.6L0,19l.09-.56C.65,14.74,3.58,12,6.15,9.5l.33-.32C9,6.82,11.77,3.65,11.53.06L12.41,0c.26,4-2.7,7.33-5.32,9.82l-.33.32c-2.44,2.32-5,4.72-5.68,7.8a8.36,8.36,0,0,0,3.24-2.25l3.39-3.25c.71-.68,1.44-.84,1.94-.43a1.44,1.44,0,0,1,.41,1.25,25.58,25.58,0,0,1-1.44,6.46l-.1.33C6.41,26.73,5.07,32.37,5.39,38.13a2.06,2.06,0,0,0,.54,1.4l0,0A63,63,0,0,1,11.38,22l.75-1.56.09,1.72a44.53,44.53,0,0,1-.41,7.15c-.11,1-.23,2-.31,3.06-.23,2.84-.32,6.51,1,9.76a.81.81,0,0,0,.31.43.9.9,0,0,0,.12-.4l2.76-18.81.87.05c0,1.27.12,2.38.22,3.46s.19,2.22.22,3.52a45.12,45.12,0,0,0,.88,9.6,2.14,2.14,0,0,0,.4-1.1,100,100,0,0,0,.56-15.51l.87-.1c.89,5,1.76,8.93,2.74,12.5.13.48.44,1.14.81,1.27.8-2.81.19-5.84-.39-8.78-.22-1.11-.45-2.25-.6-3.37a52.43,52.43,0,0,1,.06-11c.33-4.34.66-8.83-.4-13.07l.85-.21c1.09,4.37.75,8.94.42,13.35a51.74,51.74,0,0,0-.06,10.77c.15,1.1.38,2.23.59,3.32.63,3.16,1.28,6.42.27,9.53l-.08.23-.24.06c-.89.21-1.71-.53-2.08-1.9-.63-2.31-1.22-4.79-1.8-7.6A100.77,100.77,0,0,1,19.11,39c-.15,1.29-.76,2.05-1.6,2h0l-.31,0-.08-.3a43.63,43.63,0,0,1-1-10.25c0-1-.09-2-.16-2.84L13.76,42.34c0,.23-.13.92-.73,1.11A.86.86,0,0,1,12.72,43.49Z"/></g></g></svg>