<svg id="Layer_1" data-name="Layer 1" xmlns="http://www.w3.org/2000/svg" viewBox="0 0 33 115.27"><defs><style>.cls-1{fill:#3a506b;}</style></defs><title>liz-right-lower-arm</title><g id="Layer_2" data-name="Layer 2"><g id="Layer_1-2" data-name="Layer 1-2"><g id="Layer_2-2" data-name="Layer 2-2"><g id="Layer_1-2-2" data-name="Layer 1-2-2"><path class="cls-1" d="M30.37,37.5h0l2.56,77L1.46,114l2-101A13.29,13.29,0,0,1,17,0h0l-.27,13.1L30.08,13Z" transform="translate(-0.7)"/><path class="cls-1" d="M4.6,10.31a14.59,14.59,0,0,0-.42,3.21V17L4,30.91,3.51,58.62,2.93,86.23l-.66,27.65h0l-.79-.75,31.47.63-.75.77L29.33,13l1.48,0,2.87,101.56,0,.78h-.78l-31.47-.64-.75,0v-.77h0l.41-27.61.55-27.65.65-27.68.31-13.71.08-3.53A12.65,12.65,0,0,1,3.47,10,11.66,11.66,0,0,1,7.56,4.35,15.71,15.71,0,0,0,4.6,10.31Z" transform="translate(-0.7)"/></g></g></g></g></svg>