<svg xmlns="http://www.w3.org/2000/svg" viewBox="0 0 84.11 220.04"><defs><style>.cls-1{fill:#f8ffff;}.cls-2{fill:#3a506b;}.cls-3{fill:#0b132b;}.cls-4,.cls-5{fill:none;}.cls-5{stroke:#000;stroke-miterlimit:10;}</style></defs><title>Asset 6</title><g id="Layer_2" data-name="Layer 2"><g id="Layer_1-2" data-name="Layer 1"><path class="cls-1" d="M54.37,40.93c.34,14.73.83,32.72,1.31,45.35C61,85.19,66,83.92,71,82.43c-2.6,9-4.63,16.41-6.61,24.35a45.31,45.31,0,0,1,4.16,3.79,38.07,38.07,0,0,1,8.5,13.07c-11.94,5.17-19,8.19-31.7,11l-3.25-5V51.13c5.11-4,7.14-6,12.14-10.11ZM49.16,64a2,2,0,1,0-2,2A2,2,0,0,0,49.16,64Zm0,14.92a2,2,0,1,0-2,2A2,2,0,0,0,49.16,78.9Zm0,14.92a2,2,0,1,0-2,2A2,2,0,0,0,49.16,93.82Zm0,14a2,2,0,1,0-2,2A2,2,0,0,0,49.16,107.87Z"/><path class="cls-1" d="M29.75,40.84v-.1c4.78,4,7.4,6.46,12.39,10.39v78.49l-3.42,5C26,131.83,19,128.81,7,123.64a40.37,40.37,0,0,1,12.65-16.86c-2-7.93-4-15.39-6.6-24.35,5,1.49,10.06,2.76,15.37,3.84C28.91,73.62,29.41,55.58,29.75,40.84Z"/><path class="cls-1" d="M62.17,21.3c2.07,1.49,4.15,3,6.23,4.42-4.9,6.92-8.16,9.23-14,15.2-.14-6.45-.25-12.28-.33-16.75A52.55,52.55,0,0,0,48.87,21a34.57,34.57,0,0,1-.39-3.55,43.54,43.54,0,0,1,.19-6.59C53.09,14.58,57.61,18,62.17,21.3Z"/><path class="cls-1" d="M29.75,40.74v.1c-5.82-5.91-9.08-8.23-13.94-15.11,2.08-1.47,4.17-2.94,6.24-4.44,4.53-3.27,9-6.66,13.38-10.32a44.86,44.86,0,0,1,.19,6.51A34.57,34.57,0,0,1,35.24,21a52.55,52.55,0,0,0-5.16,3.14C30,28.6,29.89,34.36,29.75,40.74Z"/><path class="cls-1" d="M35.44,11a28.52,28.52,0,0,0-1.2-5.83,13.23,13.23,0,0,0,8,2.6,13.34,13.34,0,0,0,8-3.59h0a27.14,27.14,0,0,0-1.54,6.74,43.54,43.54,0,0,0-.19,6.59A34.57,34.57,0,0,0,48.87,21,52.55,52.55,0,0,1,54,24.17c.08,4.48.19,10.3.33,16.75l-.09.1c-5,4.16-7,6.08-12.14,10.11-5-3.93-7.61-6.41-12.39-10.39.14-6.38.26-12.14.33-16.57A52.55,52.55,0,0,1,35.24,21a34.57,34.57,0,0,0,.39-3.55A44.86,44.86,0,0,0,35.44,11Z"/><path class="cls-2" d="M77.09,123.64c1.05,2.21,1.34,2.67,2.35,5.17,4.17,10.33,3.56,22,3.19,33.11-.58,17.74-2.48,38-5.13,58.12H7c-2.61-19.91-4.92-40.58-5.49-58.12-.37-11.13-.84-22.72,3.19-33.11.92-2.36,1.38-3.16,2.3-5.17,11.94,5.17,19,8.19,31.69,11l3.42-5,3.25,5C58.1,131.83,65.15,128.81,77.09,123.64Z"/><path class="cls-2" d="M78.71,35.85c.62,15.39,2.44,27.48,4.92,42.3-4.24,1.61-8.39,3-12.58,4.27C66,83.92,61,85.19,55.68,86.28c-.47-12.63-1-30.62-1.31-45.35,5.87-6,9.14-8.29,14-15.2-2.08-1.47-4.16-2.93-6.23-4.42A99.9,99.9,0,0,1,74,23.25a6.2,6.2,0,0,1,2.69,1.06Z"/><path class="cls-2" d="M15.81,25.73c4.86,6.88,8.12,9.21,13.94,15.11-.34,14.75-.83,32.78-1.31,45.44-5.31-1.09-10.37-2.35-15.37-3.84C8.89,81.19,4.73,79.76.5,78.16,3,63.33,4.78,51.24,5.41,35.85l2-11.54a6.17,6.17,0,0,1,2.68-1.06,100.29,100.29,0,0,1,11.94-2C20,22.79,17.89,24.26,15.81,25.73Z"/><path class="cls-3" d="M47.14,62a2,2,0,1,1-2,2A2,2,0,0,1,47.14,62Z"/><path class="cls-3" d="M47.14,76.89a2,2,0,1,1-2,2A2,2,0,0,1,47.14,76.89Z"/><path class="cls-3" d="M47.14,91.81a2,2,0,1,1-2,2A2,2,0,0,1,47.14,91.81Z"/><path class="cls-3" d="M47.14,105.86a2,2,0,1,1-2,2A2,2,0,0,1,47.14,105.86Z"/><path class="cls-4" d="M22.07,21.28h0a100.29,100.29,0,0,0-11.94,2,6.17,6.17,0,0,0-2.68,1.06l-2,11.54C4.78,51.24,3,63.33.5,78.16c4.24,1.61,8.39,3,12.58,4.27,5,1.49,10.06,2.76,15.37,3.84.47-12.66,1-30.69,1.31-45.44v-.1c.14-6.38.26-12.14.33-16.57A52.55,52.55,0,0,1,35.24,21a34.57,34.57,0,0,0,.39-3.55A44.86,44.86,0,0,0,35.44,11a28.52,28.52,0,0,0-1.2-5.83,17.34,17.34,0,0,0-.68-1.85A20,20,0,0,0,32,.24"/><path class="cls-4" d="M54.28,41c-5,4.16-7,6.08-12.14,10.11-5-3.93-7.61-6.41-12.39-10.39l-.35-.3"/><path class="cls-4" d="M54.28,41l.09-.1c5.87-6,9.14-8.29,14-15.2-2.08-1.47-4.16-2.93-6.23-4.42C57.61,18,53.09,14.58,48.68,10.88"/><path class="cls-4" d="M62,21.28l.12,0A99.9,99.9,0,0,1,74,23.25a6.2,6.2,0,0,1,2.69,1.06l2,11.54c.62,15.39,2.44,27.48,4.92,42.3-4.24,1.61-8.39,3-12.58,4.27C66,83.92,61,85.19,55.68,86.28c-.47-12.63-1-30.62-1.31-45.35-.14-6.45-.25-12.28-.33-16.75A52.55,52.55,0,0,0,48.87,21a34.57,34.57,0,0,1-.39-3.55,43.54,43.54,0,0,1,.19-6.59,27.14,27.14,0,0,1,1.54-6.74A21.17,21.17,0,0,1,52.13.24"/><path class="cls-4" d="M71,82.43c-2.6,9-4.63,16.41-6.61,24.35a45.31,45.31,0,0,1,4.16,3.79,38.07,38.07,0,0,1,8.5,13.07"/><path class="cls-4" d="M77.09,123.64c-11.94,5.17-19,8.19-31.7,11"/><path class="cls-4" d="M13.07,82.43c2.6,9,4.63,16.41,6.6,24.35A40.37,40.37,0,0,0,7,123.64c11.94,5.17,19,8.19,31.69,11l3.42-5,3.25,5"/><path class="cls-4" d="M7,123.64c-.92,2-1.38,2.81-2.3,5.17-4,10.38-3.56,22-3.19,33.11C2.11,179.46,4.42,200.13,7,220H77.5c2.65-20.12,4.56-40.38,5.13-58.12.37-11.13,1-22.78-3.19-33.11-1-2.5-1.3-3-2.35-5.17"/><line class="cls-4" x1="42.14" y1="51.13" x2="42.14" y2="129.48"/><path class="cls-4" d="M29.92,41l-.18-.18c-5.82-5.91-9.08-8.23-13.94-15.11,2.08-1.47,4.17-2.94,6.24-4.44,4.53-3.27,9-6.66,13.38-10.32l.1-.08"/><path class="cls-5" d="M5.41,35.85"/><path class="cls-3" d="M22.1,21.63c-2.48.25-4.94.63-7.4,1.1q-1.84.35-3.67.75a7.9,7.9,0,0,0-3.31,1.17h0l.15-.26-2,11.54v-.06Q5.41,46.53,4.1,57.13C3.23,64.2,2.1,71.21.93,78.22h0l-.28-.48c4.59,1.56,9.19,3,13.84,4.38,2.33.65,4.66,1.3,7,1.9l7,1.83h0l-.53.41,1.64-62.1v-.23l.18-.13A53.09,53.09,0,0,1,35,20.65h0l-.23.34c.16-.9.39-1.77.48-2.64a26.49,26.49,0,0,0,.14-2.66,35.28,35.28,0,0,0-.3-5.33,25.53,25.53,0,0,0-1.19-5.17A20.57,20.57,0,0,0,31.61.47L32.35,0a24.19,24.19,0,0,1,2.16,5,30.82,30.82,0,0,1,1.09,5.3,46.19,46.19,0,0,1,.29,5.39c0,.9,0,1.79,0,2.7s-.17,1.8-.19,2.69v.22l-.23.12h0a52.21,52.21,0,0,0-5.11,3.11l.19-.35L28.88,86.29v.5l-.51-.08h0c-2.41-.36-4.8-.83-7.18-1.38s-4.73-1.17-7.07-1.87A129.36,129.36,0,0,1,.34,78.57L0,78.42l.06-.34h0c1.17-7,2.3-14,3.16-21S4.68,42.92,5,35.83v-.06L7,24.24l0-.17.12-.1h0a8.54,8.54,0,0,1,3.7-1.31q1.84-.38,3.7-.71c2.47-.44,5-.79,7.47-1Z"/><path class="cls-3" d="M42.14,51.42,42,51.31c-3.14-2.47-5.36-4.39-7.72-6.43-1.52-1.31-3.09-2.66-5-4.27l.28-.34c1.94,1.61,3.51,3,5,4.28,2.32,2,4.51,3.89,7.57,6.31,3.18-2.51,5.15-4.2,7.44-6.15,1.35-1.15,2.75-2.35,4.56-3.86l.28.34c-1.82,1.51-3.21,2.7-4.56,3.85-2.32,2-4.33,3.7-7.59,6.27Z"/><rect class="cls-3" x="41.92" y="51.14" width="0.44" height="78.34"/><circle class="cls-3" cx="47.15" cy="63.98" r="2.01"/><circle class="cls-3" cx="47.15" cy="78.91" r="2.01"/><circle class="cls-3" cx="47.15" cy="93.83" r="2.01"/><circle class="cls-3" cx="47.15" cy="107.87" r="2.01"/><path class="cls-3" d="M29.69,41.25c-1.64-1.67-3.11-3.09-4.4-4.33a68.47,68.47,0,0,1-9.75-11l-.19-.27.27-.19c6-4.24,13-9.22,19.7-14.82l.42.5C29.14,16.67,22.25,21.6,16.27,25.8a68.16,68.16,0,0,0,9.48,10.64c1.3,1.25,2.77,2.67,4.41,4.35Z"/><path class="cls-2" d="M62.15,21.3c.49.08,1.52.3,2,.37q2.67.37,5.33.84c1.07.19,6.85,1.27,7.64,1.94"/><path class="cls-2" d="M62.11,21.52a16.25,16.25,0,0,0,3.75.88l3.77.63c1.25.23,2.5.48,3.74.75.62.14,1.24.28,1.85.43l.9.26a3.63,3.63,0,0,1,.73.3l.57-.67-.28-.19-.25-.12c-.17-.08-.32-.13-.48-.19l-.94-.3c-.63-.18-1.25-.34-1.88-.49-1.26-.28-2.51-.54-3.78-.77L66,21.5a24.35,24.35,0,0,0-3.81-.42Z"/><circle class="cls-2" cx="11.04" cy="31.23" r="7.74"/><path class="cls-2" d="M77.09,123.64c1.05,2.21,1.34,2.67,2.35,5.17,4.17,10.33,3.56,22,3.19,33.11-.58,17.74-2.48,38-5.13,58.12H7c-2.61-19.91-4.92-40.58-5.49-58.12-.37-11.13-.84-22.72,3.19-33.11.92-2.36,1.38-3.16,2.3-5.17,11.94,5.17,19,8.19,31.69,11l3.42-5,3.25,5C58.1,131.83,65.15,128.81,77.09,123.64Z"/><path class="cls-1" d="M54.37,40.93c.34,14.73.83,32.72,1.31,45.35C61,85.19,66,83.92,71,82.43c-2.6,9-4.63,16.41-6.61,24.35a45.31,45.31,0,0,1,4.16,3.79,38.07,38.07,0,0,1,8.5,13.07c-11.94,5.17-19,8.19-31.7,11l-3.25-5V51.13c5.11-4,7.14-6,12.14-10.11ZM49.16,64a2,2,0,1,0-2,2A2,2,0,0,0,49.16,64Zm0,14.92a2,2,0,1,0-2,2A2,2,0,0,0,49.16,78.9Zm0,14.92a2,2,0,1,0-2,2A2,2,0,0,0,49.16,93.82Zm0,14a2,2,0,1,0-2,2A2,2,0,0,0,49.16,107.87Z"/><path class="cls-1" d="M29.75,40.84v-.1c4.78,4,7.4,6.46,12.39,10.39v78.49l-3.42,5C26,131.83,19,128.81,7,123.64a40.37,40.37,0,0,1,12.65-16.86c-2-7.93-4-15.39-6.6-24.35,5,1.49,10.06,2.76,15.37,3.84C28.91,73.62,29.41,55.58,29.75,40.84Z"/><path class="cls-1" d="M29.75,40.74v.1c-5.82-5.91-9.08-8.23-13.94-15.11,2.08-1.47,4.17-2.94,6.24-4.44,4.53-3.27,9-6.66,13.38-10.32a44.86,44.86,0,0,1,.19,6.51A34.57,34.57,0,0,1,35.24,21a52.55,52.55,0,0,0-5.16,3.14C30,28.6,29.89,34.36,29.75,40.74Z"/><path class="cls-1" d="M35.44,11a28.52,28.52,0,0,0-1.2-5.83,13.23,13.23,0,0,0,8,2.6,13.34,13.34,0,0,0,8-3.59h0a27.14,27.14,0,0,0-1.54,6.74,43.54,43.54,0,0,0-.19,6.59A34.57,34.57,0,0,0,48.87,21,52.55,52.55,0,0,1,54,24.17c.08,4.48.19,10.3.33,16.75l-.09.1c-5,4.16-7,6.08-12.14,10.11-5-3.93-7.61-6.41-12.39-10.39.14-6.38.26-12.14.33-16.57A52.55,52.55,0,0,1,35.24,21a34.57,34.57,0,0,0,.39-3.55A44.86,44.86,0,0,0,35.44,11Z"/><path class="cls-2" d="M78.71,35.85c.62,15.39,2.44,27.48,4.92,42.3-4.24,1.61-8.39,3-12.58,4.27C66,83.92,61,85.19,55.68,86.28c-.47-12.63-1-30.62-1.31-45.35,5.87-6,9.14-8.29,14-15.2-2.08-1.47-4.16-2.93-6.23-4.42A99.9,99.9,0,0,1,74,23.25a6.2,6.2,0,0,1,2.69,1.06Z"/><path class="cls-2" d="M15.81,25.73c4.86,6.88,8.12,9.21,13.94,15.11-.34,14.75-.83,32.78-1.31,45.44-5.31-1.09-10.37-2.35-15.37-3.84C8.89,81.19,4.73,79.76.5,78.16,3,63.33,4.78,51.24,5.41,35.85l2-11.54a6.17,6.17,0,0,1,2.68-1.06,100.29,100.29,0,0,1,11.94-2C20,22.79,17.89,24.26,15.81,25.73Z"/><path class="cls-3" d="M47.14,62a2,2,0,1,1-2,2A2,2,0,0,1,47.14,62Z"/><path class="cls-3" d="M47.14,76.89a2,2,0,1,1-2,2A2,2,0,0,1,47.14,76.89Z"/><path class="cls-3" d="M47.14,91.81a2,2,0,1,1-2,2A2,2,0,0,1,47.14,91.81Z"/><path class="cls-4" d="M22.07,21.28h0a100.29,100.29,0,0,0-11.94,2,6.17,6.17,0,0,0-2.68,1.06l-2,11.54C4.78,51.24,3,63.33.5,78.16c4.24,1.61,8.39,3,12.58,4.27,5,1.49,10.06,2.76,15.37,3.84.47-12.66,1-30.69,1.31-45.44v-.1c.14-6.38.26-12.14.33-16.57A52.55,52.55,0,0,1,35.24,21a34.57,34.57,0,0,0,.39-3.55A44.86,44.86,0,0,0,35.44,11a28.52,28.52,0,0,0-1.2-5.83,17.34,17.34,0,0,0-.68-1.85A20,20,0,0,0,32,.24"/><path class="cls-4" d="M54.28,41c-5,4.16-7,6.08-12.14,10.11-5-3.93-7.61-6.41-12.39-10.39l-.35-.3"/><path class="cls-4" d="M54.28,41l.09-.1c5.87-6,9.14-8.29,14-15.2-2.08-1.47-4.16-2.93-6.23-4.42C57.61,18,53.09,14.58,48.68,10.88"/><path class="cls-4" d="M62,21.28l.12,0A99.9,99.9,0,0,1,74,23.25a6.2,6.2,0,0,1,2.69,1.06l2,11.54c.62,15.39,2.44,27.48,4.92,42.3-4.24,1.61-8.39,3-12.58,4.27C66,83.92,61,85.19,55.68,86.28c-.47-12.63-1-30.62-1.31-45.35-.14-6.45-.25-12.28-.33-16.75A52.55,52.55,0,0,0,48.87,21a34.57,34.57,0,0,1-.39-3.55,43.54,43.54,0,0,1,.19-6.59,27.14,27.14,0,0,1,1.54-6.74A21.17,21.17,0,0,1,52.13.24"/><path class="cls-4" d="M13.07,82.43c2.6,9,4.63,16.41,6.6,24.35A40.37,40.37,0,0,0,7,123.64c11.94,5.17,19,8.19,31.69,11l3.42-5,3.25,5"/><line class="cls-4" x1="42.14" y1="51.13" x2="42.14" y2="129.48"/><path class="cls-4" d="M29.92,41l-.18-.18c-5.82-5.91-9.08-8.23-13.94-15.11,2.08-1.47,4.17-2.94,6.24-4.44,4.53-3.27,9-6.66,13.38-10.32l.1-.08"/><path class="cls-1" d="M62.17,21.3c2.07,1.49,4.15,3,6.23,4.42-4.9,6.92-8.16,9.23-14,15.2-.14-6.45-.25-12.28-.33-16.75A52.55,52.55,0,0,0,48.87,21a34.57,34.57,0,0,1-.39-3.55,43.54,43.54,0,0,1,.19-6.59C53.09,14.58,57.61,18,62.17,21.3Z"/><path class="cls-5" d="M5.41,35.85"/><path class="cls-3" d="M42.14,51.42,42,51.31c-3.14-2.47-5.36-4.39-7.72-6.43-1.52-1.31-3.09-2.66-5-4.27l.28-.34c1.94,1.61,3.51,3,5,4.28,2.32,2,4.51,3.89,7.57,6.31,3.18-2.51,5.15-4.2,7.44-6.15,1.35-1.15,2.75-2.35,4.56-3.86l.28.34c-1.82,1.51-3.21,2.7-4.56,3.85-2.32,2-4.33,3.7-7.59,6.27Z"/><path class="cls-3" d="M48.83,11a39.24,39.24,0,0,0-.25,4.73,23.68,23.68,0,0,0,.16,2.67c.11.87.36,1.74.57,2.63l-.23-.34h0a53.09,53.09,0,0,1,5.2,3.16l.19.13v.23q.27,15.53.69,31.05c.27,10.35.57,20.7,1,31l-.53-.41h0c4.73-1,9.44-2.19,14.08-3.56,2.32-.69,4.63-1.4,6.93-2.16s4.58-1.57,6.86-2.38l-.28.48h0c-1.1-6.35-2.12-12.72-2.94-19.11q-.62-4.8-1.07-9.62c-.16-1.61-.25-3.22-.35-4.83s-.18-3.22-.2-4.83l.54,0,.43,4.81.46,4.8q.46,4.8,1.09,9.58C82,65.37,83,71.73,84.05,78.08h0l.06.35-.33.13c-2.26.91-4.54,1.75-6.85,2.53s-4.62,1.54-7,2.2c-4.68,1.34-9.42,2.5-14.2,3.41h0l-.51.1,0-.51c-.39-10.35-.68-20.7-1-31.06s-.51-20.71-.69-31.06l.19.35a52.21,52.21,0,0,0-5.12-3.11h0l-.24-.13v-.21c0-.89-.07-1.78-.1-2.7v-2.7a41.44,41.44,0,0,1,.27-5.38A31.19,31.19,0,0,1,49.64,5a25.31,25.31,0,0,1,2.12-5l.74.47a19.77,19.77,0,0,0-2.38,4.71,25.29,25.29,0,0,0-1.22,5.18q0,.3-.08.61"/><rect class="cls-3" x="41.92" y="51.14" width="0.44" height="78.34"/><circle class="cls-3" cx="47.15" cy="63.98" r="2.01"/><path class="cls-2" d="M22,21.3c-.49.08-1.52.3-2,.37q-2.67.37-5.33.84c-1.07.19-6.85,1.27-7.64,1.94"/><path class="cls-2" d="M22,21.52a16.25,16.25,0,0,1-3.75.88L14.52,23c-1.25.23-2.5.48-3.74.75-.62.14-1.24.28-1.85.43l-.9.26a3.63,3.63,0,0,0-.73.3l-.57-.67L7,23.92l.25-.12c.17-.08.32-.13.48-.19l.94-.3c.63-.18,1.25-.34,1.88-.49,1.26-.28,2.51-.54,3.78-.77l3.81-.57A24.35,24.35,0,0,1,22,21.08Z"/><circle class="cls-3" cx="47.15" cy="78.91" r="2.01"/><circle class="cls-3" cx="47.15" cy="93.83" r="2.01"/><path class="cls-1" d="M29.69,41.25c-1.64-1.67-3.11-3.09-4.4-4.33a68.47,68.47,0,0,1-9.75-11l-.19-.27.27-.19c6-4.24,13-9.22,19.7-14.82l.42.5C29.14,16.67,22.25,21.6,16.27,25.8a68.16,68.16,0,0,0,9.48,10.64c1.3,1.25,2.77,2.67,4.41,4.35Z"/><path class="cls-3" d="M5.49,39.84c0,1.61-.1,3.22-.2,4.83s-.2,3.22-.35,4.83q-.45,4.82-1.07,9.62C3,65.52,2,71.89.93,78.23h0l-.28-.48c2.28.81,4.57,1.62,6.86,2.38s4.61,1.47,6.93,2.16c4.64,1.38,9.35,2.52,14.08,3.56h0l-.53.41c.39-10.34.68-20.7,1-31s.51-20.7.69-31.05v-.23l.19-.13A53.09,53.09,0,0,1,35,20.65h0l-.23.34c.2-.89.46-1.76.57-2.63a23.68,23.68,0,0,0,.16-2.67,38.76,38.76,0,0,0-.33-5.33A25.29,25.29,0,0,0,34,5.18,19.77,19.77,0,0,0,31.61.47L32.35,0a25.32,25.32,0,0,1,2.12,5,31.19,31.19,0,0,1,1.06,5.3,41.44,41.44,0,0,1,.27,5.38v2.7c0,.92-.13,1.81-.1,2.7v.21l-.24.13h0a52.21,52.21,0,0,0-5.12,3.11l.19-.35q-.27,15.53-.69,31.06c-.27,10.35-.57,20.71-1,31.06l0,.51-.51-.1h0c-4.78-.91-9.52-2.07-14.2-3.41-2.34-.66-4.66-1.41-7-2.2S2.59,79.49.34,78.57L0,78.44l.06-.35h0C1.08,71.73,2.12,65.38,3,59q.63-4.78,1.09-9.58l.46-4.8.43-4.81Z"/></g></g></svg>