<svg xmlns="http://www.w3.org/2000/svg" viewBox="0 0 53.76 57.15"><defs><style>.cls-1,.cls-6{fill:#f8ffff;}.cls-1{stroke:#000;stroke-miterlimit:10;stroke-width:0.75px;}.cls-2{fill:#b8f0f4;}.cls-3{fill:#0b132b;}.cls-4{fill:#5bc0be;}.cls-5{fill:#3a506b;}</style></defs><title>Asset 1</title><g id="Layer_2" data-name="Layer 2"><g id="Limbs"><path class="cls-1" d="M31.8,9.15a2.57,2.57,0,0,1,2.58-.83c1.56.54,1.42,3.16,2.85,8.46.77,2.89.91,2.41,1.56,4.93.21.82.34,1.45.38,1.65.58,2.84.85,3.69,1.23,5.84.32,1.81.17,1.59.72,6,.42,3.35.63,5,.76,5.29,2.24,4.8,11.33,4,11.5,6.5.1,1.42-2.93,2.16-3.67,5.42a5.93,5.93,0,0,1-.5,1.67,5.74,5.74,0,0,1-2.83,2.58c-3.46,1.3-6-7.36-13-8.25-2.53-.32-7.7.12-10.92-1.79l-.08,0c-.22-.13-1.87-1.53-5.17-4.33-3.75-3.19-4.27-3.63-4.5-4.57-.74-3,1.67-7,4.64-7.85,4-1.09,8.18,4.61,10.06,3.21.82-.61,0-1.65.8-4.25.89-2.75,2.28-2.89,3.36-6.08a10.56,10.56,0,0,0,.68-3.5,11.43,11.43,0,0,0-.34-2.64,16,16,0,0,1-.17-1.61C31.45,10.64,31.21,9.86,31.8,9.15Z"/><circle class="cls-2" cx="22.31" cy="2.04" r="0.61" transform="translate(-0.01 0.11) rotate(-0.29)"/><circle class="cls-2" cx="24.25" cy="2.03" r="0.61" transform="translate(-0.01 0.12) rotate(-0.29)"/><rect class="cls-3" x="6.67" y="0.06" width="25.22" height="47.56" transform="translate(-0.12 0.1) rotate(-0.29)"/><rect class="cls-4" x="7.68" y="5.51" width="23.21" height="35.23" transform="translate(-0.12 0.1) rotate(-0.29)"/><rect class="cls-5" x="17.86" y="43.58" width="3.07" height="3.07" transform="translate(-0.23 0.1) rotate(-0.29)"/><rect class="cls-4" x="6.8" y="47.62" width="25.22" height="0.56" transform="translate(-0.24 0.1) rotate(-0.29)"/><path class="cls-6" d="M19.25,16.33a7.06,7.06,0,1,0,7.1,7A7.07,7.07,0,0,0,19.25,16.33Zm-6.62,7.29h2.32a10.7,10.7,0,0,0,.46,2.9h-2A6.62,6.62,0,0,1,12.63,23.63Zm6.83-3.73,0-3.15c1.33.11,2.5,1.33,3.17,3.14Zm3.3.38a10.39,10.39,0,0,1,.46,2.9l-3.74,0v-2.9Zm-3.69-.38-3.16,0c.65-1.81,1.81-3.05,3.14-3.17Zm0,.39v2.9l-3.74,0a10.39,10.39,0,0,1,.43-2.9Zm-4.12,2.92H12.63a6.62,6.62,0,0,1,.74-2.91h2A10.7,10.7,0,0,0,14.95,23.22Zm.4.39,3.74,0v2.9l-3.29,0A10.39,10.39,0,0,1,15.34,23.61Zm3.76,3.28,0,3.15c-1.33-.11-2.5-1.33-3.17-3.14Zm.39,0,3.16,0C22,28.68,20.85,29.92,19.51,30Zm0-.39v-2.9l3.74,0a10.39,10.39,0,0,1-.43,2.9Zm4.12-2.92h2.32a6.62,6.62,0,0,1-.74,2.91h-2A10.7,10.7,0,0,0,23.62,23.57Zm0-.39a10.7,10.7,0,0,0-.46-2.9h2a6.62,6.62,0,0,1,.77,2.9Zm1.31-3.3H23a6.16,6.16,0,0,0-2-2.9A6.68,6.68,0,0,1,24.93,19.87ZM17.44,17a6.16,6.16,0,0,0-1.94,2.92H13.6A6.68,6.68,0,0,1,17.44,17Zm-3.81,9.92h1.9a6.16,6.16,0,0,0,2,2.9A6.68,6.68,0,0,1,13.63,26.92Zm7.49,2.88a6.16,6.16,0,0,0,1.94-2.92H25A6.68,6.68,0,0,1,21.12,29.79Z"/><path class="cls-1" d="M6.68,40.76a7.39,7.39,0,0,1-2.14-.28A2.06,2.06,0,0,1,4,40.25a2.84,2.84,0,0,1-1-1.12,2.27,2.27,0,0,1-.17-2l.07-.09a3.16,3.16,0,0,1,1.35-.86,4.11,4.11,0,0,1,2,0A12.17,12.17,0,0,1,8,36.63a16.93,16.93,0,0,1,2.48.79A3.47,3.47,0,0,1,12.28,39a1.21,1.21,0,0,1,.12.94c-.09.2-.32.41-1.81.61-.72.1-1.27.13-1.52.14C8.08,40.78,7.38,40.77,6.68,40.76Z"/><path class="cls-1" d="M4.77,31.6A9.45,9.45,0,0,1,2,30.42,2.66,2.66,0,0,1,1.42,30a4.34,4.34,0,0,1-.91-1.81A3.35,3.35,0,0,1,.62,26a1.49,1.49,0,0,1,.55-.63,1.52,1.52,0,0,1,1.25,0c1.4.4,2.1.6,2.44.75a16.7,16.7,0,0,1,2.24,1.14,17.07,17.07,0,0,1,1.47,1c1.38,1.06,2.29,1.75,2.53,2.9a2.37,2.37,0,0,1,0,1.28c-.09.2-.37.43-2.19.2a17.82,17.82,0,0,1-1.79-.32C6.58,32.16,6,32,4.77,31.6Z"/><path class="cls-1" d="M1.05,22.16a2.25,2.25,0,0,1,.27-1.8A2.48,2.48,0,0,1,3.14,18.9c.64-.07,1.42.36,3,1.23a13.68,13.68,0,0,1,2.27,1.51,8.15,8.15,0,0,1,1.17,1.19,3.91,3.91,0,0,1,1,2.24c0,.52,0,1.05-.43,1.31-.66.37-1.91-.06-3.57-.63a15.56,15.56,0,0,1-2.15-.87C2.89,24.1,1.43,23.37,1.05,22.16Z"/><path class="cls-1" d="M7.28,29.6"/><path class="cls-1" d="M41.38,48.9"/></g></g></svg>