<svg xmlns="http://www.w3.org/2000/svg" viewBox="0 0 45.92 56.4"><defs><style>.cls-1{fill:#b8f0f4;}</style></defs><title>Asset 2</title><g id="Layer_2" data-name="Layer 2"><g id="Layer_1-2" data-name="Layer 1"><path class="cls-1" d="M23,10.48a23,23,0,1,0,23,23A23,23,0,0,0,23,10.48ZM23,51a17.9,17.9,0,1,1,17.9-17.9A17.9,17.9,0,0,1,23,51Z"/><path class="cls-1" d="M26.13,31.74h0L23,18.27,19.79,31.74h0a3.26,3.26,0,1,0,6.34,0Z"/><path class="cls-1" d="M17.41,5.76h1.84V8.4a25.81,25.81,0,0,1,7.42,0V5.76h1.84a1,1,0,0,0,.94-.94V.94A1,1,0,0,0,28.51,0H17.41a1,1,0,0,0-.94.94V4.82A1,1,0,0,0,17.41,5.76Z"/><path class="cls-1" d="M42.23,16.85a2.89,2.89,0,0,0,.48-.38L43,16.2a2.88,2.88,0,0,0,0-4.07l-1.55-1.55a2.88,2.88,0,0,0-4.07,0l-.27.27a2.87,2.87,0,0,0-.68,1.09A25.78,25.78,0,0,1,42.23,16.85Z"/><path class="cls-1" d="M3.06,16.47a2.89,2.89,0,0,0,.57.45A25.79,25.79,0,0,1,9.39,12a2.87,2.87,0,0,0-.71-1.17l-.27-.27a2.88,2.88,0,0,0-4.07,0L2.79,12.12a2.88,2.88,0,0,0,0,4.07Z"/></g></g></svg>